<svg width="148" height="124" viewBox="0 0 148 124" fill="none" xmlns="http://www.w3.org/2000/svg">
<g clip-path="url(#clip0_378_12232)">
<path d="M35.363 108.953C36.0913 108.95 36.293 108.938 36.4946 108.926C36.7745 108.869 37.0543 108.811 37.5359 108.742C36.7232 107.334 37.4695 106.277 38.3391 105.254C41.3724 101.835 44.9684 99.03 48.6548 96.3814C55.6032 91.4333 62.6421 86.6417 69.5905 81.6936C71.9588 80.0141 74.2368 78.1782 76.2681 76.2761C78.868 73.7329 78.6964 72.8932 75.6959 70.7658C74.9766 70.2422 74.1339 69.6855 73.4477 69.0386C70.8383 66.6854 70.5341 63.6278 73.0107 61.0515C74.4942 59.4654 76.3931 58.0569 78.2257 56.8951C83.5672 53.5 89.3482 50.6857 95.2314 48.2295C103.519 44.6988 111.897 41.3246 120.23 37.8721C121.93 37.2039 123.54 36.3791 125.15 35.5544C125.496 35.2504 125.999 34.8562 126.736 34.3264C125.49 33.7939 124.569 33.2823 123.537 32.9393C117.208 30.6466 110.647 29.2177 103.987 28.1589C95.937 26.8594 87.7994 26.1317 79.5866 26.1776C78.9366 26.1355 78.2534 26.2168 77.6365 26.0513C76.4929 25.8769 75.7736 25.3533 75.4996 24.1555C75.316 23.1143 75.8155 21.9917 76.9229 21.5613C77.6722 21.2332 78.5449 20.9382 79.4749 20.9231C81.9727 20.7333 84.5488 20.4983 87.0586 20.5102C99.4184 20.783 111.517 22.7714 123.275 26.5202C125.171 27.0949 127.046 27.9945 128.954 28.7708C129.246 28.9153 129.583 29.1379 129.875 29.2824C134.458 32.165 134.724 36.601 130.074 39.3881C126.755 41.4077 123.21 43.0361 119.62 44.5862C109.957 48.8062 100.113 52.7132 90.4952 57.0115C86.6704 58.6971 83.0833 60.9755 79.4841 63.0523C78.7017 63.5038 78.0547 64.19 77.2061 64.8882C78.431 65.7458 79.364 66.459 80.3422 67.2504C84.2878 70.2927 84.908 73.8979 82.2028 78.0662C80.1657 81.2233 77.352 83.5769 74.2344 85.5844C63.4401 92.5431 52.5553 99.3454 41.6375 106.271C40.6655 106.936 39.6815 107.4 38.4296 108.122C39.3626 108.835 40.145 108.384 40.8282 108.302C46.549 107.192 52.3723 106.439 58.2316 106.291C59.2849 106.309 60.3834 106.405 61.7617 106.444C60.871 107.792 59.9321 108.334 58.9029 108.719C54.8192 110.137 50.7476 111.757 46.6518 112.973C42.556 114.189 38.3459 114.845 34.1929 115.781C33.275 115.998 32.312 116.137 31.4603 116.107C28.9836 115.971 27.575 114.073 28.0352 111.617C28.0894 111.168 28.2669 110.753 28.4444 110.338C30.2979 106.139 32.1063 101.863 34.0831 97.6977C34.694 96.4066 35.5516 95.1817 36.3761 94.0801C36.7883 93.5294 37.324 93.0117 37.9499 92.6505C38.8437 92.0305 39.8518 91.9702 40.7848 92.6834C41.7178 93.3966 41.8563 94.3596 41.5133 95.3919C41.2696 96.054 40.9025 96.683 40.5805 97.3902C38.8925 100.972 37.2165 104.755 35.363 108.953Z" fill="#141414"/>
</g>
<defs>
<clipPath id="clip0_378_12232">
<rect width="66.8468" height="131.887" fill="white" transform="translate(114.233) rotate(60.0139)"/>
</clipPath>
</defs>
</svg>
