<svg width="51" height="65" viewBox="0 0 51 65" fill="none" xmlns="http://www.w3.org/2000/svg">
<g clip-path="url(#clip0_421_19473)">
<path fill-rule="evenodd" clip-rule="evenodd" d="M43.6209 37.1896C43.3364 37.1315 43.2016 37.1041 43.017 37.0661L42.8955 36.8808C42.5182 36.7847 42.1528 36.6963 41.7904 36.5983C41.4844 36.5157 41.185 36.4042 40.876 36.3384C40.5318 36.2652 40.1992 36.1526 39.8471 36.0946C39.5294 36.0426 39.1741 36.0785 38.8888 35.9121C38.5576 35.718 38.1867 35.8359 37.8483 35.7118C37.5357 35.5971 37.2019 35.5409 36.8783 35.4593C36.8767 35.4666 36.8666 35.5161 36.8537 35.5775C35.8576 35.4608 34.8597 35.319 33.7999 35.5043C33.7775 35.4879 33.7013 35.433 33.6078 35.3655C33.5856 35.4333 33.5653 35.4952 33.5445 35.559C32.9674 35.6141 32.3832 35.7064 31.8069 35.7439C31.0973 35.7899 30.4071 36.0013 29.6825 35.9393C29.3186 35.9081 28.9222 35.9947 28.5768 36.1245C28.3653 36.2043 28.3236 36.061 28.1918 36.0095C28.1554 36.0873 28.1186 36.165 28.0698 36.2692C27.6124 36.3128 27.1415 36.358 26.6564 36.4043C26.6754 36.2853 26.6872 36.2134 26.7053 36.0997C26.4922 36.0156 26.3325 35.7598 25.8953 35.9534C26.0443 35.7589 26.1364 35.6386 26.2499 35.4906C25.9565 35.4413 25.8413 35.4218 25.6959 35.3973C25.6528 35.4882 25.6126 35.5734 25.5683 35.6671C25.4325 35.6759 25.2767 35.6864 25.1264 35.6962C25.1004 35.6386 25.0515 35.5779 25.0652 35.5528C25.1693 35.3685 25.2858 35.1909 25.3975 35.0126C25.2547 34.6741 24.9766 34.8956 24.7647 34.8518C24.7751 34.8018 24.7857 34.7521 24.7999 34.6828C24.7127 34.6326 24.6199 34.5789 24.5223 34.5224C24.6061 34.3138 24.6849 34.1171 24.7971 33.838C25.2993 33.4517 25.9141 33.0529 26.4287 32.5513C26.6948 32.2925 27.064 32.1195 27.2398 31.8312C27.4583 31.4733 27.8696 31.4088 28.0741 31.1173C28.2999 30.7961 28.6712 30.6664 28.8918 30.3925C29.134 30.0917 29.4949 29.9471 29.7161 29.674C30.2428 29.024 30.9859 28.5805 31.4174 27.8475C31.752 27.7385 31.8733 27.3048 32.2689 27.289C32.4411 26.9106 32.7466 26.6433 33.0338 26.3585C33.4393 25.9566 33.7062 25.4294 34.1972 25.0987C34.3359 25.005 34.4027 24.8046 34.5647 24.558C33.8526 24.7773 33.2414 24.9653 32.4939 25.1955C32.4293 25.1746 32.2148 25.1047 31.9984 25.0341C31.8477 25.21 31.7417 25.3338 31.6284 25.4656C30.908 25.6208 30.1986 26.0586 29.3808 25.9117C29.3428 26.2775 28.946 26.2776 28.7817 26.4794C27.8734 26.5788 27.1211 27.0196 26.219 27.3331C26.2049 27.3294 26.0822 27.298 25.9655 27.2681C25.6211 27.3436 25.4225 27.6768 25.0246 27.6827C24.736 27.6866 24.4085 27.8615 24.1745 28.0535C23.8889 28.2877 23.5366 28.4003 23.2358 28.4311C22.8623 28.4695 22.6717 28.7331 22.3378 28.8447C22.2539 28.8234 22.131 28.7922 21.9607 28.7489C21.3666 29.2227 20.6453 29.519 19.9491 29.9033C19.8332 29.8625 19.7176 29.8215 19.5683 29.7688L18.9138 30.198C18.9327 30.0497 18.9417 29.9813 18.9602 29.8385C18.6535 30.0849 18.352 30.0336 18.0177 29.904C18.0126 29.8224 18.0067 29.7281 18.0015 29.6482C17.4641 29.529 16.9121 29.4066 16.4085 29.2951C16.3458 29.0939 16.2985 28.9411 16.2372 28.744C16.2687 28.6915 16.328 28.5931 16.387 28.4947L16.2889 28.3452C16.2074 28.3665 16.1177 28.3899 15.9811 28.4256C15.7061 28.067 15.7656 27.6708 15.8684 27.2753C16.1319 27.0305 16.1319 27.0305 16.0914 26.5282C16.0044 26.6957 15.9714 26.7591 15.9199 26.8579C15.8674 26.81 15.8075 26.7558 15.7248 26.6802C15.8537 26.5649 15.9597 26.4703 16.0908 26.3528C15.9993 26.3224 15.9386 26.3019 15.8936 26.2869C15.9155 25.812 15.9374 25.336 15.9621 24.8026L16.2463 24.6162C16.1339 24.5832 16.0682 24.5636 15.979 24.5374C16.0369 24.4633 16.0916 24.3936 16.1637 24.3014L15.9864 24.0311C16.0149 23.8939 16.0358 23.7946 16.0565 23.6946C16.2712 23.7191 16.5112 23.5942 16.6972 23.8036C16.7145 23.3855 16.3713 23.4345 16.0698 23.3391C16.189 23.2451 16.2818 23.1719 16.3794 23.0952C16.366 22.7287 16.4292 22.3641 16.2032 21.9966C16.0144 21.6899 16.2158 21.3456 16.4348 21.0269C16.343 20.993 16.2875 20.9726 16.1766 20.9321C16.276 20.8347 16.3645 20.7486 16.4773 20.6388C16.4533 20.6113 16.4176 20.5708 16.3122 20.4499C16.3214 20.2041 16.401 19.8493 16.3314 19.5263C16.2323 19.0665 16.553 18.6807 16.4437 18.2114C16.3479 17.7999 16.3818 17.3555 16.4524 16.9113C16.5485 16.3056 16.5006 15.6772 16.5153 15.0138L16.1652 15.2434C16.1765 15.323 16.1928 15.4375 16.2146 15.594C16.0808 15.5966 15.9638 15.5988 15.8238 15.6019C15.7238 15.8031 15.5961 16.007 15.5203 16.2288C15.4567 16.4145 15.2362 16.5755 15.3918 16.8112C15.1082 16.9061 15.0957 17.1707 15.0449 17.4026C14.9742 17.3877 14.9246 17.3774 14.8859 17.3693C14.6972 18.2178 14.2795 18.958 13.8048 19.6735C13.7546 19.9481 13.7043 20.2225 13.6542 20.4943L13.4426 20.6331C13.293 21.0194 13.163 21.3555 13.0152 21.738C12.8563 21.6567 12.7436 21.5991 12.5981 21.5247C12.4836 21.7488 12.3761 21.9596 12.2765 22.1548C12.4261 22.294 12.5549 22.4144 12.6828 22.5334C12.4688 23.0363 12.2724 23.4979 12.0211 24.0881C11.9153 23.8037 12.0007 23.6543 12.0176 23.4836C11.6643 23.494 11.7866 23.8041 11.6987 23.9702C11.6066 23.966 11.515 23.9611 11.3188 23.9513C11.3662 24.0909 11.4104 24.2216 11.4546 24.3523C11.4013 24.342 11.3481 24.3317 11.2949 24.3217C11.3965 24.372 11.4981 24.4221 11.6098 24.4777C11.4957 24.6731 11.4013 24.8344 11.308 24.9934C11.2115 24.98 11.1383 24.9699 11.0593 24.9587C11.0427 25.0248 11.0247 25.0948 11.0018 25.1855C11.1483 25.3378 11.3036 25.5001 11.4456 25.6477C11.1305 26.2865 10.8303 26.8941 10.5304 27.5019C10.5016 27.4957 10.4726 27.4899 10.4442 27.4838C10.4474 27.4111 10.4503 27.3385 10.458 27.1588C10.1745 27.4294 9.94067 27.6527 9.66903 27.9122C9.43611 27.7148 9.22096 27.5322 8.90877 27.267C8.89486 27.2657 8.74412 27.2528 8.55288 27.2363C8.9217 26.3992 9.08455 25.5466 9.30329 24.7205C9.60617 23.5772 10.1154 22.5218 10.4868 21.4105C10.8734 20.2534 11.4139 19.1471 11.8836 18.0172C12.1513 17.374 12.3992 16.7219 12.6793 16.084C13.0728 15.1885 13.4536 14.285 13.909 13.4215C14.1098 13.0411 14.161 12.6098 14.4434 12.2499C14.6859 11.9409 14.7692 11.5059 14.9187 11.125C15.3008 10.1523 15.711 9.19203 15.9828 8.17686C16.1594 7.51571 16.4233 6.87736 16.6808 6.13397L17.4432 5.63394C17.5704 5.815 17.7728 5.96708 17.7025 6.30279C17.8826 6.21143 18.0508 6.1259 18.2097 6.0451C18.8578 6.36781 19.2799 6.89642 19.629 7.60641C19.5972 7.68853 19.5335 7.85281 19.4174 8.15395C19.3932 8.18855 19.2734 8.36052 19.1292 8.5669C19.3326 8.71973 19.4852 8.83453 19.6291 8.94267C19.61 9.28297 19.614 9.62547 19.5649 9.95995C19.5232 10.245 19.7553 10.5759 19.3267 10.7937C19.4824 10.8265 19.5323 10.8366 19.6251 10.8561C19.4038 11.1639 19.784 11.5817 19.3827 11.8529C19.4428 11.9736 19.4967 12.0818 19.5607 12.2099C19.516 12.2566 19.4669 12.3079 19.4125 12.3647C19.6216 13.3128 19.4692 14.2697 19.384 15.2442C19.4147 15.291 19.49 15.3537 19.4926 15.4189C19.5028 15.6825 19.5885 16.0149 19.4639 16.1954C19.2611 16.4884 19.5466 16.8916 19.1633 17.1035C19.2558 17.2638 19.3416 17.4124 19.4336 17.5716C19.3798 17.6441 19.3236 17.7194 19.2552 17.8115C19.3002 17.8888 19.3497 17.9735 19.4256 18.1045C19.3684 18.3475 19.302 18.6301 19.2234 18.9645C19.0618 18.8656 18.9666 18.8072 18.8347 18.726C18.8326 18.9567 18.8309 19.1647 18.8292 19.373C18.9105 19.4108 18.9915 19.448 19.1211 19.5072C19.0593 19.6345 18.9752 19.7456 18.9558 19.8671C18.9388 19.9733 18.9947 20.0913 19.0179 20.2023C19.0906 20.2319 19.1786 20.2676 19.3281 20.3286C19.2631 20.4606 19.2071 20.5734 19.1134 20.7633C19.0665 20.778 18.9123 20.8266 18.7369 20.8818L18.9065 21.1404C18.7652 21.3991 18.6644 21.5787 18.7888 21.8985C19.0003 22.442 18.9765 23.0554 19.036 23.6407C19.0453 23.7304 18.9334 23.8322 18.8779 23.9273C18.9554 23.951 19.0196 23.9709 19.0131 23.9687C18.9714 24.295 18.9755 24.6054 18.8841 24.8846C18.7915 25.1685 18.6046 25.422 18.422 25.7561C18.4566 25.9328 18.6149 25.8813 18.9146 25.5839C18.8088 25.9094 18.7733 26.0187 18.73 26.1512C18.6237 26.1637 18.5143 26.1766 18.3061 26.201C18.4908 26.3326 18.6148 26.421 18.7548 26.5207C18.7507 26.5829 18.7467 26.6548 18.7395 26.772C18.8358 26.7886 18.9925 26.8628 19.0472 26.8166C19.3146 26.5903 19.6253 26.5857 19.9136 26.5603C20.3003 26.1313 20.8791 26.1205 21.3447 25.8848C21.8571 25.6247 22.3913 25.3868 22.9421 25.2323C23.4695 25.084 24.0128 24.9469 24.4829 24.6968C24.9818 24.4311 25.5234 24.3183 26.03 24.0934C26.5465 23.8642 27.1004 23.7068 27.6513 23.5714C28.1823 23.4414 28.666 23.1881 29.2045 23.0645C29.7518 22.9388 30.3078 22.7664 30.826 22.5493C31.3396 22.3342 31.8821 22.2794 32.3968 22.0985C32.9095 21.9182 33.4318 21.7621 33.9571 21.6218C34.5022 21.476 35.0571 21.3665 35.6057 21.2327C36.1329 21.1041 36.6578 20.9647 37.2281 20.8187C37.4145 20.8574 37.6609 20.9084 37.9039 20.9589C37.8943 21.0234 37.8839 21.0968 37.874 21.163C38.0335 21.449 38.2666 21.2924 38.4409 21.2805C38.6714 21.5217 38.8873 21.7473 39.1207 21.9913C39.1143 22.0289 39.1019 22.103 39.0903 22.1715C39.6074 22.3097 39.567 22.7432 39.5419 23.1169C39.5163 23.4943 39.398 23.8651 39.315 24.2647C38.7566 24.7541 38.5499 25.6027 37.7247 25.8741C37.7671 25.9812 37.7934 26.0473 37.8375 26.158C37.5009 26.4675 37.1447 26.7945 36.7414 27.1648C36.7467 27.1825 36.7725 27.2693 36.7916 27.3337C36.5017 27.6644 36.2281 27.9929 35.935 28.3029C35.8197 28.4248 35.665 28.5822 35.5211 28.5895C35.1555 28.6084 34.9358 28.7541 34.773 29.0802C34.6982 29.23 34.5008 29.318 34.4213 29.5177L34.922 29.1893C34.9361 29.2899 34.9564 29.3566 34.9443 29.3628C34.5902 29.5516 34.3653 29.8809 34.1309 30.1779C33.9336 30.4282 33.6787 30.6592 33.4273 30.6765C33.1012 30.6989 32.9618 30.9346 32.5787 31.0349C32.7594 31.1042 32.8118 31.1244 32.865 31.1448C32.646 31.6362 32.5324 31.8074 32.1389 31.8556C31.824 31.8941 31.686 32.1155 31.4993 32.3147C31.6814 32.2227 31.8634 32.1307 32.1765 31.9726C31.8211 32.3312 31.5715 32.583 31.2193 32.9381C32.5268 32.7314 33.6996 32.87 34.873 32.8793C36.0683 32.8887 36.6861 32.9876 37.6255 33.3031C37.7962 33.3602 38.0013 33.308 38.1788 33.353C38.4859 33.4314 38.7786 33.5725 39.0878 33.6381C39.3717 33.6983 39.6813 33.6502 39.9591 33.7258C40.6941 33.9262 41.3927 34.2481 42.1451 34.4006C42.2189 34.4155 42.2689 34.549 42.3367 34.6365C42.4637 34.6332 42.6198 34.5858 42.7379 34.6331C43.3152 34.8647 43.9023 35.0845 44.4462 35.3815C44.8786 35.6176 45.3295 35.8182 45.7507 36.0933C46.1668 36.365 46.4503 36.7401 46.8053 37.0476C47.1725 37.3658 47.3412 37.8563 47.4191 38.389C46.7141 38.2961 46.6123 39.0662 46.1399 39.3372C46.3648 39.2135 46.5898 39.0896 46.8149 38.9658C46.835 39.0011 46.8551 39.0368 46.8753 39.0721L46.4527 39.3493C46.325 39.4331 46.1958 39.5148 46.0699 39.601C45.929 39.6981 45.7431 39.7591 45.7524 39.982C45.5498 39.8457 45.541 40.1675 45.4064 40.1363C45.1648 40.0809 45.3044 40.4422 45.0703 40.413C44.941 40.397 44.7907 40.4655 44.6656 40.5274C44.5111 40.604 44.3729 40.7134 44.2412 40.7998C44.1342 40.718 44.0597 40.6611 43.942 40.5709C43.977 40.709 43.9991 40.7962 44.0302 40.9177C43.9664 40.968 43.8912 41.0273 43.768 41.1242C43.565 41.0823 43.3245 41.0325 43.1084 40.9877C42.9993 41.068 42.9206 41.126 42.8485 41.179C42.8747 41.291 42.8961 41.3821 42.9258 41.5082C42.8033 41.4342 42.7096 41.3776 42.6156 41.321L42.4757 41.4128C42.4908 41.52 42.5067 41.6348 42.5247 41.7612C42.0792 41.8828 41.6249 41.9363 41.23 42.2091C41.0512 42.3324 40.7792 42.321 40.5244 42.376C40.5261 42.3715 40.5114 42.4143 40.4886 42.4797C40.1109 42.6046 39.7195 42.7341 39.2373 42.8935C39.3017 42.6901 39.3449 42.5544 39.3849 42.428C39.1626 42.533 39.038 42.6372 38.8812 42.8548C38.8571 42.8533 38.8326 42.8543 38.8085 42.8503C38.7585 42.8412 38.7089 42.83 38.6505 42.8176C38.6424 42.8675 38.6355 42.9172 38.626 42.9664C38.6212 42.9902 38.6115 43.0134 38.6033 43.0385C38.3993 43.094 38.1938 43.1497 37.9239 43.223L37.5557 42.6617C37.5177 42.6665 37.4799 42.6716 37.4418 42.6768C37.442 42.7915 37.4426 42.9063 37.4429 43.0694C37.4984 43.099 37.5968 43.151 37.7838 43.2503C37.4405 43.371 37.1604 43.4696 36.8883 43.5651C36.8205 43.4991 36.7698 43.4493 36.7169 43.3977C36.5381 43.827 36.1858 43.8057 35.8231 43.7774C35.7074 43.7686 35.5843 43.7843 35.4725 43.8162C35.2219 43.8872 34.9761 43.9754 34.6778 44.0737C34.6707 44.0676 34.6169 44.0219 34.5055 43.9275C34.3923 44.0132 34.2565 44.1159 34.0408 44.2796C34.097 44.2862 34.0269 44.2588 33.9676 44.2736C33.4874 44.3928 33.022 44.5688 32.5312 44.6483C32.485 44.6559 32.4462 44.6998 32.4002 44.7159C32.1003 44.8202 31.7674 44.5648 31.4823 44.789C31.2305 44.9869 30.9254 44.8851 30.6519 44.9611C30.3577 45.0429 30.0559 45.0972 29.7566 45.1584C29.6643 45.1774 29.5625 45.1621 29.4769 45.1945C29.384 45.2293 29.305 45.3012 29.1812 45.3824C29.0702 45.3428 28.9276 45.2924 28.8222 45.2546L28.3891 45.5387C27.9573 45.438 27.522 45.3291 27.1183 45.6375C27.0824 45.665 27.0238 45.6934 26.9863 45.6832C26.3514 45.5094 25.7777 45.8857 25.1508 45.8771C24.5462 45.8689 23.9416 46.0617 23.3326 46.1056C22.526 46.1639 21.7155 46.1643 20.9064 46.1852C20.8321 46.1874 20.7479 46.1733 20.6836 46.1385C20.0817 45.8139 19.4832 45.4827 18.94 45.1849C18.795 44.8311 18.6759 44.5403 18.5227 44.1664C18.584 44.0362 18.6848 43.8224 18.7825 43.6147C19.2108 43.5226 19.6214 43.4126 20.0393 43.3511C20.4594 43.2892 20.8872 43.2443 21.3109 43.2472C22.2386 43.253 23.1438 43.051 24.0624 42.9897C24.606 42.9535 25.1398 42.7547 25.6937 42.8821C26.5742 42.5882 27.4971 42.548 28.4026 42.4009C28.7941 42.3373 29.1995 42.3319 29.586 42.2035C29.942 42.0848 30.3165 42.0224 30.6824 41.9336C31.8266 41.6571 32.9717 41.3858 34.1137 41.1008C34.7083 40.9524 35.3005 40.7907 35.8877 40.6147C36.4791 40.4374 37.0621 40.1947 37.6486 40.0473C38.6765 39.7889 39.5891 39.2602 40.5978 38.9662C41.1304 38.8111 41.613 38.4691 42.1 38.1805C42.5746 37.8996 43.0262 37.5797 43.6209 37.1896Z" fill="#FFB77A"/>
</g>
<defs>
<clipPath id="clip0_421_19473">
<rect width="29.7351" height="45.2784" fill="white" transform="translate(0 16.3081) rotate(-33.2606)"/>
</clipPath>
</defs>
</svg>
