<svg width="147" height="107" viewBox="0 0 147 107" fill="none" xmlns="http://www.w3.org/2000/svg">
<g clip-path="url(#clip0_305_10478)">
<path d="M26.7327 92.364C27.4488 92.4966 27.6492 92.5223 27.8495 92.548C28.1351 92.5439 28.4208 92.5398 28.9068 92.5614C28.3705 91.0264 29.3004 90.1274 30.3454 89.2839C33.9621 86.4895 38.0175 84.4029 42.1326 82.487C49.8807 78.9191 57.6887 75.5216 65.4368 71.9537C68.0764 70.7446 70.6564 69.3648 73.0062 67.8741C76.0342 65.8595 76.022 65.0026 73.4699 62.3537C72.8607 61.7053 72.1364 61.0015 71.5826 60.2381C69.457 57.4402 69.7273 54.3795 72.6403 52.3093C74.3931 51.0272 76.521 49.9967 78.538 49.1965C84.4182 46.8552 90.622 45.1664 96.8597 43.8485C105.66 41.9225 114.52 40.1671 123.35 38.3264C125.145 37.9864 126.88 37.4758 128.615 36.9653C129.012 36.731 129.579 36.4372 130.402 36.054C129.277 35.2988 128.468 34.6247 127.517 34.0956C121.726 30.6646 115.546 28.0392 109.199 25.7589C101.532 22.9834 93.6717 20.7534 85.594 19.2694C84.9632 19.107 84.2768 19.0597 83.7015 18.7823C82.6103 18.398 82.0011 17.7496 81.9549 16.5218C81.9683 15.4646 82.6681 14.4546 83.8363 14.2379C84.6336 14.055 85.546 13.9277 86.4625 14.086C88.952 14.3645 91.5267 14.6133 93.9905 15.0922C106.083 17.6614 117.6 21.8674 128.455 27.7398C130.21 28.6574 131.885 29.8904 133.615 31.0084C133.875 31.2046 134.165 31.4862 134.425 31.6824C138.392 35.3681 137.826 39.7758 132.739 41.6486C129.102 43.0149 125.316 43.9548 121.5 44.8095C111.22 47.1566 100.821 49.1627 90.5713 51.5951C86.4995 52.5392 82.5509 54.1099 78.6281 55.4803C77.7753 55.7782 77.0118 56.332 76.0481 56.8601C77.0919 57.9307 77.8758 58.8051 78.6895 59.7648C81.9997 63.4884 81.9379 67.1461 78.504 70.7379C75.9146 73.4605 72.712 75.2491 69.2751 76.6411C57.3739 81.4685 45.413 86.1253 33.3968 90.8972C32.3179 91.3698 31.2648 91.642 29.9003 92.1186C30.6842 92.993 31.537 92.6951 32.2233 92.7424C38.051 92.716 43.9126 93.0605 49.6971 94.0061C50.7286 94.2198 51.7899 94.5189 53.1369 94.8138C52.0108 95.9727 50.9874 96.3302 49.9045 96.5172C45.6282 97.1499 41.3262 97.9829 37.0757 98.4152C32.8251 98.8476 28.5663 98.7086 24.3117 98.8553C23.3695 98.8974 22.3975 98.8542 21.5663 98.6661C19.158 98.0721 18.1276 95.9442 19.037 93.6171C19.1737 93.1866 19.4255 92.8116 19.6772 92.4366C22.2799 88.6568 24.8528 84.7917 27.5706 81.0673C28.4111 79.9125 29.4818 78.8687 30.497 77.9399C31.0046 77.4755 31.6272 77.0666 32.3095 76.8283C33.303 76.3855 34.3048 76.514 35.0887 77.3884C35.8726 78.2628 35.8294 79.2348 35.3002 80.1851C34.9375 80.7903 34.4597 81.3399 34.0117 81.9749C31.6864 85.1794 29.3354 88.5842 26.7327 92.364Z" fill="white"/>
</g>
<defs>
<clipPath id="clip0_305_10478">
<rect width="66.8468" height="131.887" fill="white" transform="translate(124.509) rotate(70.7437)"/>
</clipPath>
</defs>
</svg>
