<svg width="159" height="26" viewBox="0 0 159 26" fill="none" xmlns="http://www.w3.org/2000/svg">
<path d="M2.20605 2.12012V9.39174H32.9274V2.12012H2.20605ZM2.20605 16.6078V23.8795H32.9274V16.6078H2.20605Z" fill="#808080"/>
<path d="M49.6734 2.12012C47.278 2.12012 45.6357 2.68186 44.5339 3.50783C43.2381 4.45592 42.686 5.73705 42.686 7.00487C42.686 8.09728 43.0579 9.06979 43.6099 9.8358C44.4992 11.0459 47.0494 12.3626 48.9227 13.2773C50.7013 14.1322 52.3852 14.8227 53.3692 15.9417C54.0136 16.6767 54.3509 17.4272 54.3509 18.6062C54.3509 19.9339 53.7411 20.9486 52.7917 21.6591C51.8377 22.3696 50.5072 22.7693 49.0959 22.7693C45.8436 22.7693 44.132 21.8456 43.148 18.2176L42.0508 18.4951C42.4527 19.7918 42.8107 21.0507 43.0902 22.8803C44.8665 23.4998 47.0263 23.8795 48.8072 23.8795C51.5397 23.8795 53.584 23.1112 54.8706 21.9922C56.0371 20.9886 56.603 19.6408 56.603 18.1066C56.603 16.6611 55.9193 15.3178 55.2748 14.6095C53.9536 13.1641 52.1842 12.458 49.7889 11.279C47.8555 10.3354 46.6567 9.68482 45.8621 8.94767C45.28 8.417 44.8226 7.44228 44.8226 6.61631C44.8226 5.70153 45.183 4.93107 45.9198 4.34046C46.7791 3.63661 48.0241 3.23029 49.5579 3.23029C53.1821 3.23029 53.8219 4.30049 54.4664 7.33792L55.5635 7.06038C55.2864 5.73039 54.9952 4.16283 54.8128 2.95275C53.2444 2.36658 51.6391 2.12012 49.6734 2.12012ZM93.561 2.50868V3.39681C95.8593 3.39681 96.0441 3.5478 96.0441 5.67266V20.3824C96.0441 22.4762 95.8593 22.6028 93.561 22.6028V23.4354H103.551C106.743 23.4354 108.534 22.7227 109.73 21.6036C110.957 20.4823 111.463 19.0258 111.463 17.5515C111.463 15.9284 110.606 14.7672 109.499 13.9434C108.18 12.9665 106.415 12.4491 104.417 12.3892V12.3338C106.351 12.0673 107.656 11.4634 108.575 10.6685C109.712 9.6938 110.077 8.40156 110.077 7.28251C110.077 5.77712 109.28 4.60922 108.113 3.84098C106.455 2.77521 104.641 2.50877 101.819 2.50877L93.561 2.50868ZM80.7989 3.00825C79.4453 3.00825 78.4128 3.49673 77.6806 4.17393C76.6666 5.17753 76.1792 6.5386 76.1792 8.33707V10.1689H73.9271V11.1125H76.1792V20.7155C76.1792 22.5184 76.0175 22.7138 73.8693 22.7138V23.4354H80.7412V22.7138C78.4382 22.7138 78.3158 22.5429 78.3158 20.771V11.1125H82.1849V10.1689H78.3158V8.44809C78.3158 6.35209 78.6831 5.26856 79.2975 4.56249C79.7248 4.11842 80.1845 3.89639 80.7989 3.89639C81.7506 3.89639 82.1363 4.52253 82.4736 5.17309C82.8131 5.82365 83.1273 6.44978 83.8595 6.44978C84.4162 6.44978 84.7257 6.15448 84.7257 5.56165C84.7257 5.03098 84.2868 4.29161 83.3975 3.72986C82.7785 3.34575 82.0555 3.00825 80.7989 3.00825ZM146.284 3.00825C145.15 3.68546 144.092 4.02073 142.588 4.22944V4.84004C144.247 4.84004 144.436 5.07317 144.436 6.78283V20.771C144.436 22.4806 144.369 22.7138 142.588 22.7138V23.4354H148.305V22.7138C146.616 22.7138 146.573 22.4806 146.573 20.771V17.6625L148.247 15.9973L153.271 23.4354H156.794V22.7138C155.874 22.7427 155.161 22.6383 154.484 21.6036L149.806 14.7761L153.04 11.7786C153.745 11.128 154.232 10.9192 155.119 10.8905V10.1689H150.557V10.8905C152.033 10.8905 151.846 11.3745 151.019 12.1117L146.63 16.2193H146.573V3.17478L146.284 3.00825ZM99.2202 3.67436H102.165C104.316 3.67436 105.69 4.1051 106.554 4.78453C107.226 5.31519 107.709 6.50085 107.709 7.50445C107.709 8.9188 107.21 9.96014 106.323 10.6684C105.214 11.5543 103.473 11.9451 101.357 11.9451H98.2962V4.67351C98.2962 3.87641 98.4256 3.67436 99.2202 3.67436ZM87.1511 6.44978C86.7538 9.54494 85.4487 10.2688 83.513 10.4464V11.1125H85.8229V20.771C85.8229 23.0735 87.262 23.7684 88.8257 23.7684C90.0823 23.7684 91.0317 23.391 91.8286 22.7138L91.3666 22.0477C90.7499 22.4917 90.1724 22.7693 89.4609 22.7693C88.3892 22.7693 87.9595 22.0432 87.9595 20.66V11.1125H91.1934V10.1689H87.9595V6.44978H87.1511ZM65.5538 9.8358C63.5881 9.8358 62.1305 10.3798 60.934 11.4456C59.7075 12.5935 59.0861 14.4452 59.0861 16.7744C59.0861 19.461 59.7952 21.235 60.9918 22.3252C62.2206 23.3577 63.7151 23.7684 65.5538 23.7684C67.4871 23.7684 68.947 23.3288 70.1735 22.2697C71.3423 21.1773 72.0791 19.4321 72.0791 16.7744C72.0791 14.4452 71.3723 12.6534 70.1735 11.5011C68.977 10.4087 67.6072 9.8358 65.5538 9.8358ZM119.085 9.8358C117.461 9.8358 116.419 10.2244 115.62 10.6684C114.636 11.228 114.003 12.014 114.003 12.7222C114.003 13.1685 114.285 13.6104 114.87 13.6104C115.514 13.6104 115.814 13.3018 115.967 12.8888C116.246 12.2382 116.491 11.7386 116.891 11.4456C117.443 11.0281 118.048 10.7794 118.97 10.7794C119.984 10.7794 120.707 11.077 121.164 11.6676C121.566 12.1694 121.684 13.0442 121.684 13.7214V14.9981L119.894 15.3867C117.928 15.7974 116.378 16.428 115.332 17.1074C113.983 17.96 113.426 19.0258 113.426 20.3824C113.426 21.5037 113.902 22.3186 114.639 22.8803C115.438 23.4998 116.484 23.7684 117.468 23.7684C119.494 23.7684 120.7 23.1046 121.741 22.1587H121.857C122.136 23.129 122.809 23.6574 123.878 23.6574C124.68 23.6574 125.204 23.5041 125.726 23.2689L125.553 22.5473C125.308 22.6938 125.047 22.7693 124.744 22.7693C124.132 22.7693 123.82 22.2098 123.82 20.882V13.9434C123.82 12.6468 123.576 11.8585 122.781 11.0015C122.012 10.1777 120.928 9.8358 119.085 9.8358ZM130.403 9.8358C129.389 10.5441 128.343 10.8505 126.996 11.057V11.7231C128.62 11.6941 128.787 11.9007 128.787 13.6104V20.771C128.787 22.5429 128.65 22.7138 126.996 22.7138V23.4354H132.367V22.7138C130.923 22.7138 130.865 22.5429 130.865 20.771V13.6659C132.094 12.0406 133.503 10.8905 134.792 10.8905C135.619 10.8905 136.18 11.1192 136.582 11.5011C137.164 12.0939 137.275 13.0153 137.275 14.1655V20.771C137.275 22.5429 137.192 22.7138 135.716 22.7138V23.4354H140.913V22.7138C139.532 22.7138 139.412 22.4784 139.412 20.8265V14.0545C139.412 12.4936 139.022 11.43 138.315 10.7794C137.64 10.16 136.689 9.8358 135.37 9.8358C133.681 9.8358 132.094 10.775 130.865 12.2782H130.808L130.692 10.0023L130.403 9.8358ZM65.496 10.7794C66.7872 10.7794 67.8498 11.1724 68.5566 12.0006C69.3835 13.0331 69.827 14.5007 69.827 16.7744C69.827 19.1635 69.2657 20.6577 68.4988 21.6036C67.7943 22.3696 66.8427 22.8803 65.5538 22.8803C64.2648 22.8803 63.2531 22.3696 62.5509 21.6036C61.784 20.6577 61.2805 19.1635 61.2805 16.7744C61.2805 14.5007 61.7263 13.0331 62.5509 12.0006C63.2855 11.1724 64.2695 10.7794 65.496 10.7794ZM98.2962 13.0553H102.108C104.621 13.0553 106.346 13.4772 107.42 14.2765C108.52 15.0736 109.095 16.1971 109.095 17.496C109.095 19.0325 108.619 20.1471 107.882 20.882C106.838 21.9167 105.443 22.3252 103.262 22.3252H99.4511C98.4995 22.3252 98.2962 22.1187 98.2962 20.882V13.0553ZM121.684 15.8862V21.104C120.915 21.839 119.898 22.6583 118.392 22.6583C117.473 22.6583 116.775 22.3541 116.313 21.9367C115.851 21.497 115.678 20.8753 115.678 20.1049C115.678 18.7505 116.505 17.9467 117.699 17.3295C118.833 16.6523 120.362 16.2393 121.684 15.8862Z" fill="#808080"/>
</svg>
