<svg width="214" height="24" viewBox="0 0 214 24" fill="none" xmlns="http://www.w3.org/2000/svg">
<g clip-path="url(#clip0_695_72371)">
<path d="M0 0.575195H12.8824V4.86183H8.63518V23.4243H4.13513V4.86183H0V0.575195Z" fill="#808080"/>
<path d="M16.4873 0.575195H20.884V23.42H16.4873V0.575195Z" fill="#808080"/>
<path d="M46.9612 4.31026L43.8373 7.3275C41.8588 5.28153 39.5571 4.25782 36.9322 4.25638C34.6401 4.25638 32.7187 5.00207 31.1681 6.49345C30.4185 7.19312 29.8249 8.03757 29.425 8.97346C29.025 9.90936 28.8274 10.9164 28.8444 11.931C28.8285 12.9784 29.0353 14.0176 29.4517 14.9823C29.868 15.9471 30.4848 16.8162 31.2626 17.5344C32.8586 19.0631 34.8357 19.8275 37.1938 19.8275C38.7254 19.8275 40.018 19.5121 41.0717 18.8814C42.1255 18.2506 42.9741 17.2614 43.6175 15.9137H36.8685V11.8189H48.5836L48.6165 12.7822C48.6222 14.7867 48.0794 16.756 47.0447 18.4848C46.0762 20.1861 44.6585 21.6005 42.9404 22.5797C41.2608 23.5222 39.2911 23.9935 37.0311 23.9935C34.61 23.9935 32.4519 23.4784 30.557 22.4482C28.6653 21.4225 27.106 19.896 26.0569 18.043C24.9623 16.1683 24.3913 14.0437 24.4015 11.8835C24.36 8.96729 25.4535 6.14511 27.4595 3.9913C29.8747 1.33038 33.0213 -8.20206e-05 36.8992 -8.20206e-05C38.8517 -0.0146136 40.7868 0.360832 42.5864 1.10337C44.0769 1.72406 45.5352 2.79302 46.9612 4.31026Z" fill="#808080"/>
<path d="M52.7129 0.575195H65.437V4.83166H57.1184V8.96313H65.437V13.1463H57.1184V19.1528H65.437V23.4243H52.7129V0.575195Z" fill="#808080"/>
<path d="M69.873 0.575195H74.5732C77.1467 0.575195 78.9787 0.800052 80.0691 1.24976C81.1684 1.70616 82.092 2.49235 82.7071 3.49545C83.3915 4.61483 83.7369 5.90202 83.703 7.20666C83.703 8.7081 83.3366 9.96384 82.6038 10.9739C81.871 11.984 80.7645 12.7476 79.2843 13.2648L84.8066 23.4243H79.957L74.716 13.7476H74.305V23.4243H69.873V0.575195ZM74.305 9.50623H75.6943C77.1057 9.50623 78.0773 9.32448 78.6094 8.96097C79.1414 8.59747 79.4074 7.99474 79.4074 7.15278C79.4159 6.69189 79.2776 6.23986 79.0117 5.85968C78.7527 5.49321 78.3828 5.21578 77.9542 5.06657C77.5146 4.90565 76.7034 4.8252 75.5207 4.8252H74.305V9.50623Z" fill="#808080"/>
<path d="M112.374 4.41144L110.577 6.09032C109.348 4.88066 107.896 3.91089 106.297 3.23257C104.875 2.61488 103.34 2.28642 101.784 2.26705C99.9577 2.26749 98.1613 2.72203 96.5629 3.58817C94.9703 4.41197 93.6406 5.65069 92.7202 7.16791C91.8307 8.60928 91.3594 10.2613 91.3572 11.9459C91.3605 13.6755 91.8488 15.3709 92.7685 16.8468C93.7033 18.3899 95.0513 19.6525 96.6662 20.4977C98.3385 21.3862 100.214 21.8431 102.116 21.8252C104.515 21.8252 106.543 21.1622 108.201 19.836C109.831 18.559 110.889 16.7086 111.149 14.6787H103.705V12.4739H113.752C113.73 16.0041 112.66 18.8058 110.542 20.8791C108.425 22.9524 105.592 23.9905 102.043 23.9933C97.7317 23.9933 94.3191 22.5566 91.8056 19.683C89.9065 17.5571 88.874 14.8191 88.906 11.9933C88.897 9.87173 89.4719 7.78702 90.5702 5.95886C91.6535 4.11627 93.2322 2.60069 95.134 1.57739C97.1455 0.506344 99.4051 -0.0370772 101.694 -0.000193181C103.608 -0.0136417 105.506 0.343015 107.28 1.04938C109.018 1.74765 110.716 2.86834 112.374 4.41144Z" fill="#808080"/>
<path d="M118.188 0.575195H120.519V21.2196H129.484V23.4243H118.188V0.575195Z" fill="#808080"/>
<path d="M143.397 6.45505e-05C146.928 6.45505e-05 149.883 1.15452 152.261 3.46343C154.64 5.77234 155.829 8.61501 155.829 11.9914C155.829 15.3391 154.642 18.1768 152.268 20.5044C149.894 22.832 147.001 23.9972 143.589 24.0001C140.13 24.0001 137.213 22.8399 134.837 20.5195C133.685 19.4311 132.774 18.1222 132.16 16.674C131.547 15.2258 131.243 13.6694 131.269 12.1014C131.254 9.96154 131.814 7.85558 132.894 5.99575C133.942 4.17074 135.468 2.65298 137.315 1.59904C139.161 0.5451 141.261 -0.00687038 143.397 6.45505e-05ZM143.501 2.22205C141.775 2.22233 140.08 2.67871 138.596 3.54317C137.086 4.39332 135.837 5.62604 134.98 7.11213C134.105 8.63379 133.656 10.3549 133.679 12.1014C133.679 14.8169 134.638 17.11 136.558 18.9807C137.461 19.8859 138.542 20.6012 139.736 21.0829C140.93 21.5646 142.212 21.8026 143.503 21.7824C145.265 21.7948 146.998 21.3486 148.526 20.4893C150.034 19.6586 151.28 18.4374 152.127 16.9591C152.996 15.4411 153.442 13.7255 153.42 11.985C153.444 10.2613 152.998 8.56258 152.127 7.06472C151.257 5.59165 149.999 4.37525 148.485 3.54317C146.973 2.67628 145.252 2.22024 143.501 2.22205Z" fill="#808080"/>
<path d="M160.127 0.575195H164.722C166.568 0.575195 167.989 0.790713 168.984 1.22175C169.955 1.63331 170.775 2.32395 171.336 3.20235C171.911 4.08876 172.211 5.11967 172.2 6.17002C172.211 7.14422 171.949 8.10268 171.444 8.94158C170.906 9.80487 170.137 10.5065 169.219 10.9696C170.43 11.3719 171.362 11.8453 172.016 12.3899C172.666 12.9298 173.186 13.6039 173.539 14.364C173.907 15.1508 174.093 16.0073 174.084 16.8726C174.099 17.7461 173.923 18.6126 173.569 19.4145C173.216 20.2163 172.692 20.9353 172.033 21.5235C170.666 22.7922 168.834 23.4265 166.537 23.4265H160.127V0.575195ZM162.407 2.81226V10.1291H163.741C165.361 10.1291 166.551 9.9818 167.313 9.68726C168.049 9.41308 168.681 8.92502 169.125 8.28856C169.562 7.666 169.793 6.92599 169.784 6.17002C169.784 5.12261 169.411 4.30149 168.665 3.70666C167.919 3.11183 166.73 2.8137 165.097 2.81226H162.407ZM162.407 12.4265V21.1873H165.295C167 21.1873 168.246 21.0242 169.033 20.698C169.81 20.3848 170.476 19.8522 170.945 19.1679C171.462 18.4353 171.715 17.5542 171.662 16.6648C171.609 15.7754 171.253 14.929 170.653 14.2605C169.913 13.4726 168.939 12.9321 167.87 12.7153C167.075 12.5299 165.694 12.4365 163.726 12.4351L162.407 12.4265Z" fill="#808080"/>
<path d="M188.22 0.575195L199.089 23.42H196.574L192.907 15.9071H182.867L179.235 23.4243H176.637L187.648 0.579506L188.22 0.575195ZM187.925 5.42864L183.931 13.7002H191.9L187.925 5.42864Z" fill="#808080"/>
<path d="M202.7 0.575195H205.03V21.2196H214V23.4243H202.7V0.575195Z" fill="#808080"/>
</g>
<defs>
<clipPath id="clip0_695_72371">
<rect width="214" height="24" fill="white"/>
</clipPath>
</defs>
</svg>
