<svg width="253" height="26" viewBox="0 0 253 26" fill="none" xmlns="http://www.w3.org/2000/svg">
<g clip-path="url(#clip0_695_72373)">
<path d="M24.9224 0.742676H0V6.87128H24.9224V0.742676Z" fill="#808080"/>
<path d="M24.9224 6.87109H0V12.9996H24.9224V6.87109Z" fill="#F2F2F2"/>
<path d="M24.9224 13H0V19.1285H24.9224V13Z" fill="#B3B3B3"/>
<path d="M24.9224 19.1284H0V25.257H24.9224V19.1284Z" fill="#808080"/>
<path d="M47.2012 7.98556V12.0713H52.8654V13.9284H47.2012V19.8713H44.9355V6.12842H54.3758V7.98556H47.2012Z" fill="#808080"/>
<path d="M67.0256 6.12842C68.3472 6.12842 68.9136 6.31417 69.48 6.68559C70.2353 7.42845 70.8017 8.35701 70.8017 12.9999C70.8017 17.6427 70.2353 18.5713 69.48 19.3141C68.9136 19.6856 68.536 19.8713 67.0256 19.8713H62.8718C61.5502 19.8713 60.9838 19.6856 60.4174 19.3141C59.6621 18.5713 59.0957 17.6427 59.0957 12.9999C59.0957 8.35701 59.6621 7.42845 60.4174 6.68559C60.9838 6.31417 61.3614 6.12842 62.8718 6.12842H67.0256ZM61.9278 17.8285C62.1166 18.0142 62.3054 18.0142 63.0606 18.0142H66.8368C67.592 18.0142 67.7808 18.0142 67.9696 17.8285C68.1584 17.6427 68.536 17.0856 68.536 12.9999C68.536 9.09987 68.1584 8.357 67.9696 8.17129C67.7808 7.98557 67.592 7.98556 66.8368 7.98556H63.0606C62.3054 7.98556 62.1166 7.98557 61.9278 8.17129C61.739 8.357 61.3614 8.91415 61.3614 12.9999C61.5502 16.8999 61.739 17.6427 61.9278 17.8285Z" fill="#808080"/>
<path d="M88.1724 14.1142C88.1724 17.6427 87.7948 18.1999 87.0396 18.9427C86.2844 19.4999 85.3404 19.6856 83.4523 19.6856H81.3754C79.4874 19.6856 78.5433 19.4999 77.7881 18.9427C77.0329 18.1999 76.6553 17.457 76.6553 14.1142V6.12842H78.9209V14.6713C78.9209 17.0856 79.1098 17.457 79.4874 17.6427C79.6762 17.8284 80.0537 18.0142 81.753 18.0142H83.0747C84.5851 18.0142 84.9627 18.0142 85.3404 17.6427C85.718 17.2713 85.7179 17.2713 85.7179 14.6713V6.12842H87.9836V14.1142H88.1724Z" fill="#808080"/>
<path d="M106.297 19.8714H103.843C103.276 19.8714 103.087 19.6857 102.71 19.3143L97.0456 9.09998H96.668V19.8714H94.4023V6.12854H97.0456C97.612 6.12854 97.8009 6.31429 98.1785 6.68572L103.654 16.3428H104.031V5.94287H106.297V19.8714Z" fill="#808080"/>
<path d="M119.136 6.12842C120.835 6.12842 121.968 6.31413 122.723 7.05699C123.668 7.79985 124.234 9.65701 124.234 12.9999C124.234 16.3427 123.856 18.0142 122.723 18.9427C121.968 19.6856 121.024 19.8713 119.136 19.8713H112.717V6.12842H119.136ZM120.835 8.35701C120.458 7.98558 119.891 7.98556 119.136 7.98556H115.171V18.0142H119.136C120.08 18.0142 120.458 18.0142 120.835 17.6427C121.402 17.0856 121.591 16.157 121.591 13.1856C121.779 9.84274 121.402 8.91415 120.835 8.35701Z" fill="#808080"/>
<path d="M139.905 19.8713H129.898V6.12842H139.905V7.98556H132.164V11.6998H138.584V13.557H132.164V17.8285H139.905V19.8713Z" fill="#808080"/>
<path d="M153.688 14.4859C153.499 14.3002 152.932 14.3002 152.177 14.3002H148.023V20.0573H145.758V6.31445H153.688C154.632 6.31445 155.387 6.5002 155.765 6.87163C156.331 7.42877 156.709 8.17161 156.709 10.2145C156.709 12.6288 155.953 13.3716 154.254 13.5573C155.765 13.743 156.331 14.1145 156.52 16.1573C156.52 18.0145 156.709 19.3144 156.709 20.0573H154.443C154.254 19.1287 154.254 17.8287 154.254 16.343C154.065 15.043 153.876 14.6716 153.688 14.4859ZM152.932 12.4431C153.499 12.4431 153.688 12.2573 153.876 12.2573C154.065 12.0716 154.254 11.7002 154.254 10.2145C154.254 8.72875 154.065 8.35731 153.876 8.1716C153.688 7.98588 153.499 7.98587 152.932 7.98587H148.023V12.4431H152.932Z" fill="#808080"/>
<path d="M172.569 19.3145C172.191 19.6859 171.436 19.8716 170.303 19.8716H165.394C164.261 19.8716 163.506 19.6859 163.128 19.3145C162.562 18.7573 162.373 18.0145 162.373 15.6002H164.639C164.639 17.2716 164.828 17.643 164.828 17.8288C165.016 18.0145 165.205 18.0145 165.772 18.0145H169.925C170.492 18.0145 170.681 18.0145 170.869 17.8288C171.058 17.643 171.058 17.0859 171.058 15.9716C171.058 15.043 171.058 14.6716 170.869 14.4859C170.681 14.3002 170.492 14.3002 169.925 14.3002L165.394 13.9288C164.261 13.743 163.695 13.5573 163.317 13.1859C162.751 12.6288 162.562 12.0716 162.562 10.2145C162.562 8.35732 162.751 7.61449 163.506 6.87163C163.884 6.5002 164.639 6.31445 165.772 6.31445H170.303C171.436 6.31445 172.191 6.5002 172.569 6.87163C173.135 7.42877 173.324 7.98592 173.324 10.5859H171.058C171.058 8.91449 170.869 8.54305 170.869 8.54305C170.681 8.35733 170.492 8.35732 169.925 8.35732H166.149C165.583 8.35732 165.394 8.35733 165.205 8.54305C165.016 8.72876 165.016 9.2859 165.016 10.4002C165.016 11.3288 165.016 11.7002 165.205 11.8859C165.394 12.0716 165.583 12.0716 166.149 12.0716L170.68 12.4431C171.625 12.4431 172.38 12.6288 172.757 13.1859C173.324 13.743 173.513 14.3002 173.513 16.343C173.513 17.8287 173.324 18.5716 172.569 19.3145Z" fill="#808080"/>
<path d="M189.372 7.98556V12.0713H195.036V13.9284H189.372V19.8713H187.106V6.12842H196.547V7.98556H189.372Z" fill="#808080"/>
<path d="M213.35 14.1142C213.35 17.6427 212.973 18.1999 212.217 18.9427C211.462 19.4999 210.518 19.6856 208.63 19.6856H206.553C204.665 19.6856 203.721 19.4999 202.966 18.9427C202.211 18.1999 201.833 17.457 201.833 14.1142V6.12842H204.099V14.6713C204.099 17.0856 204.287 17.457 204.665 17.6427C204.854 17.8284 205.232 18.0142 206.931 18.0142H208.252C209.763 18.0142 210.14 18.0142 210.518 17.6427C210.896 17.2713 210.896 17.2713 210.896 14.6713V6.12842H213.161V14.1142H213.35Z" fill="#808080"/>
<path d="M231.476 19.8714H229.021C228.455 19.8714 228.266 19.6857 227.889 19.3143L222.224 9.09998H221.847V19.8714H219.581V6.12854H222.224C222.791 6.12854 222.98 6.31429 223.357 6.68572L228.833 16.3428H229.21V5.94287H231.476V19.8714Z" fill="#808080"/>
<path d="M244.315 6.12842C246.014 6.12842 247.147 6.31413 247.902 7.05699C248.846 7.79985 249.413 9.65701 249.413 12.9999C249.413 16.3427 249.035 18.0142 247.902 18.9427C247.147 19.6856 246.203 19.8713 244.315 19.8713H237.896V6.12842H244.315ZM246.014 8.35701C245.637 7.98558 245.07 7.98556 244.315 7.98556H240.35V18.0142H244.315C245.259 18.0142 245.637 18.0142 246.014 17.6427C246.581 17.0856 246.769 16.157 246.769 13.1856C246.769 9.84274 246.581 8.91415 246.014 8.35701Z" fill="#808080"/>
</g>
<defs>
<clipPath id="clip0_695_72373">
<rect width="253" height="26" fill="white"/>
</clipPath>
</defs>
</svg>
