<svg width="172" height="24" viewBox="0 0 172 24" fill="none" xmlns="http://www.w3.org/2000/svg">
<path d="M61.0602 23.229L58.8815 19.4576C59.9135 17.5148 59.9135 15.229 59.9135 12.2576C59.9135 8.48619 59.9135 5.74333 57.7348 3.45762C56.2442 1.85762 54.2948 1.05762 51.7722 1.05762C49.2495 1.05762 47.3002 1.9719 45.8095 3.45762C43.6308 5.62904 43.6308 8.3719 43.6308 12.2576C43.6308 16.029 43.5162 18.7719 45.8095 21.0576C47.4148 22.6576 49.2495 23.4576 51.7722 23.4576C52.4602 23.4576 53.0335 23.3433 53.6068 23.229H61.0602ZM48.9055 18.429C48.1028 17.5148 47.8735 16.4862 47.8735 12.2576C47.8735 8.02905 48.1028 7.00047 48.9055 6.08619C49.4788 5.40047 50.5108 4.94333 51.6575 4.94333C52.8042 4.94333 53.8362 5.40047 54.4095 6.08619C55.2122 7.00047 55.4415 8.02905 55.4415 12.2576C55.4415 16.4862 55.2122 17.5148 54.4095 18.429C53.8362 19.1148 52.8042 19.5719 51.6575 19.5719C50.5108 19.5719 49.4788 19.1148 48.9055 18.429Z" fill="#808080"/>
<path d="M111.399 1.28613H115.642V23.229H111.399V1.28613Z" fill="#808080"/>
<path d="M8.88702 23.4576C5.56168 23.4576 3.03902 22.7719 0.860352 20.6004L3.61235 17.8576C4.98835 19.229 6.93768 19.6862 8.88702 19.6862C11.4097 19.6862 12.7857 18.7719 12.7857 16.9433C12.7857 16.1433 12.5564 15.5719 12.0977 15.1147C11.639 14.6576 11.1803 14.5433 10.1483 14.3147L7.51102 13.9719C5.67635 13.7433 4.18568 13.0576 3.26835 12.1433C2.23635 11.1147 1.66302 9.62902 1.66302 7.80045C1.66302 3.91473 4.52969 1.17188 9.34569 1.17188C12.327 1.17188 14.6203 1.85759 16.455 3.68616L13.703 6.31473C12.327 4.9433 10.607 4.82902 9.23102 4.82902C6.93768 4.82902 5.79102 6.08616 5.79102 7.57188C5.79102 8.14331 6.02035 8.71473 6.47902 9.17187C6.93769 9.62902 7.62569 9.85759 8.54302 10.0862L11.1804 10.429C13.2444 10.6576 14.5057 11.229 15.423 12.1433C16.5697 13.2862 17.143 14.8862 17.143 16.829C17.143 21.0576 13.4737 23.4576 8.88702 23.4576Z" fill="#808080"/>
<path d="M23.335 23.229V1.28613H37.8976V5.05756H27.6923V10.2004H36.407V14.0861H27.6923V19.4576H37.8976V23.229H23.335Z" fill="#808080"/>
<path d="M74.4763 23.4576C70.0043 23.4576 66.335 20.3718 66.335 15.6861V1.28613H70.6923V15.5718C70.6923 18.0861 72.183 19.5718 74.4763 19.5718C76.7696 19.5718 78.2603 18.0861 78.2603 15.5718V1.28613H82.503V15.6861C82.503 20.3718 78.9483 23.4576 74.4763 23.4576Z" fill="#808080"/>
<path d="M102.914 21.0576C101.423 22.6576 99.4735 23.4576 96.9509 23.4576C94.4282 23.4576 92.4789 22.5433 90.9882 21.0576C88.8095 18.8862 88.8095 16.1433 88.8095 12.2576C88.8095 8.48619 88.6949 5.74333 90.9882 3.45762C92.4789 1.85762 94.4282 1.05762 96.9509 1.05762C99.4735 1.05762 101.308 1.9719 102.914 3.45762C105.092 5.62904 105.092 8.3719 105.092 12.2576C105.092 16.029 105.092 18.7719 102.914 21.0576ZM99.7029 6.08619C99.1295 5.40047 98.0975 4.94333 96.9509 4.94333C95.8042 4.94333 94.7722 5.40047 94.1989 6.08619C93.3962 7.00047 93.1669 8.02905 93.1669 12.2576C93.1669 16.4862 93.3962 17.5148 94.1989 18.429C94.7722 19.1148 95.8042 19.5719 96.9509 19.5719C98.0975 19.5719 99.1295 19.1148 99.7029 18.429C100.506 17.5148 100.735 16.4862 100.735 12.2576C100.735 8.02905 100.506 7.00047 99.7029 6.08619Z" fill="#808080"/>
<path d="M135.938 23.229L134.677 19.3433H126.879L125.503 23.229H121.031L129.058 1.28613H132.383L140.41 23.229H135.938ZM130.778 7.68613L128.026 15.6861H133.53L130.778 7.68613Z" fill="#808080"/>
<path d="M165.637 1.28613H171.141V6.77185H165.637V1.28613Z" fill="#808080"/>
<path d="M151.876 18.5433V1.28613H149.124V21.2861L151.876 18.5433Z" fill="#808080"/>
<path d="M153.825 20.4863L151.073 23.2292H171.14V20.4863H153.825Z" fill="#808080"/>
<path d="M157.38 13.0576V1.28613H154.628V15.8004L157.38 13.0576Z" fill="#808080"/>
<path d="M159.33 15.0005L156.578 17.7433H171.141V15.0005H159.33Z" fill="#808080"/>
<path d="M162.885 7.57185V1.28613H160.133V10.3147L162.885 7.57185Z" fill="#808080"/>
<path d="M164.834 9.51465L162.082 12.2575H171.141V9.51465H164.834Z" fill="#808080"/>
</svg>
