<svg width="147" height="143" viewBox="0 0 147 143" fill="none" xmlns="http://www.w3.org/2000/svg">
<path d="M74.6081 74.8485C74.6916 75.5086 74.8951 76.1643 74.9208 76.8868C75.1457 81.5209 75.4905 86.1506 75.5955 90.7891C75.6683 92.8363 75.3193 94.839 75.2143 96.9531C75.1608 97.136 75.1694 97.3769 75.1158 97.5597C73.9146 102.609 69.938 103.903 66.212 100.424C63.9764 98.3372 62.2076 95.8709 60.2033 93.534C55.1881 87.5714 50.1105 81.5507 45.0375 75.6505C40.7765 70.6245 36.4572 65.6609 32.1335 60.5768C32.0891 61.0006 32.1057 61.4821 32.1232 61.9639C32.5838 66.4686 33.2212 70.9064 33.5624 75.4157C33.873 79.082 33.9432 82.757 34.0142 86.4322C34.044 87.2752 34.207 88.475 33.132 88.6357C31.9367 88.8008 31.7117 87.543 31.4424 86.7091C30.6867 84.0242 29.8108 81.3437 29.3522 78.5874C27.9407 70.9828 26.7078 63.3116 25.474 55.6402C25.3197 54.6813 25.161 53.6019 25.2471 52.6341C25.4507 49.9134 27.26 48.4591 29.9775 48.9003C30.461 49.0028 30.9454 49.1054 31.3715 49.2703C36.6008 51.1252 41.5985 53.2297 46.3784 55.9454C46.9909 56.2843 47.6069 56.7435 48.1088 57.3278C48.7292 57.9075 48.8792 58.746 48.4872 59.5444C48.0953 60.3429 47.3312 60.7935 46.4835 60.584C45.5774 60.4369 44.6094 60.2318 43.7573 59.9019C40.8987 58.8631 38.0932 57.6413 35.2921 56.5399C34.6839 56.3214 34.1376 56.1609 33.3482 55.889C39.7701 62.5829 46.2415 68.9736 52.2414 75.623C58.3037 82.3302 64.0148 89.2919 70.0322 96.423C70.1885 95.7539 70.469 95.2009 70.5097 94.6567C70.606 92.3017 70.7602 89.8843 70.6745 87.4758C70.5032 82.6588 70.1498 77.7884 69.9785 72.9714C69.8778 71.8296 69.835 70.6253 69.9741 69.4746C70.3017 66.8698 72.608 65.8793 74.8179 67.2439C75.6787 67.8147 76.424 68.5104 77.0536 69.331C80.9638 74.6113 84.9939 79.8872 88.7884 85.2925C92.1355 89.9307 95.2469 94.6983 98.594 99.3364C99.7953 101.04 101.232 102.614 102.843 104.001C104.457 105.509 105.59 105.285 106.419 103.265C107.082 101.673 107.742 99.9597 107.86 98.2068C108.256 94.1524 108.59 90.0401 108.444 85.9457C107.804 73.0068 106.031 60.2911 102.947 47.8652C102.806 47.2679 102.549 46.7949 102.589 46.2506C102.63 45.7063 102.906 45.0331 103.315 44.7165C103.898 44.2125 104.688 44.4843 105.127 45.0103C105.566 45.5372 105.947 46.1255 106.15 46.7814C106.681 48.2085 107.217 49.7563 107.57 51.2502C110.446 62.8997 112.247 74.71 112.556 86.7569C112.697 90.7309 112.301 94.7853 111.963 98.7772C111.787 100.593 111.19 102.363 110.53 104.076C110.262 104.99 109.688 105.735 109.177 106.538C107.055 109.331 104.194 109.92 101.069 108.167C98.4955 106.696 96.5532 104.417 94.9087 102.066C90.6751 96.1349 86.5615 90.199 82.3279 84.2675C79.9916 81.0386 77.6553 77.8097 75.2569 74.5229C75.0214 74.6522 74.8437 74.7192 74.6081 74.8485Z" fill="#ABFFC3"/>
</svg>
