<svg width="130" height="108" viewBox="0 0 130 108" fill="none" xmlns="http://www.w3.org/2000/svg">
<g clip-path="url(#clip0_707_59525)">
<path fill-rule="evenodd" clip-rule="evenodd" d="M20.2566 41.7961C20.2441 41.6822 20.2305 41.5681 20.218 41.4542C22.5564 41.196 24.8942 40.9374 27.2332 40.6789C27.2474 40.8135 27.2621 40.9484 27.2776 41.0836C24.937 41.3214 22.5967 41.5585 20.2566 41.7961ZM111.47 62.2798C112.307 61.21 113.485 60.3255 112.531 58.8768C111.923 57.9559 111.328 56.969 110.512 56.2554C107.994 54.0498 105.54 51.7058 102.751 49.8905C99.0471 47.4806 94.8083 46.6155 90.5182 48.1349C86.4248 49.5841 82.4614 51.4087 78.4635 53.1223C72.9719 55.4754 67.5941 58.1815 61.3076 57.4138C57.2739 56.9211 53.5833 55.8384 50.419 53.0676C46.8413 49.9341 43.1642 46.883 39.3022 44.1121C33.9191 40.2502 27.8934 38.7385 21.286 40.3505C20.6168 40.5139 19.7056 40.5673 19.3694 41.0164C18.8018 41.7759 18.4802 42.7901 18.3193 43.7418C18.2628 44.0739 18.9409 44.8153 19.3614 44.881C20.2614 45.0222 21.2141 44.7874 22.1416 44.8158C22.8777 44.8378 23.6088 45.0212 24.3414 45.1366C24.4766 45.1577 24.6469 45.2623 24.7395 45.2134C26.7556 44.1359 28.4462 45.601 30.2719 45.9247C34.4914 46.6737 37.8147 49.123 40.9996 51.7771C44.0075 54.2837 46.9496 56.8692 49.9831 59.3437C50.848 60.0495 51.8707 60.6623 52.924 61.0213C55.9823 62.0653 59.0069 62.869 62.3907 62.9038C68.952 62.9712 74.3523 60.0558 79.9677 57.4236C83.4451 55.7934 86.9713 54.1601 90.6361 53.0642C95.2877 51.673 99.5293 53.264 103.453 55.87C104.485 56.5555 105.764 56.8707 106.802 57.5489C107.49 57.9988 107.923 58.8215 108.522 59.4272C109.456 60.3759 110.434 61.2824 111.47 62.2798Z" fill="#FFB77A"/>
<path fill-rule="evenodd" clip-rule="evenodd" d="M100.94 33.055C100.922 33.1933 100.904 33.3322 100.887 33.4702C99.5844 33.3077 98.2817 33.1453 96.9791 32.983C96.9989 32.8264 97.0188 32.6698 97.0386 32.5132C98.3388 32.694 99.6398 32.8742 100.94 33.055ZM69.6025 45.5305C69.6161 45.6458 69.6297 45.7611 69.6433 45.8764C68.2019 46.043 66.7612 46.2101 65.3198 46.3768C65.3067 46.2629 65.2934 46.1498 65.2799 46.0361C66.7207 45.8679 68.1614 45.6993 69.6025 45.5305ZM30.8833 29.7705C31.2037 29.8775 31.5242 29.9851 32.0195 30.1508L30.8326 30.6242C30.6056 32.5094 31.5914 33.4291 33.1447 33.9639C34.4982 34.4297 35.825 35.0461 37.2976 34.4044C37.4496 34.3383 37.7313 34.2989 37.8145 34.3837C38.9185 35.5048 39.8888 35.0525 40.7679 34.1406C41.0845 34.7544 41.2624 35.4368 41.6969 35.8495C42.1645 36.2938 42.8629 36.5081 43.4775 36.7846C47.0326 38.3832 49.3574 41.3585 51.9208 44.1174C54.278 46.654 57.0037 48.7853 60.582 49.3923C61.0498 49.4714 61.5568 49.3213 62.3565 49.2491C63.1228 49.8219 64.1809 50.4868 65.7085 50.0382C66.5972 49.7775 67.6844 50.2113 68.5847 49.9702C71.0633 49.3058 73.6352 48.7348 75.8965 47.5876C77.9935 46.5235 79.8514 44.8892 81.6123 43.2837C85.4425 39.7924 89.946 37.6959 94.9691 36.8654C97.7589 36.4044 100.625 36.679 103.233 38.1424C104.022 38.5854 104.94 38.7913 105.783 39.1448C109.887 40.8655 113.538 43.2701 116.685 46.4256C117.656 47.3996 118.607 48.3936 119.576 49.3697C120.033 49.8284 120.411 49.9958 120.893 49.289C122.079 47.5491 122.039 46.7365 120.772 44.9094C115.688 37.5724 108.437 33.6502 99.9496 31.74C96.1889 30.8933 92.5603 31.8623 89.1451 33.3358C86.8416 34.3303 84.6761 35.7083 82.5899 37.1225C80.6443 38.4411 78.9122 40.0691 77.0388 41.4983C74.7618 43.2351 72.0149 43.7798 69.3018 44.3639C62.4578 45.8367 56.9725 43.6128 52.5767 38.2754C47.7027 32.3566 41.3885 29.1867 33.7338 28.7685C32.7854 28.7172 31.8164 29.0571 30.8569 29.2159C30.8654 29.4007 30.8742 29.5854 30.8833 29.7705Z" fill="#FFB77A"/>
<path fill-rule="evenodd" clip-rule="evenodd" d="M30.7273 62.946C31.4394 63.2889 32.1568 63.6215 32.8614 63.9782C33.1641 64.1314 33.7145 64.4059 33.6887 64.5027C33.3377 65.8202 34.4706 66.3509 35.1752 66.5197C36.9828 66.9539 37.0856 68.5528 37.7823 69.7324C38.197 70.4335 39.6012 71.2318 40.3399 71.0863C40.2599 70.7228 40.1818 70.3678 40.1031 70.0131C40.4637 70.0403 40.8547 69.9889 41.1781 70.1121C41.735 70.3245 42.2505 70.6456 42.9421 71.0026C42.4869 71.2958 42.1761 71.496 41.8489 71.7061C41.9516 72.1623 42.0504 72.6017 42.1477 73.0361C43.6267 72.9969 45.0166 72.7072 46.4446 73.4169C47.2211 73.8033 48.0766 73.7878 48.0473 74.9486C48.0445 75.0472 48.7471 75.3165 48.8133 75.24C50.4078 73.3971 52.2401 74.8165 53.239 75.5438C54.0626 76.1428 54.8221 76.3372 55.5936 76.3834C56.1852 76.4187 56.8128 75.7985 57.4349 75.4894C57.5899 75.4123 57.7824 75.4113 58.0478 75.3561C58.1709 75.7497 58.2825 76.1061 58.3921 76.4534C59.7381 76.4824 59.7381 76.4824 62.063 74.717C62.8691 76.0641 64.2346 76.0816 65.4393 74.6931C65.6394 74.9455 65.8292 75.1857 65.8556 75.2188C67.4104 74.5588 68.4231 72.3315 70.6924 74.0984C71.3589 72.3183 72.8144 72.3875 74.4346 72.5338C75.1939 72.6018 76.0283 72.2113 76.7843 71.9157C79.8711 70.7084 82.9801 69.7058 86.3301 69.4022C87.9714 69.2536 89.5692 69.6467 91.1139 69.4983C94.4504 69.1785 96.8756 71.2747 99.6974 72.2608C101.021 72.7234 102.08 73.923 103.276 74.7643C104.006 75.2772 104.638 76.2944 105.694 75.121C106.511 74.2131 106.639 73.4178 105.676 72.3733C101.201 67.5217 95.8841 64.487 89.0458 64.3121C83.8974 64.1816 79.3066 65.9844 74.6379 67.7018C71.6204 68.8117 68.5556 69.7907 65.5176 70.8478C65.048 71.0117 64.0943 70.9074 64.7387 71.9144L64.7251 71.8954L65.3893 71.8837C65.4207 71.949 65.4518 72.0145 65.4833 72.0798C65.2048 72.2214 64.9396 72.4154 64.6449 72.4904C64.2983 72.5792 63.8844 72.4703 63.5708 72.609C61.0377 73.7278 58.3769 73.3507 55.7948 73.1285C53.0512 72.8922 50.3359 72.2798 47.6271 71.74C46.8021 71.5761 46.0382 71.1102 45.2461 70.7823L45.2964 70.7988C44.7413 70.6335 44.1872 70.4674 43.282 70.1971C44.0397 69.8388 44.4245 69.657 45.0334 69.3694C43.7792 68.6802 42.6865 67.986 41.5143 67.4694C40.7376 67.1266 40.4547 67.5243 40.4604 68.6811C39.8136 68.8884 39.1905 69.0884 38.4438 69.3275C38.6055 68.7189 38.7415 68.205 38.8382 67.8434C39.3718 67.5783 40.0976 67.4113 40.128 67.1613C40.1842 66.7009 39.9043 66.1459 39.6322 65.7131C39.2483 65.1026 38.7832 64.5283 38.2756 64.0146C37.9705 63.706 37.5192 63.5418 36.9427 63.1993C36.7837 62.0815 35.9362 61.2034 33.1914 59.5994C32.9923 59.821 32.782 60.0542 32.5223 60.3429C32.0557 58.7017 31.7933 58.5123 31.0439 58.8858L31.6881 60.5009L31.7 60.4541C31.6497 61.1169 31.5995 61.779 31.5441 62.5184C31.4642 62.5274 31.1668 62.56 30.8687 62.5922C30.8217 62.7101 30.7743 62.8282 30.7273 62.946Z" fill="#FFB77A"/>
<path fill-rule="evenodd" clip-rule="evenodd" d="M29.8711 62.1641C29.9172 62.0477 29.9639 61.9311 30.01 61.8147C29.1256 60.0886 29.1685 59.9789 30.8269 59.7033L30.8152 59.7495C30.0522 59.4439 29.289 59.1379 28.4314 58.7936C28.7229 58.3866 29.0016 57.9977 29.4276 57.403C28.8257 57.3137 28.3912 57.2394 27.9537 57.191C27.8089 57.175 27.618 57.2969 27.5139 57.2383C23.4484 54.9664 19.0234 54.379 14.4774 54.5977C12.3743 54.6991 10.2878 55.139 8.19656 55.4429C7.89736 55.4863 7.61274 55.631 7.32221 55.7286L7.36281 56.1786C10.0369 55.927 12.7119 55.675 15.386 55.4234C15.4018 55.5522 15.4176 55.681 15.4337 55.8103C12.6743 56.1153 9.9157 56.4194 7.18309 56.7213C7.0795 58.9745 7.3068 59.1557 9.39025 59.2102C12.1236 59.2827 14.8539 59.4581 17.5871 59.5652C18.1306 59.5863 18.6977 59.7369 19.0245 58.9488C19.158 58.629 19.8923 58.559 20.4743 58.3269L20.1306 57.4654C20.8223 57.5948 21.4161 57.7057 22.3678 57.8838C21.7274 58.2324 21.4142 58.4025 21.1131 58.5668C21.1635 58.6931 21.1711 58.8053 21.2256 58.8368C21.8307 59.1849 22.5315 59.1928 22.8576 60.1603C23.0811 60.8232 23.9297 60.4594 24.0684 59.6963C24.5661 59.9413 25.0665 60.1879 25.8146 60.556C26.1955 61.7794 27.3288 62.1322 28.7372 61.0246C28.8319 61.4347 28.8327 61.8483 29.0293 62.1187C29.1335 62.2623 29.5792 62.1572 29.8711 62.1641Z" fill="#FFB77A"/>
<path fill-rule="evenodd" clip-rule="evenodd" d="M51.919 71.421C54.0076 71.5111 56.097 71.6005 58.1861 71.6904C58.2249 71.5365 58.2632 71.3828 58.302 71.2289C57.9965 71.1685 57.6978 71.0785 57.3854 71.0517C55.9053 70.9255 54.4251 70.7978 52.936 70.7165C52.6158 70.6993 52.2605 70.8734 51.9208 70.9596C51.9203 71.1132 51.9195 71.2674 51.919 71.421Z" fill="#FFB77A"/>
<path fill-rule="evenodd" clip-rule="evenodd" d="M64.759 71.2219C63.2446 69.8968 61.8103 70.8284 60.3027 70.8462C60.7232 71.7203 62.0405 71.7952 64.7371 71.1942C64.7444 71.2009 64.759 71.2219 64.759 71.2219Z" fill="#FFB77A"/>
<path fill-rule="evenodd" clip-rule="evenodd" d="M45.0381 70.3633C45.5571 70.2402 46.0815 70.0369 46.5933 70.0173C47.0955 69.998 47.5848 70.1657 48.2336 70.2773C47.7282 69.3641 46.19 68.7855 45.5191 69.2231C45.229 69.4118 45.225 69.9795 45.0898 70.3755L45.0381 70.3633Z" fill="#FFB77A"/>
</g>
<defs>
<clipPath id="clip0_707_59525">
<rect width="111" height="71" fill="white" transform="matrix(-0.928838 0.370485 0.370485 0.928838 103.101 0)"/>
</clipPath>
</defs>
</svg>
