<svg width="126" height="75" viewBox="0 0 126 75" fill="none" xmlns="http://www.w3.org/2000/svg">
<g clip-path="url(#clip0_348_9800)">
<path fill-rule="evenodd" clip-rule="evenodd" d="M70.4415 38.6271C70.1607 38.7736 69.9363 38.9968 69.7399 38.9739C69.0862 38.8976 68.4725 39.0935 67.8465 39.1739C67.0787 39.2721 66.3174 39.5699 65.573 39.6323C64.5503 39.718 63.5262 39.8714 62.5336 40.0431C61.5104 40.2198 60.4599 40.2332 59.448 40.5205C58.9953 40.6491 58.4779 40.5467 57.9897 40.5617C57.9374 40.5635 57.8872 40.6497 57.8223 40.71C57.8586 40.7987 57.8976 40.8931 57.9471 41.0136C58.56 40.9001 59.1694 40.6628 59.7521 40.7166C60.2754 40.7646 60.712 40.4026 61.1208 40.4967C61.6126 40.6098 61.9954 40.2046 62.3849 40.3541C62.8432 40.5304 63.1501 40.0668 63.5517 40.1992C64.0329 40.3578 64.4085 39.9101 64.8228 39.9565C65.4048 40.0219 65.9351 39.5839 66.4006 39.7037C67.0316 39.8658 67.5086 39.2033 68.0922 39.5543C68.6174 39.2377 69.2246 39.3449 69.7876 39.2249C70.4242 39.0894 71.0628 38.8467 71.6968 38.8566C72.2379 38.8654 72.7187 38.5454 73.1715 38.6139C73.5917 38.6775 73.9031 38.406 74.2275 38.4747C74.665 38.567 75.0082 38.3787 75.3945 38.31C75.7165 38.2529 76.045 38.2102 76.375 38.1804C76.9818 38.1261 77.6127 38.1485 78.1797 37.8472C78.311 37.7775 78.5222 37.6635 78.5967 37.7149C79.0615 38.0358 79.427 37.488 79.8684 37.6083C80.3711 37.7452 80.7851 37.3899 81.2477 37.2896C81.3939 37.2581 81.5661 37.1188 81.6704 37.1629C82.0621 37.3266 82.4019 37.0162 82.7254 37.0628C83.1714 37.1266 83.3735 36.7518 83.7291 36.6961C84.2604 36.6116 84.7894 36.5087 85.3178 36.4038C85.7688 36.3143 86.2167 36.2106 86.721 36.1016C86.7317 36.084 86.7842 35.9969 86.814 35.9477C87.1087 35.9926 87.3716 36.033 87.5702 36.0639C87.9424 35.6925 88.326 35.5439 88.7877 35.6364C89.2972 35.7384 89.5673 35.3386 89.9002 35.0991C90.2837 34.8235 90.8115 35.3482 91.1858 34.7572C91.3736 34.4611 91.9435 34.406 92.3861 34.2237C91.5664 34.0588 90.8483 34.2163 90.2043 34.5487C89.542 34.8915 88.7247 34.5991 88.1325 35.1294C87.627 34.9659 87.3338 35.3074 87.0168 35.622C86.7809 35.5215 86.55 35.4228 86.2853 35.3096C86.0801 35.4818 85.8958 35.6371 85.7021 35.7998C85.3162 35.6857 84.938 35.6416 84.7286 36.1106C84.5484 36.0211 84.3801 35.9372 84.1828 35.8387C83.3664 36.068 82.5716 36.4783 81.6615 36.4491C81.2769 36.4368 80.879 36.5019 80.5037 36.5971C79.7997 36.776 79.1149 36.9892 78.3865 37.1109C77.6093 37.2411 76.77 37.195 76.0333 37.5933C75.914 37.6582 75.6987 37.5451 75.5182 37.512C75.4501 37.6244 75.4104 37.7797 75.3367 37.7983C74.7477 37.9466 74.1536 38.077 73.5574 38.1916C73.4665 38.2088 73.3543 38.1163 73.2513 38.0747C73.2011 38.1649 73.1477 38.2597 73.0673 38.4046C72.7527 38.3571 72.4176 38.3064 72.0819 38.2559C72.0661 38.2883 72.058 38.3373 72.0311 38.3533C71.598 38.6032 71.0573 38.413 70.6232 38.6938C70.5701 38.7282 70.4254 38.6207 70.4415 38.6271ZM21.6634 45.0594C21.5787 44.9265 21.522 44.838 21.4339 44.7003C21.3692 44.7927 21.3189 44.8654 21.2623 44.9472C20.6309 44.829 19.991 44.6921 19.3459 44.5933C18.4803 44.4607 17.6161 44.3886 16.7529 44.1626C16.0204 43.9711 15.1846 44.0004 14.5094 43.6565C13.8709 43.3326 13.1245 43.6442 12.5603 43.1714C11.8007 43.3175 11.2132 42.7529 10.5044 42.6675C10.296 42.6425 10.1229 42.5275 9.87561 42.5951C9.62605 42.6625 9.6096 42.6029 9.16326 42.1793C9.08469 42.1938 8.98084 42.2098 8.87884 42.234C8.8063 42.2508 8.69336 42.3192 8.67054 42.2954C8.11839 41.719 7.27295 42.1931 6.6919 41.7377C6.63695 41.6949 6.57787 41.5968 6.53637 41.6046C5.3589 41.8334 4.35278 41.0779 3.22785 41.0358C2.80659 41.0197 2.52474 40.6803 2.12219 40.6456C1.94979 40.6304 1.77945 40.5835 1.58685 40.5471C1.48787 40.3938 1.39982 40.1896 1.25186 40.0478C1.10325 39.9054 0.894875 39.8245 0.627573 39.6667C1.11693 39.2198 1.72197 39.2408 2.12256 38.817C1.72204 38.9306 1.32153 39.0442 0.892219 39.1658C0.83945 39.0865 0.781298 38.9989 0.72354 38.9125C1.93711 38.0221 1.94057 37.9698 3.75379 38.0885C5.03663 38.1729 6.35298 38.0679 7.5908 38.5541C8.58769 38.4525 9.52538 38.8107 10.491 38.9446C11.8076 39.1274 13.1046 39.4443 14.4173 39.6559C16.0696 39.9229 17.7283 40.1523 19.387 40.3773C20.9397 40.588 22.5 40.6844 24.0673 40.7613C25.1013 40.8121 26.1468 40.9289 27.1878 40.9943C28.2292 41.0596 29.273 41.09 30.3163 41.1285C31.0812 41.1562 31.8609 41.2711 32.6089 41.1657C33.4001 41.0539 34.134 41.3931 34.9084 41.2822C35.397 41.2124 35.9121 41.3793 36.3836 41.1231C36.4485 41.0873 36.5366 41.0374 36.5953 41.0548C37.5702 41.3507 38.5479 41.0604 39.5235 41.066C40.5371 41.0716 41.5516 41.0097 42.5643 40.9513C43.1244 40.9191 43.6754 40.8141 44.2449 40.8619C44.9167 40.9182 45.5641 40.6611 46.2448 40.6617C47.0849 40.662 47.934 40.5693 48.762 40.4667C49.5711 40.3666 50.3829 40.2837 51.1934 40.2203C52.7736 40.0959 54.3332 39.7574 55.9287 39.7817C56.3508 39.7884 56.7296 39.5681 57.1964 39.59C57.8258 39.6198 58.4999 39.1778 59.0964 39.2803C59.7548 39.393 60.2707 38.7825 60.8916 39.1066C61.9867 38.7049 63.1801 38.8171 64.2877 38.4579C64.6165 38.3509 64.9872 38.3739 65.3378 38.3316C65.7255 38.2851 66.1133 38.2405 66.4985 38.1791C66.8487 38.1239 67.1688 37.8052 67.5526 38.0672C68.0884 37.8043 68.6931 37.8621 69.2435 37.7149C69.9487 37.5263 70.7183 37.6594 71.3739 37.2638C71.9111 37.5688 72.403 36.913 72.9537 37.189C73.0498 37.2372 73.2316 37.1134 73.3745 37.0707C73.7882 36.947 74.1724 36.7873 74.6461 36.8593C75.0516 36.9209 75.4087 36.51 75.9213 36.6602C76.2166 36.7465 76.6206 36.4592 76.9603 36.3454C77.1487 36.4396 77.3174 36.5233 77.4911 36.6102C77.9423 36.0169 78.5145 36.1197 79.1094 36.3298C79.2899 35.867 79.7923 35.7616 80.1176 35.8212C80.5362 35.8973 80.8421 35.7463 81.1779 35.6404C82.1585 35.3311 83.2107 35.3335 84.1711 34.9091C84.418 34.7998 84.7851 34.9634 85.088 35.0004C85.202 34.9063 85.3226 34.7777 85.4683 34.6922C85.8755 34.4526 86.3688 34.539 86.8069 34.2779C87.1699 34.0615 87.7097 34.0559 88.1564 34.1011C88.4022 34.1257 88.4264 33.9551 88.5312 33.9301C89.1256 33.7891 89.6358 33.2989 90.3301 33.5185C90.5044 33.5733 90.7527 33.3939 90.9668 33.3222C92.5017 32.8081 94.035 32.2893 95.5728 31.7839C95.9193 31.6695 96.2823 31.5275 96.6354 31.5332C96.9983 31.5392 97.068 31.0992 97.43 31.147C97.664 31.1782 97.9117 31.1062 98.1936 31.0755C98.4128 30.9528 98.6734 30.755 98.9669 30.6509C100.102 30.2496 101.232 29.8135 102.395 29.5122C103.843 29.1373 105.121 28.3712 106.499 27.8371C107.491 27.4529 108.344 26.7063 109.332 26.0753C109.555 26.0816 109.892 26.0913 110.255 26.1016C110.282 26.0555 110.335 25.9626 110.401 25.8493C110.674 26.0187 110.946 26.1873 111.266 26.3848C110.711 26.7428 110.246 27.0427 109.7 27.3948C109.927 27.5594 110.068 27.6621 110.238 27.786L111.343 27.416C111.527 27.5085 111.662 27.5759 111.9 27.6945C111.716 27.9597 111.532 28.2251 111.32 28.531C111.56 28.5424 111.698 28.5489 111.85 28.5561C112.179 29.1056 111.909 29.5916 111.678 30.0777C111.771 30.1298 111.863 30.1826 111.885 30.1961C111.712 30.537 111.546 30.8657 111.347 31.2588C111.04 31.2857 110.565 31.0332 110.252 31.4998C110.344 31.553 110.437 31.6063 110.612 31.7066C110.119 31.7878 109.69 31.8581 109.262 31.9287C109.267 31.9867 109.271 32.0465 109.276 32.105C109.49 32.0863 109.704 32.0677 109.985 32.0428C109.764 32.271 109.586 32.4561 109.354 32.6959C109.251 32.5913 109.163 32.5015 108.993 32.3278C108.819 32.3748 108.551 32.4471 108.224 32.5359C108.385 32.7186 108.502 32.8518 108.718 33.095C108.457 33.1823 108.293 33.2504 108.124 33.2919C106.896 33.5927 105.875 34.3863 104.648 34.7145C103.414 35.045 102.226 35.5443 100.995 35.8901C100.733 35.9639 100.71 36.4172 100.309 36.2251C100.185 36.1658 99.8793 36.4892 99.7534 36.43C99.2986 36.2172 99.3447 36.7569 99.0607 36.8294C98.5672 36.9549 98.0682 36.8551 97.5652 37.0454C96.0523 37.6172 94.5094 38.1135 92.9651 38.5984C92.3834 38.7814 91.7583 38.8231 91.1673 38.9822C90.5611 39.1455 89.9726 39.3736 89.3641 39.5298C90.1567 38.9931 92.227 38.3302 93.2027 38.1471C93.0268 38.1528 92.8513 38.1583 92.6754 38.1638C92.7053 38.0967 92.7356 38.0293 92.7653 37.9616C92.1248 38.1761 91.4696 38.3564 90.8467 38.6134C89.9535 38.9825 88.9397 38.8289 88.0761 39.2942C87.6597 39.1166 87.2636 39.4772 86.9219 39.41C86.3772 39.3032 86.1558 39.9178 85.5942 39.797C85.1701 39.7058 84.6716 39.961 84.1068 40.0838C84.0529 40.0634 83.8939 40.0035 83.7348 39.9436C83.7415 39.889 83.7481 39.8343 83.7543 39.7798C84.8241 39.5426 85.8939 39.3052 87.0175 39.0565C87.0395 39.019 87.1143 38.8916 87.1892 38.7644C87.0366 38.6884 86.9018 38.6212 86.7673 38.5545C86.6891 38.6667 86.6109 38.779 86.442 39.0221C86.2987 38.7962 86.1654 38.5862 86.0322 38.3761L85.8738 38.6376C85.7926 38.7184 85.7111 38.7999 85.6085 38.902C85.55 38.8015 85.4972 38.7103 85.421 38.5796C84.9587 38.6182 84.4668 38.6598 83.9693 38.7014C83.9425 38.928 83.9225 39.0976 83.8996 39.2905C83.4801 39.2794 83.0704 39.269 82.6746 39.2587C82.5906 39.3559 82.4998 39.4618 82.373 39.6087C82.0659 39.408 81.7867 39.2251 81.507 39.0422C81.4288 39.1985 81.3951 39.2661 81.346 39.3647C81.1339 39.3366 80.911 39.3073 80.6742 39.2761C80.7468 39.1356 80.8158 39.0025 80.8911 38.8571C80.9809 38.8942 81.0763 38.934 81.2225 38.9946C81.3772 38.8502 81.5517 38.6865 81.747 38.504C81.8623 38.6528 81.9473 38.7628 82.038 38.8797C82.3039 38.6774 82.5675 38.4769 82.8595 38.2546C83.3883 38.4484 83.8379 37.9897 84.419 37.9288C84.5701 37.9991 84.7693 38.0919 84.9688 38.1841C85.1359 37.6956 85.6637 37.8264 86.0269 37.5493C86.001 37.4522 85.9676 37.328 85.908 37.1068C85.7957 37.2764 85.7436 37.3541 85.6493 37.4966C85.4928 37.376 85.3216 37.2447 85.1405 37.1053C85.0237 37.358 84.9455 37.5275 84.8557 37.7222C84.5906 37.6821 84.3287 37.6423 84.0529 37.6002C83.8437 38.0122 83.4786 37.9397 83.072 37.8863C82.7297 37.8411 82.3709 37.9216 81.9955 37.9485C81.8832 37.8477 81.7435 37.7229 81.4645 37.473C81.4404 37.8261 81.4295 37.9853 81.4133 38.2249C81.0854 38.284 80.7361 38.3473 80.3865 38.4093C80.0335 38.4721 79.6498 38.65 79.3348 38.5676C78.9118 38.4564 78.8723 39.0545 78.4258 38.8948C78.1264 38.7876 77.7284 38.9558 77.3777 39.0004C77.3009 39.2703 77.2436 39.4724 77.1365 39.8517C77.5224 39.6827 77.7567 39.5798 78.1115 39.4238C78.0848 39.4117 78.2108 39.4688 78.3718 39.5411C78.3407 39.6296 78.31 39.7164 78.2704 39.8306C78.3424 39.8758 78.4259 39.9282 78.5072 39.9793C78.4827 40.0299 78.4664 40.1261 78.4274 40.1361C78.1076 40.2183 77.7777 40.2646 77.4628 40.3614C77.1248 40.4658 76.7634 40.7708 76.4774 40.7046C76.0432 40.6041 75.7683 40.8879 75.3731 40.9014C75.2079 40.8244 75.0064 40.7299 74.7448 40.6077C74.625 40.7741 74.5019 40.9452 74.3154 41.2037C75.5715 41.3609 76.7084 41.0329 78.0313 40.872C77.515 41.2358 77.0545 41.353 76.6191 41.4382C76.3601 41.489 76.0697 41.3732 75.7798 41.4952C75.5499 41.5922 75.1526 41.5174 75.0576 41.6654C74.8155 42.0421 74.5871 41.66 74.3716 41.7379C74.0887 41.8401 73.8067 41.9595 73.5144 42.0189C73.1694 42.0895 72.8098 42.0841 72.4629 42.1466C72.1473 42.2033 71.8465 42.2547 71.516 42.2632C70.9878 42.2772 70.467 42.5714 69.9949 42.9147C70.361 42.8248 70.7268 42.7356 71.2553 42.6065C70.4082 43.3725 69.4252 43.0514 68.6466 43.4187C68.4161 43.2561 68.2059 43.0509 67.9535 42.9524C67.8264 42.9028 67.624 43.047 67.2305 43.1788C67.6383 43.2331 67.7946 43.2537 67.9532 43.2748C67.9181 43.3356 67.8952 43.4301 67.8522 43.4402C67.4006 43.5482 67.006 43.8179 66.4724 43.697C66.0789 43.6078 65.7056 43.9783 65.2042 43.9199C64.6246 43.8524 64.0117 44.139 63.4061 44.2116C62.8105 44.2828 62.2212 44.3897 61.6174 44.4242C60.734 44.475 59.8601 44.6825 58.9768 44.7386C58.0958 44.7948 57.2526 45.1711 56.3445 45.0031C55.887 44.9182 55.4708 45.1961 54.9752 45.1782C53.9275 45.1412 52.8726 45.3356 51.8191 45.4128C51.2569 45.4543 50.6928 45.3952 50.1331 45.5604C49.4631 45.7577 48.9318 45.6098 48.4749 45.1639C48.451 45.3444 48.4311 45.4988 48.4092 45.6655C48.3062 45.6214 48.2099 45.5803 48.113 45.539C48.0624 45.6279 48.0097 45.7207 48.0113 45.7176C47.5732 45.7219 47.1565 45.6291 46.8192 45.753C46.3581 45.9218 45.976 45.6991 45.3333 45.7807C44.4534 46.2929 43.2106 45.7242 42.0381 46.1112C41.946 45.9302 41.8503 45.7434 41.6645 45.3793C41.5944 45.7295 41.5527 45.9387 41.5413 45.9959C40.5317 46.1716 39.6728 46.0696 38.8155 45.8915L38.7162 45.595C38.5825 45.728 38.4951 45.8595 38.372 45.9265C38.2091 46.0151 38.0193 46.0534 37.8095 46.1236C37.6684 46.0402 37.5074 45.9457 37.3234 45.837L36.3804 46.1528C36.2736 46.0165 36.1879 45.9067 36.0809 45.77C35.9971 45.8732 35.9181 45.9709 35.7891 46.1299C35.5167 46.0114 35.2246 45.8842 34.991 45.7826C34.8869 45.5553 34.8142 45.3971 34.6836 45.1128C34.5704 45.5298 34.4969 45.7996 34.4195 46.0849C33.6948 46.0468 32.987 45.8667 32.228 45.9781C31.5586 46.0765 30.873 45.7549 30.1522 45.7875C29.7546 45.8053 29.3324 45.5204 28.903 45.7708C28.5623 45.4879 28.1582 45.5869 27.7669 45.5625C27.2777 45.5325 26.7477 45.8305 26.3149 45.5387C25.8784 45.245 25.3354 45.6781 24.9651 45.2464C24.5061 45.3447 24.0466 45.1544 23.6158 45.193C23.1193 45.2378 22.7022 45.1691 22.2603 44.9857C22.1182 44.9266 21.9114 45.0239 21.6634 45.0594Z" fill="#ABFFC3"/>
<path fill-rule="evenodd" clip-rule="evenodd" d="M119.678 20.7594C119.668 20.8689 119.589 21.0697 119.651 21.1377C120.319 21.8497 120.363 22.7604 120.475 23.6458C120.567 24.375 120.701 25.1265 120.487 25.8386C120.09 27.1574 120.064 28.6271 119.005 29.6931C119.197 30.3842 118.183 30.6098 118.381 31.3044C117.787 31.8853 117.584 32.7013 117.137 33.3703C116.856 33.7907 116.589 34.2175 116.34 34.657C116.243 34.826 116.022 34.923 115.802 35.0971C115.777 35.283 115.74 35.5586 115.694 35.9055C115.483 36.1652 115.22 36.4886 114.919 36.8604C114.97 37.0451 115.036 37.2899 115.109 37.5503C115.001 37.6365 114.892 37.7232 114.783 37.8096C114.717 38.2918 115.116 38.0341 115.293 38.1294C115.223 38.774 114.886 39.281 114.454 39.7749C114.023 39.6279 113.586 39.4794 113.107 39.3152L112.626 37.8813C112.428 37.7758 112.23 37.6718 112.024 37.5623C111.885 36.8549 111.44 36.2309 111.538 35.4376C111.585 35.0565 111.502 34.6517 111.718 34.3043C111.857 34.0826 111.657 33.7315 112.043 33.5804C112.128 33.5471 112.055 33.1232 112.065 32.8795C112.084 32.3956 112.369 31.9977 112.552 31.5789C112.99 30.5806 113.438 29.5729 114.016 28.6542C114.591 27.7429 115.039 26.7445 115.797 25.9468C116.019 25.7136 116.129 25.3762 116.301 25.0934C116.468 24.8201 116.65 24.555 116.873 24.2131C116.44 24.1763 116.004 24.1403 115.506 24.0979C115.5 24.2605 115.497 24.3915 115.492 24.5289C114.53 24.7546 113.531 24.4833 112.504 24.6225L112.344 24.1445C111.538 24.1616 110.773 24.1778 110.009 24.1941C109.69 24.196 109.568 24.7139 109.087 24.5089C109.214 24.3888 109.333 24.2744 109.453 24.1603C108.973 24.4262 108.24 23.7001 107.949 24.6434C107.008 24.078 105.901 24.8653 105.019 24.116C104.98 24.185 104.927 24.2777 104.857 24.4039C104.252 24.3803 103.618 24.2816 103.003 24.3516C102.364 24.4238 101.966 23.8606 101.193 23.9449C100.521 24.2929 99.6479 24.3608 98.7741 24.02C98.5706 23.7475 98.3833 23.4961 98.1831 23.2281C98.2066 23.1198 98.2344 22.9913 98.2617 22.8629C98.0936 22.7785 97.925 22.6948 97.7346 22.6C97.9743 22.3585 98.2092 22.1221 98.4464 21.8833C98.2677 21.7946 98.0995 21.7107 97.8881 21.6054C98.039 21.4326 98.1843 21.2664 98.3737 21.0492C98.9823 21.4294 99.5309 20.8176 100.216 20.886C101.18 20.9822 102.175 20.7188 103.159 20.6696C104.308 20.6118 105.461 20.6227 106.612 20.5961C107.838 20.5675 109.062 20.5441 110.286 20.4364C111.29 20.3475 112.31 20.5055 113.319 20.3691C113.771 20.6541 114.226 20.0919 114.678 20.3765C115.456 20.0237 116.311 20.3778 117.104 20.1184C117.262 20.0669 117.453 20.1259 117.624 20.1009C118.389 19.99 119.128 19.9505 119.678 20.7594Z" fill="#ABFFC3"/>
</g>
<defs>
<clipPath id="clip0_348_9800">
<rect width="119" height="39" fill="white" transform="translate(0 37.7946) rotate(-18.5179)"/>
</clipPath>
</defs>
</svg>
