<svg width="94" height="103" viewBox="0 0 94 103" fill="none" xmlns="http://www.w3.org/2000/svg">
<path fill-rule="evenodd" clip-rule="evenodd" d="M17.1113 20.2087C18.0353 19.2191 19.2172 18.4819 20.5091 18.2463C19.3282 18.835 18.1738 19.4487 17.1113 20.2087ZM15.3014 28.7411C15.138 27.9869 15.0282 27.2255 14.9937 26.4643C15.2002 26.7776 15.53 26.9869 15.9004 27.095C15.6611 27.6297 15.4576 28.1806 15.3014 28.7411ZM77.1322 40.5647C76.0657 36.134 71.0896 27.6118 69.9135 25.9715C68.6363 21.91 75.6019 18.6528 71.8136 15.4768C70.0985 14.0438 67.8318 13.5366 65.7054 13.0284C50.9827 9.49984 35.1645 11.2794 21.5098 17.7681C19.4328 17.332 17.2688 18.1844 15.7584 19.6816C8.66252 26.7993 18.3329 39.6416 20.4475 47.6657C24.0755 56.613 16.6021 58.118 17.4035 65.6882C18.0262 69.5991 21.9955 70.6328 25.345 71.2238C25.8819 71.3492 26.5996 71.368 26.7727 71.9344C27.3155 75.2402 29.176 78.3906 31.6738 80.5286C31.4554 81.1745 31.6222 81.9585 32.3924 82.5257C39.3713 87.7014 48.1709 90.2916 56.8751 89.826C67.2482 89.2711 72.6126 83.3376 73.907 81.8098C81.0642 72.1638 80.209 59.4367 78.749 47.941C77.732 39.9329 79.0216 48.4136 77.1322 40.5647Z" fill="white"/>
<path fill-rule="evenodd" clip-rule="evenodd" d="M45.1473 3.6967C45.4734 2.67959 46.3963 2.0679 47.4529 2.19415C48.3884 2.30439 49.3897 3.23082 49.2757 4.25327C49.2543 4.45064 49.2258 4.63557 49.1919 4.80984L49.1964 4.81139L49.2008 4.81161L49.1777 4.87918C49.1082 5.20459 49.012 5.49621 48.8694 5.77182C48.6877 6.29994 48.5131 6.82983 48.3402 7.36151C48.5897 7.35084 48.8445 7.36506 49.1028 7.41307C49.3701 6.73026 49.6392 6.04922 49.9064 5.36462C50.1933 4.6338 50.3946 3.69492 50.9612 3.12947C51.6864 2.40753 52.9443 2.25816 53.8281 2.77383C54.7617 3.31795 55.0949 4.28528 54.8918 5.32195C54.7886 5.85074 54.4345 6.21874 53.9965 6.44995L53.9492 6.4742L53.6125 7.27082C53.7158 7.22637 53.8227 7.18547 53.9386 7.15168C54.1203 7.09834 54.2985 7.06455 54.4731 7.05033C54.9542 6.1808 55.4833 5.33617 56.0303 4.50755C56.6593 3.55445 57.8887 3.14903 58.9204 3.75182C59.8433 4.29061 60.3387 5.70603 59.6776 6.63601C59.1752 7.34195 58.6994 8.06211 58.2308 8.78938C58.311 8.8036 58.3912 8.82138 58.4678 8.8445C58.5034 8.79649 58.5409 8.74848 58.5801 8.70047C59.0914 8.06744 59.6865 7.59267 60.2977 7.06633C60.8696 6.572 61.1333 5.79494 61.8852 5.41975C62.8313 4.94853 63.9717 5.17436 64.5347 6.11323C65.7428 8.12434 63.7151 9.59311 62.418 10.8112C63.5458 10.1088 64.72 9.46686 65.9245 8.91207C66.6016 8.60089 67.2893 8.30038 67.9878 8.04077C69.023 7.65668 69.8604 7.77956 70.7103 8.4942C71.0898 8.81427 71.2787 9.51327 71.1041 9.97897C70.7655 10.8716 70.231 11.414 69.2938 11.6718C68.6346 11.8532 67.9593 11.9759 67.3 12.1661C66.1953 12.4826 65.1227 12.8685 64.0821 13.3504C64.157 13.3966 64.2282 13.4464 64.2942 13.5033C65.071 13.2526 65.8621 13.0356 66.6568 12.8507C67.9747 12.5423 69.3162 12.3339 70.6635 12.2036L71.1111 12.162C72.7263 12.0073 74.6687 11.7218 75.6601 13.265C75.9861 13.7736 76.0218 14.6129 75.6601 15.1161C74.9687 16.0834 74.281 16.2755 73.1371 16.2933C74.2632 16.4124 75.3874 16.56 76.5064 16.7325C77.2776 16.8498 78.0489 16.9829 78.8168 17.1304L79.2004 17.2055C80.1358 17.3922 81.18 17.5006 81.9835 18.0412C83.7368 19.2219 82.9136 21.5211 80.9715 21.7665C80.0325 21.8838 78.9902 21.4873 78.069 21.3024C77.1746 21.1228 76.2766 20.9645 75.375 20.8258C74.9081 20.7529 74.4413 20.6889 73.9727 20.6302C74.926 20.7671 75.8721 20.9609 76.7933 21.2348L77.0491 21.3118C78.83 21.8535 81.2338 22.7162 81.7893 24.6151C82.1261 25.7691 81.2049 26.7756 80.0895 26.8431C79.0525 26.9054 78.1884 26.2883 77.3082 25.8331C76.6668 25.5024 76.0146 25.2552 75.3233 25.0436C74.6088 24.8249 73.8801 24.6435 73.146 24.4959C73.7664 24.837 74.3705 25.2119 74.9505 25.6313L75.2171 25.8278C76.7586 26.9741 79.1092 28.7487 78.5661 30.8974C78.3951 31.5748 77.6378 32.2221 76.9109 32.1527C75.0186 31.9767 73.9745 29.9656 72.5473 28.888C72.1749 28.6071 71.7669 28.3297 71.3393 28.0594C73.5023 30.6342 75.2235 33.6108 76.5331 36.6853C79.4113 43.4491 80.2943 49.7129 80.3154 56.9855L80.3158 57.2107C80.3194 61.2223 80.2285 65.3067 79.8365 69.3005C79.473 72.9902 78.8067 76.6319 77.13 79.9732C74.3202 85.576 68.8448 89.9397 62.8064 91.6005C56.0874 93.4498 48.5772 92.0041 43.0733 87.7365C41.6693 86.6483 43.5313 84.2853 44.9656 85.2898C50.694 89.2995 58.1025 90.5692 64.6773 87.8557C69.8925 85.7041 74.0921 81.0755 75.8721 75.7463C77.0051 72.356 77.3349 68.7411 77.739 65.2078L77.7661 64.9724C78.1937 61.2774 78.4414 57.5574 78.4378 53.8375C78.4325 46.9293 77.4383 41.2427 74.3932 34.9765C72.9607 32.0247 71.1023 29.2954 68.8822 26.9C68.2087 27.0369 67.4924 26.8449 66.8118 26.772C66.4644 26.7347 66.1169 26.6991 65.7695 26.6671C66.1244 26.8961 66.4725 27.1343 66.8146 27.3779L67.2634 27.7009C68.6677 28.7046 70.4494 29.8478 70.0885 31.7882C69.9905 32.3128 69.4666 32.7947 68.9588 32.9138C67.1183 33.3512 65.8532 31.5659 64.6096 30.5062C63.528 29.5851 62.3966 28.76 61.2438 27.9331C60.9819 27.7464 60.7182 27.5597 60.4527 27.3748C60.7021 27.665 60.9447 27.9597 61.1814 28.2572L61.5313 28.6998C62.5901 30.022 64.1165 31.7405 63.1734 33.4544C62.9062 33.938 62.336 34.2599 61.7837 34.2492C59.8843 34.2101 59.1288 32.0585 58.238 30.7C57.4718 29.5353 56.6397 28.4381 55.7791 27.341C55.5421 27.0405 55.3034 26.74 55.0611 26.4395C51.0717 26.6458 47.0966 27.1721 43.1909 28.0132C40.5076 28.5911 37.8688 29.3399 35.2496 30.1594L35.0319 30.2285C33.6145 30.684 32.154 31.2669 31.132 32.2665C30.9861 32.9553 31.0981 33.6816 31.2376 34.3694L31.3464 34.8959C31.7945 37.0974 32.0999 39.2581 31.8714 41.5184C31.6344 43.8495 30.9306 45.946 30.0718 48.1118C29.6656 49.1325 29.2451 48.9476 29.1007 50.0429C28.9902 50.8772 29.0586 51.7385 29.1341 52.5798L29.1972 53.2931C29.3556 55.1614 29.4351 57.1983 28.2081 58.7399C28.0174 58.9764 27.6094 58.8822 27.474 58.6457C27.4205 58.5514 27.3635 58.4608 27.3012 58.3736C26.7096 57.5183 25.8027 57.0311 24.7657 56.8426C24.6339 56.8195 24.6855 56.6435 24.796 56.6292C25.6726 56.5261 26.5029 56.7448 27.2085 57.1965C26.8739 56.0418 24.2835 56.6033 23.432 56.8277L23.4027 56.8355C22.3407 57.12 21.3358 57.5823 20.4503 58.2367C18.6685 59.5525 17.6386 61.6046 17.6903 63.8148C17.742 65.9877 18.8663 67.9953 20.7977 69.0355C21.7296 69.537 22.7897 69.7788 23.8445 69.7681C24.9457 69.7575 25.9256 69.2756 27.0286 69.3432C27.6664 69.3823 28.1546 70.0651 27.7858 70.6608C27.5399 71.0591 27.2192 71.372 26.8486 71.6121C27.7519 73.6908 28.9048 75.6734 30.2339 77.5032C30.9698 78.5185 31.8037 79.4556 32.7213 80.3109C33.4376 80.9795 34.9895 81.753 34.9022 82.8679C34.8719 83.2698 34.6634 83.5152 34.2964 83.6645C33.1552 84.1301 31.7676 82.527 31.0044 81.7541L30.9431 81.6925C29.9916 80.7465 29.1239 79.701 28.3684 78.5914C27.0286 76.6212 26.1965 74.4003 25.8526 72.0673C24.0227 72.6168 21.5995 72.1011 20.1064 71.4272C15.4132 69.3111 13.8791 63.004 16.7317 58.8039C17.2841 57.9913 17.9754 57.2961 18.7629 56.7342C18.5901 56.6399 18.428 56.519 18.2836 56.3661C17.4853 55.5197 16.9208 54.4153 16.3606 53.3973L16.2934 53.2756C15.7961 52.3794 15.327 51.4692 14.8872 50.5449L14.7237 50.1976C13.7419 48.0905 12.8813 47.1694 12.1811 44.9538C11.5076 42.8164 10.9766 40.6382 10.6327 38.4226L10.5414 37.8361C10.3425 36.5505 10.1544 35.1758 10.2996 33.8705C9.29999 34.1959 8.29507 34.3968 7.30619 33.9078C6.65407 33.5859 6.29415 32.6471 6.51687 31.9731C6.67901 31.477 6.94984 31.0876 7.29372 30.7818C7.08882 30.6786 6.89639 30.5471 6.72712 30.4012L6.57923 30.2734C5.98056 29.754 5.9378 28.7671 6.30128 28.1163C6.33691 28.0541 6.37255 27.99 6.4064 27.9278C6.75206 27.3108 7.46655 26.9071 8.17213 26.9178C8.28616 26.9196 8.4002 26.9196 8.51601 26.9178C8.18638 26.8449 7.86388 26.7329 7.55742 26.5444C6.17477 25.6962 6.34938 23.397 8.02246 22.9916C8.72448 22.8227 9.49955 22.892 10.2728 23.0734C10.2443 23.0574 10.2158 23.0414 10.1873 23.0236C9.60289 22.6662 9.1129 21.9674 9.16814 21.2508C9.22872 20.4577 9.48529 19.8923 10.1873 19.4762C10.7967 19.117 11.659 19.0832 12.2648 19.4762C12.7905 19.8194 13.3054 20.1981 13.8007 20.6053C13.3036 19.9954 12.8724 19.3321 12.6978 18.628C12.4822 17.7513 12.8421 16.7965 13.6332 16.3341C14.264 15.9661 14.9304 16.007 15.5255 16.2915C15.4934 15.8309 15.6057 15.3615 15.9121 14.9454C16.5393 14.0921 17.6796 13.6011 18.6721 14.2235C18.8021 14.3053 18.9768 14.4457 19.146 14.6182C18.8164 13.5709 19.114 12.472 20.2382 11.999C20.9242 11.7091 21.8525 11.8549 22.4476 12.3546C22.0699 10.315 25.0864 8.81605 26.2588 10.9232C26.5249 11.4005 26.7882 11.9031 27.0236 12.4173L27.1105 12.6107L27.1194 12.6071L27.0595 12.4657L26.9983 12.3244C26.6722 11.5687 26.257 10.7827 26.143 9.96297C25.9755 8.75026 26.5172 7.59978 27.8393 7.42197C28.5217 7.3295 29.2807 7.6389 29.7386 8.17964C29.491 6.29816 31.597 4.93075 33.1133 6.3355C33.8313 7.00054 34.2144 7.9732 34.6705 8.82672C34.9289 9.3086 35.1926 9.78871 35.451 10.2724C35.5169 10.1941 35.5882 10.1159 35.663 10.0394C35.2799 8.89429 34.9824 7.7207 34.7311 6.53999C34.4924 5.42686 35.0501 4.27105 36.2011 3.95649C37.247 3.66825 38.5566 4.31213 38.79 5.42348C38.9539 6.2057 39.1481 6.97938 39.3619 7.74915C39.508 7.71359 39.6524 7.68869 39.7949 7.67091C39.8068 7.52628 39.8202 7.38087 39.8353 7.23625L39.8914 6.72187C40.016 5.5466 40.1416 4.20498 40.7571 3.20593C41.8065 1.49888 44.497 2.2066 44.5255 4.22482C44.5415 5.2686 44.1157 6.3035 43.9678 7.33661C43.9037 7.78649 43.8662 8.2417 43.8449 8.69691C44.1317 7.18547 44.5255 5.69359 44.9816 4.22482C45.0351 4.04878 45.0921 3.87274 45.1473 3.6967ZM21.9345 61.9816C24.2953 61.6171 26.453 62.9311 27.8517 64.7715C28.1065 65.1076 27.939 65.5824 27.7092 65.8651C27.5435 66.0731 27.3207 66.098 27.0695 66.13C26.7809 66.1674 26.4156 65.9344 26.2891 65.6837C25.3893 63.8913 23.7839 62.7586 21.9345 62.0616C21.9006 62.0492 21.8899 61.9887 21.9345 61.9816ZM25.2072 29.8671L25.2787 29.7904C25.7564 29.2959 25.0014 28.5406 24.5227 29.0361C24.0186 29.5579 23.6836 30.1916 23.3615 30.8339C23.0545 31.4463 23.9764 31.9872 24.2846 31.3725L24.425 31.0931C24.6453 30.6586 24.8802 30.2294 25.2072 29.8671ZM18.5771 28.8521C19.2542 28.7383 18.9671 27.71 18.2929 27.8234C17.4195 27.9703 16.5495 28.1373 15.6759 28.2843C14.999 28.3981 15.286 29.4265 15.9602 29.3132C16.8336 29.1661 17.7037 28.9992 18.5771 28.8521ZM58.9106 21.8317C58.2565 21.6139 57.9759 22.644 58.6264 22.8606C59.5253 23.1598 60.4169 23.4666 61.2696 23.8821C61.8856 24.1823 62.4281 23.2624 61.8092 22.9609C60.8732 22.5048 59.8973 22.1603 58.9106 21.8317ZM18.4232 20.449C17.7844 20.194 17.507 21.2255 18.139 21.4779L20.4481 22.3995C21.0869 22.6545 21.3643 21.6231 20.7323 21.3708L18.4232 20.449ZM66.9738 17.944L66.8895 17.8909C66.3104 17.5165 65.7739 18.4397 66.3498 18.8122C66.6879 19.0308 67.0989 19.179 67.4085 19.4394L67.4732 19.497C67.9732 19.9682 68.7306 19.2153 68.2292 18.7425C67.8624 18.3969 67.398 18.2045 66.9738 17.944Z" fill="black"/>
<path fill-rule="evenodd" clip-rule="evenodd" d="M59.4464 77.9151C58.2487 77.4275 57.18 76.614 56.3986 75.575C56.127 75.2137 56.0566 74.8323 56.1136 74.4834C56.1776 74.0911 56.4102 73.7356 56.7273 73.4971C57.0455 73.2578 57.4434 73.1399 57.8282 73.2C58.1625 73.2523 58.4953 73.4349 58.7587 73.8138L58.8137 73.8896C59.2782 74.5167 59.8835 75.0313 60.5732 75.363C61.2379 75.6826 61.9814 75.8318 62.7508 75.7451C64.216 75.5799 65.226 74.789 66.2995 73.7151C66.4325 73.5795 66.5657 73.4397 66.6995 73.2976C66.784 73.1688 66.9012 73.086 67.0314 73.0425C67.1759 72.9943 67.3395 72.997 67.4892 73.0492C67.6337 73.0995 67.7628 73.1948 67.8494 73.3217C67.9317 73.4423 67.9783 73.5913 67.9632 73.7626C67.8649 74.8756 67.2819 75.8689 66.4537 76.6488C65.5339 77.5151 64.3145 78.1143 63.1666 78.3245C61.902 78.556 60.6133 78.3902 59.4464 77.9151ZM63.7632 60.7452C65.1087 61.5614 67.1588 63.4646 65.7114 65.488C64.0076 67.2721 61.5546 65.2265 60.3458 64.3014C59.2249 63.5844 57.9656 65.4284 59.0055 66.2656C67.7404 72.7195 71.2852 60.9586 64.4438 59.7856C63.6905 59.6563 63.4107 60.4927 63.7632 60.7452ZM48.1102 53.2376C48.2589 51.3961 51.0692 50.9779 51.3488 52.8002C51.5991 54.4326 51.3044 55.9321 50.5676 57.4017C49.8637 58.8058 48.0943 58.1507 47.9605 56.8722C47.7811 55.1585 48.0178 54.3832 48.1102 53.2376ZM69.5028 52.4224C69.8946 51.9102 70.4603 51.5607 71.1381 51.7582C73.2557 52.3758 72.6316 55.3761 71.8878 56.8365C71.4837 57.6295 70.1775 57.8307 69.5872 57.1324C68.6251 55.9936 68.1643 53.7195 69.3875 52.5979C69.4206 52.5399 69.4575 52.4814 69.5028 52.4224ZM50.5378 45.1797L50.8723 45.1213C51.9071 44.9427 53.1938 44.771 53.9258 45.6013C54.3141 46.0416 54.4477 46.8599 53.9258 47.2813C53.0079 48.0228 51.993 47.7355 50.8929 47.7982C49.9864 47.8502 49.1151 47.9999 48.2418 48.249C46.3261 48.7954 44.7651 49.793 43.1289 50.8883C42.9142 51.032 42.695 50.758 42.7975 50.5576C43.742 48.7113 45.5724 47.1947 47.4058 46.2702C48.3844 45.7768 49.4552 45.3675 50.5378 45.1797ZM67.5724 44.3527L67.8284 44.4049C70.6146 44.9862 74.2345 46.1472 75.5539 48.8784C75.6042 49.2645 75.5511 49.3473 75.5079 49.4014L75.4935 49.4194C75.4579 49.4656 75.4295 49.5292 75.2618 49.5818C75.2152 49.5707 75.1682 49.559 75.1207 49.5466C74.5159 49.3884 74.0374 49.1705 73.5742 48.9444L73.0719 48.6974C72.4892 48.4123 71.9013 48.1375 71.2782 47.9347C69.9487 47.5019 68.5811 47.197 67.1923 47.0342C66.8913 46.9989 66.6015 46.8976 66.3728 46.7238C66.1557 46.5589 65.9899 46.3305 65.9143 46.027C65.8163 45.6342 65.8445 45.3368 66.0557 44.9824C66.2145 44.7163 66.4417 44.5318 66.7026 44.4259C66.9686 44.3179 67.2714 44.2925 67.5724 44.3527Z" fill="black"/>
<path fill-rule="evenodd" clip-rule="evenodd" d="M78.7814 58.0893C78.2775 59.4578 77.5106 60.8825 76.5729 62.0342C72.7788 65.2406 69.0921 63.4653 67.2202 59.1196C66.5089 56.0485 68.3974 52.7404 70.3985 50.4812C73.2885 47.5905 78.0051 49.1076 79.3339 52.5441C79.4146 52.9894 79.4634 53.4335 79.4868 53.8763C79.4592 55.315 79.2854 56.5446 78.7814 57.9115M42.3122 55.3294C47.3104 49.3962 56.6611 49.079 56.4225 58.2108C55.3488 69.7696 37.2691 66.9325 42.3122 55.3294ZM80.3534 50.3799C80.1783 50.0838 79.9839 49.7974 79.7717 49.5233C79.6933 49.4768 79.6482 49.0635 79.3599 49.0329C75.5065 44.7904 68.737 47.1975 66.291 51.4249C65.8443 51.9594 65.48 52.5852 65.2113 53.2463C62.8013 52.8051 59.9916 52.8908 57.7501 53.7993C55.5275 48.0075 48.7987 47.4904 44.3644 49.965C41.6064 51.3188 39.8181 54.1537 37.1358 55.711C30.8303 56.1639 24.063 54.754 17.8714 56.3325C12.9882 57.3457 17.0703 59.8133 17.8892 58.1665C23.7268 56.4452 30.6427 57.8998 36.7037 57.512C37.3339 58.5758 38.5425 59.4464 39.747 59.4093C41.0479 70.9177 57.8649 69.0094 58.445 58.7791C59.103 57.7408 59.9214 56.7472 61.0927 56.1003C61.5412 56.0076 61.9743 55.8872 62.3702 55.7009C63.047 55.6056 64.0896 55.8919 64.7122 56.4541C66.8448 69.2242 79.131 67.737 81.3266 56.5498C81.3703 56.5053 81.4923 56.3385 81.5861 56.0709C82.3376 55.0792 84.1775 54.7106 83.8835 53.0365C83.6217 51.362 81.5028 51.3819 80.3534 50.3799Z" fill="black"/>
</svg>
