<svg width="162" height="180" viewBox="0 0 162 180" fill="none" xmlns="http://www.w3.org/2000/svg">
<path fill-rule="evenodd" clip-rule="evenodd" d="M37.7778 173.802C42.5362 173.817 47.1598 173.979 51.9316 173.995C71.3286 174.06 90.9042 173.966 110.372 173.18C115.874 172.958 117.247 172.964 122.726 172.619C125.961 172.607 135.677 172.34 135.191 167.938C134.976 159.739 132.944 151.575 132.304 143.398C131.076 128.027 130.03 112.175 123.863 97.7979C122.436 94.3644 119.37 92.1191 116.335 90.1001C113.292 87.922 112.545 85.5037 109.736 83.0432C109.142 82.5228 105.769 82.3111 103.955 80.9914C101.313 79.0705 100.003 75.9257 99.018 75.3903C98.2929 74.9964 98.3062 72.2788 96.8528 71.3169C94.9024 70.0261 88.6872 69.0664 86.4261 68.8868C84.2557 68.7145 80.4808 69.0765 78.4445 69.8705C75.0488 71.1947 73.6944 73.7205 72.1989 76.9747C52.4413 83.0758 34.3825 93.407 28.7741 114.246C23.9376 131.723 23.7603 150.46 25.6287 168.385C26.0025 169.695 25.7406 171.75 26.8743 172.619C22.9344 172.845 37.2433 173.657 37.7778 173.802Z" fill="black"/>
<path fill-rule="evenodd" clip-rule="evenodd" d="M127.639 156.544C127.265 156.358 126.876 156.145 126.449 156.13C125.715 156.104 125.714 154.964 126.449 154.99C127.089 155.012 127.652 155.279 128.215 155.56C128.873 155.888 128.294 156.871 127.639 156.544ZM126.449 124.46C126.95 124.46 127.454 124.523 127.838 124.873C128.067 125.081 128.049 125.469 127.838 125.679C127.613 125.904 127.259 125.886 127.032 125.679C127.106 125.746 127.032 125.68 127.005 125.665C126.999 125.661 126.995 125.659 126.994 125.657C126.988 125.656 126.982 125.655 126.973 125.652C126.913 125.637 126.854 125.623 126.794 125.612C126.793 125.615 126.667 125.603 126.637 125.602C126.574 125.6 126.512 125.6 126.449 125.6C126.14 125.599 125.879 125.339 125.879 125.03C125.879 124.722 126.141 124.46 126.449 124.46ZM121.085 137.246C120.922 137.962 119.822 137.657 119.985 136.943C120.222 135.904 120.179 134.84 119.985 133.798C119.852 133.08 120.951 132.775 121.085 133.496C121.318 134.745 121.37 136 121.085 137.246ZM119.645 96.2803C118.796 96.0786 117.955 96.0547 117.086 96.0544C116.351 96.0541 116.352 94.9143 117.086 94.9146C118.055 94.9148 119.002 94.9564 119.949 95.1811C120.664 95.3508 120.359 96.4495 119.645 96.2803ZM116.799 124.045C116.307 123.799 115.814 123.552 115.321 123.306C114.663 122.978 115.242 121.995 115.897 122.322L117.375 123.061C118.033 123.389 117.454 124.372 116.799 124.045ZM116.595 146.492C115.97 147.392 115.091 147.951 114.036 148.231C113.324 148.419 113.023 147.319 113.733 147.132C114.487 146.932 115.157 146.568 115.61 145.916C116.025 145.317 117.014 145.888 116.595 146.492ZM112.65 106.359C112.481 106.043 112.226 105.91 111.91 105.903C111.176 105.886 111.176 104.746 111.91 104.763C112.63 104.779 113.291 105.141 113.635 105.784C113.981 106.431 112.996 107.007 112.65 106.359ZM105.415 114.107C105.211 114.33 104.814 114.324 104.609 114.107C104.483 113.974 104.377 113.826 104.294 113.663C104.262 113.602 104.232 113.539 104.197 113.479C104.182 113.452 104.164 113.426 104.147 113.4C104.141 113.395 104.128 113.382 104.116 113.368C103.896 113.137 103.902 112.795 104.116 112.562C104.32 112.34 104.717 112.345 104.922 112.562C105.048 112.695 105.154 112.844 105.237 113.006C105.269 113.068 105.299 113.131 105.334 113.191C105.349 113.217 105.366 113.244 105.384 113.269C105.39 113.275 105.402 113.288 105.415 113.301C105.635 113.533 105.629 113.874 105.415 114.107ZM104.805 130.939C104.062 131.278 103.247 131.278 102.504 130.939C102.223 130.81 102.156 130.404 102.3 130.159C102.466 129.875 102.8 129.826 103.08 129.954C103.417 130.108 103.893 130.108 104.23 129.954C104.511 129.826 104.842 129.871 105.01 130.159C105.154 130.406 105.085 130.81 104.805 130.939ZM102.781 142.852C102.653 143.154 102.378 143.315 102.055 143.327C101.736 143.339 101.498 143.056 101.485 142.757C101.476 142.564 101.581 142.399 101.731 142.296C101.731 142.286 101.731 142.275 101.731 142.265C101.732 141.945 101.993 141.708 102.302 141.695C102.61 141.681 102.872 141.966 102.872 142.265C102.872 142.466 102.86 142.665 102.781 142.852ZM99.8356 161.793C98.9253 161.807 98.0357 162.024 97.1251 162.039C96.3894 162.051 96.3917 160.911 97.1251 160.899C98.0355 160.884 98.9251 160.668 99.8356 160.653C100.571 160.641 100.569 161.781 99.8356 161.793ZM96.051 88.7474C95.5181 89.2546 94.8599 89.5045 94.2107 89.8214C93.553 90.1424 92.9753 89.1591 93.6349 88.8371C94.1848 88.5687 94.7936 88.3704 95.2445 87.9415C95.7764 87.4352 96.584 88.2404 96.051 88.7474ZM94.6198 101.886C94.2459 101.699 93.8562 101.486 93.4293 101.471C92.6959 101.445 92.6949 100.306 93.4293 100.331C94.0696 100.353 94.6321 100.62 95.1957 100.901C95.8535 101.229 95.2749 102.212 94.6198 101.886ZM87.7629 154.616C87.594 154.301 87.3395 154.167 87.0235 154.16C86.2892 154.143 86.2889 153.004 87.0235 153.02C87.7436 153.037 88.404 153.398 88.7481 154.041C89.0944 154.689 88.1093 155.264 87.7629 154.616ZM85.387 129.865C85.16 129.656 85.1758 129.27 85.387 129.059C85.6335 128.813 85.8799 128.566 86.1265 128.32C86.3518 128.095 86.7053 128.111 86.933 128.32C87.1601 128.528 87.1442 128.915 86.933 129.126C86.6865 129.372 86.4402 129.618 86.1938 129.865C85.9682 130.09 85.6148 130.073 85.387 129.865ZM82.5879 168.441C81.7649 168.421 80.9934 168.185 80.2185 167.928C79.5242 167.697 79.8236 166.596 80.5218 166.829C81.1954 167.052 81.8719 167.284 82.5879 167.301C83.3222 167.318 83.3225 168.457 82.5879 168.441ZM78.8895 144.065C78.146 144.045 77.5292 143.667 77.0077 143.16C76.4802 142.647 77.2878 141.842 77.8144 142.354C78.1129 142.644 78.4573 142.914 78.8895 142.926C79.6235 142.946 79.6241 144.086 78.8895 144.065ZM81.188 112.719C81.197 113.023 81.3253 113.348 81.5139 113.547C82.018 114.081 81.2123 114.888 80.7071 114.353C80.2905 113.913 80.0647 113.322 80.0472 112.719C80.0261 111.984 81.167 111.987 81.188 112.719ZM72.4861 87.8934C72.2474 87.4264 71.9345 86.8787 71.4587 86.6206C70.8124 86.2703 71.3889 85.2864 72.0345 85.6364C72.6814 85.9872 73.1443 86.6785 73.4712 87.3181C73.8049 87.9708 72.8201 88.5469 72.4861 87.8934ZM71.0056 99.7477C70.741 99.7401 70.4783 99.6948 70.223 99.6257C70.1139 99.5961 70.0061 99.562 69.8969 99.5324C69.8501 99.5197 69.6515 99.4949 69.7735 99.5014C69.4646 99.4849 69.2031 99.2538 69.2031 98.9315C69.2031 98.6353 69.4655 98.3451 69.7735 98.3616C70.1969 98.3842 70.582 98.5958 71.0056 98.6078C71.7394 98.6285 71.7399 99.7683 71.0056 99.7477ZM67.3104 117.967H66.0783C65.343 117.967 65.3443 116.827 66.0783 116.827H67.3104C68.0457 116.827 68.0444 117.967 67.3104 117.967ZM65.8721 168.363C65.4985 168.549 65.0581 168.726 64.7555 169.012C64.2219 169.516 63.4142 168.711 63.9488 168.206C64.3343 167.842 64.8271 167.613 65.2964 167.378C65.5729 167.24 65.9129 167.303 66.0769 167.583C66.2251 167.836 66.1476 168.225 65.8721 168.363ZM63.1174 153.96C63.0697 153.947 63.0192 153.938 62.9708 153.931C62.7769 153.905 62.574 153.914 62.3792 153.914C61.6439 153.914 61.645 152.774 62.3792 152.774C62.9577 152.774 63.5598 152.783 64.0147 153.187C64.2456 153.393 64.2232 153.785 64.0147 153.993C63.788 154.22 63.4379 154.198 63.208 153.993C63.2322 154.015 63.1491 153.969 63.1174 153.96ZM62.3811 134.591C62.5469 134.249 62.5494 134.027 62.5497 133.647C62.5503 132.913 63.6911 132.914 63.6905 133.647C63.6903 134.198 63.6083 134.667 63.3663 135.166C63.2312 135.444 62.8359 135.517 62.5859 135.37C62.3056 135.207 62.247 134.867 62.3811 134.591ZM59.082 107.852C58.4203 108.077 57.8296 108.395 57.2469 108.78C56.6319 109.185 56.061 108.198 56.6711 107.795C57.336 107.357 58.0238 107.01 58.7786 106.753C59.4766 106.516 59.7733 107.617 59.082 107.852ZM55.2341 88.6682C54.7426 88.6819 54.2352 88.8703 53.7971 89.0828C53.1387 89.4023 52.561 88.419 53.2214 88.0986C53.8472 87.7948 54.5318 87.548 55.2341 87.5284C55.9699 87.5077 55.9667 88.6477 55.2341 88.6682ZM53.5091 139.88C53.3157 139.889 53.1504 139.784 53.048 139.634C53.0373 139.634 53.0268 139.634 53.0162 139.634C52.6965 139.634 52.4598 139.373 52.4458 139.064C52.432 138.756 52.7179 138.494 53.0162 138.494C53.2176 138.494 53.4174 138.506 53.6045 138.585C53.9066 138.713 54.0672 138.988 54.0795 139.31C54.0916 139.629 53.8084 139.867 53.5091 139.88ZM50.7024 100.466C50.0018 100.695 49.7043 99.5936 50.3991 99.3668C51.2146 99.1005 52.048 98.8943 52.8635 98.628C53.5641 98.3993 53.8615 99.5004 53.1666 99.7273C52.3514 99.9934 51.5178 100.2 50.7024 100.466ZM48.1442 121.981C47.9269 122.68 46.8261 122.38 47.044 121.677C47.2545 121 47.2696 120.317 47.2701 119.613C47.2705 118.878 48.4113 118.88 48.4109 119.613C48.4105 120.415 48.3835 121.209 48.1442 121.981ZM40.5192 147.75C40.4777 148.033 40.2524 148.238 39.9574 148.251C39.6573 148.264 39.3762 147.979 39.387 147.681C39.408 147.107 39.8762 146.64 40.4503 146.619C40.7697 146.607 41.0073 146.889 41.0207 147.189C41.0338 147.48 40.7905 147.707 40.5192 147.75ZM36.6591 114.992C36.0563 115.193 35.4121 115.385 34.9395 115.831C34.4055 116.334 33.5977 115.529 34.1328 115.024C34.756 114.437 35.5576 114.159 36.3559 113.893C37.0549 113.66 37.352 114.761 36.6591 114.992ZM34.0415 137.136C33.8758 137.419 33.5403 137.47 33.2612 137.34C32.887 137.166 32.4739 137.172 32.0705 137.172C31.3353 137.171 31.3365 136.031 32.0705 136.032C32.6928 136.032 33.2669 136.091 33.8371 136.356C34.1176 136.486 34.1859 136.889 34.0415 137.136ZM32.5631 164.009C32.2437 164.02 32.0061 163.738 31.9927 163.439C31.9796 163.148 32.2227 162.92 32.4944 162.878C32.5357 162.594 32.7612 162.39 33.056 162.376C33.3563 162.363 33.6374 162.648 33.6264 162.946C33.6054 163.52 33.1375 163.988 32.5631 164.009ZM136.498 168.318C136.305 167.622 135.861 167.059 135.526 166.432C135.414 166.221 135.375 166.089 135.314 165.935C135.231 166.1 135.07 166.224 134.829 166.225C134.366 166.225 133.824 166.195 133.392 166.393C133.111 166.522 132.78 166.476 132.611 166.188C132.467 165.942 132.536 165.537 132.816 165.409C133.453 165.117 134.138 165.085 134.829 165.085C135 165.085 135.129 165.147 135.22 165.242C135.484 161.628 135.478 158.012 135.228 154.396C134.961 150.532 134.348 146.745 133.706 142.931C133.395 141.081 132.992 139.213 133.07 137.33C133.149 135.459 133.952 133.715 133.383 131.838C133.154 131.086 132.764 130.397 132.51 129.653C132.238 128.852 132.262 128.061 132.386 127.232C132.641 125.544 133.064 123.875 132.387 122.227C132.088 121.496 131.603 120.843 131.369 120.088C131.078 119.149 131.118 118.11 131.07 117.137C130.971 115.174 130.946 113.197 130.783 111.238C130.71 110.361 130.552 109.528 130.191 108.723C129.844 107.948 129.33 107.243 129.1 106.421C128.872 105.612 128.852 104.758 128.729 103.93C128.601 103.055 128.4 102.193 128.129 101.353C127.082 98.0984 125.164 95.1747 122.898 92.6399C120.49 89.9455 117.61 87.9166 114.554 86.0258C112.947 85.0316 111.341 84.0373 109.735 83.0431C109.7 83.2296 109.581 83.401 109.353 83.4773C108.75 83.6785 108.106 83.8697 107.633 84.3156C107.099 84.8191 106.291 84.0142 106.826 83.5097C107.384 82.9831 108.086 82.7059 108.8 82.4624C108.068 82.0016 107.329 81.5245 106.503 81.2583C105.78 81.0246 104.713 81.2284 104.127 80.6983C103.666 80.2809 103.521 79.5072 103.344 78.9401C103.123 78.2362 102.932 77.4939 102.651 76.81C102.46 76.3426 102.182 75.8938 101.831 75.5319C101.677 74.9392 101.395 74.3977 100.896 74.0686C99.5894 73.2051 97.9851 74.0629 97.4104 75.294C96.9355 75.2925 96.4349 75.3965 95.9729 75.425C95.0231 75.4849 94.072 75.512 93.1208 75.5091C91.2598 75.5034 89.3974 75.3823 87.552 75.1358C84.2521 74.6941 81.0506 73.8036 77.8064 73.1097C77.7878 73.0669 77.7664 73.0242 77.7408 72.9814C77.042 71.8102 75.3008 72.0083 74.204 72.4514C73.7336 72.6409 73.2544 72.8803 72.9849 73.3248C72.6997 73.5172 72.4529 73.7509 72.289 73.9974C71.9496 74.506 71.6872 75.5319 70.9984 75.6174C70.5449 75.673 70.0843 75.586 69.6237 75.6516C69.0475 75.7314 68.5313 75.9337 67.9994 76.1645C63.9494 77.9213 59.7625 79.8748 55.3672 80.5559C54.3363 80.7154 53.2868 80.8807 52.3912 81.4578C51.6639 81.9266 51.1019 82.5706 50.5017 83.1818C49.917 83.7774 49.435 84.041 48.6007 84.1479C47.5882 84.2775 46.7112 84.5568 45.9711 85.292C45.3565 85.9033 44.9557 86.6841 44.4737 87.3936C43.983 88.1175 43.263 88.525 42.5157 88.9453C40.7489 89.9398 39.1032 91.141 37.67 92.5815C34.651 95.6192 32.8228 99.5232 30.9804 103.328C28.9882 107.442 27.1257 111.607 25.8337 116.001C24.5674 120.316 23.8144 124.754 23.4665 129.234C23.1 133.934 23.0487 138.653 22.7435 143.357C22.5909 145.706 22.4754 148.059 22.3584 150.41C22.2444 152.732 22.0775 155.059 22.1045 157.384C22.1559 161.88 23.0556 166.389 24.6287 170.598C25.0209 171.645 25.4557 172.678 25.9192 173.696C26.3257 174.589 27.7161 174.489 28.1525 173.696C28.2523 173.513 28.3308 173.325 28.3964 173.134C29.5372 173.144 30.6895 173.056 31.8232 173.161C33.8254 173.348 35.8317 173.452 37.8396 173.576C41.8127 173.823 45.7928 173.986 49.7672 174.213C50.1529 174.235 50.5385 174.257 50.9239 174.28C48.0916 165.521 48.459 156.052 48.0108 146.943C47.9747 146.208 49.1158 146.212 49.1516 146.943C49.6017 156.091 49.2185 165.584 52.1509 174.357C53.2886 174.434 54.4247 174.528 55.557 174.666C56.4724 174.776 57.3924 174.905 58.3165 174.86C59.3646 174.81 60.3885 174.571 61.411 174.363C63.2691 173.985 65.0588 174.156 66.9241 174.388C68.9192 174.638 70.9214 174.776 72.9293 174.863C80.9694 175.215 89.0637 175.535 97.1009 174.998C99.046 174.868 100.987 174.686 102.919 174.438C104.91 174.183 106.879 173.754 108.869 173.511C110.829 173.271 112.632 173.928 114.57 174.049C116.546 174.173 118.576 173.761 120.534 173.525C121.173 173.447 121.812 173.372 122.452 173.298C121.628 167.659 121.16 161.978 120.705 156.299C120.647 155.566 121.788 155.572 121.846 156.299C122.297 161.933 122.755 167.572 123.577 173.166C126.968 172.772 130.361 172.374 133.716 171.759C134.672 171.586 135.622 171.302 136.193 170.45C136.617 169.819 136.702 169.045 136.498 168.318Z" fill="white"/>
<path fill-rule="evenodd" clip-rule="evenodd" d="M119.201 41.8341C117.896 34.7243 114.678 27.9594 109.736 22.6663C109.166 22.0378 108.654 21.0464 107.784 20.8879C106.91 19.1096 105.245 17.8525 103.914 16.4164C101.009 13.5224 98.2299 10.2885 94.483 8.46096C77.1038 1.31941 60.3794 21.6826 56.8304 36.9968C53.3053 49.3126 57.1554 66.3021 72.4316 66.8005C74.5928 69.6564 77.5749 71.6332 80.6382 73.3987C84.8216 76.0749 89.385 77.1611 94.2247 75.6719C99.0446 76.9303 104.041 72.8921 106.938 69.3505C109.227 66.6073 110.796 63.2593 112.891 60.4198C115.363 60.3581 117.5 58.2664 117.831 55.8147C120.14 51.5748 120.035 46.4942 119.201 41.8341Z" fill="white"/>
<path fill-rule="evenodd" clip-rule="evenodd" d="M81.3474 6.04159C84.5097 5.30338 87.826 5.45641 90.9584 6.26771C97.1667 7.87592 102.275 12.0579 106.51 16.7207C110.642 21.2688 114.049 26.4825 116.537 32.0991L116.663 32.3848C118.423 36.3885 119.953 40.55 120.019 44.9585C120.075 48.7527 119.691 52.7055 118.465 56.3143C117.372 59.5291 115.361 62.7686 111.903 63.5393C109.908 68.6043 106.007 72.9905 101.092 75.3375C98.0434 76.7933 94.6958 77.4431 91.3254 77.12C87.8868 76.7906 84.6749 75.1397 81.9875 73.0345C81.9137 72.9768 82.0086 72.865 82.0846 72.9086C85.3202 74.7716 89.1468 75.4375 92.8529 75.315C98.9433 75.1138 104.527 71.8294 107.735 66.6668C108.533 65.3819 109.245 64.0266 109.812 62.6167C109.779 62.5008 109.76 62.3832 109.76 62.2686C109.76 61.7829 109.99 61.4118 110.335 61.172C110.494 60.6737 110.635 60.1697 110.753 59.6601C111.021 58.5057 111.17 57.3346 111.26 56.1541C111.333 55.1951 111.292 54.1776 111.389 53.194C111.354 52.4059 111.305 51.6186 111.233 50.8329C111.003 48.3013 110.538 45.7759 109.642 43.3899C108.735 40.9731 107.301 38.8418 105.493 37.0073C101.613 33.0729 96.7837 30.2001 93.0116 26.1582L92.8141 25.9444L92.8007 25.9401C92.3326 26.4196 91.8649 26.899 91.3959 27.3775L89.253 29.5613C84.8793 34.0233 80.5411 38.5287 76.7363 43.4939C74.5454 46.3531 72.5771 49.3503 70.881 52.5285C70.0779 54.0338 69.3496 55.5766 68.6914 57.1504L68.4324 57.777C68.1242 58.5267 67.7911 59.366 67.6061 60.2128C68.1566 60.7583 68.5591 61.5601 69.0044 62.1793C69.5093 62.8816 70.0917 63.5501 70.691 64.1741C71.2975 64.8057 71.9627 65.4111 72.6689 65.9299L72.7537 65.9911C73.564 66.5656 74.4941 66.9624 74.6156 68.056C74.6684 68.5309 74.2434 68.9129 73.85 69.0608C72.7729 69.465 71.6571 68.3038 70.9392 67.6358C70.4916 67.2192 70.08 66.7703 69.6984 66.2962C69.3269 66.3494 68.953 66.376 68.583 66.3321C68.0095 66.264 67.4417 66.1639 66.8831 66.0171C62.2501 64.8017 58.8209 60.9589 56.9707 56.6792C54.4868 50.9334 54.5446 44.31 55.5772 38.234C57.464 27.1303 63.5706 16.7606 72.7917 10.1957C75.3741 8.35709 78.2378 6.7674 81.3474 6.04159ZM86.3391 7.52698C80.3821 7.21337 74.9512 10.2825 70.5938 14.1029C62.6601 21.0589 57.7733 31.2436 56.7902 41.7023C56.2678 47.2592 56.6587 53.2487 59.5587 58.1583C60.6839 60.0631 62.133 61.7229 63.8436 63.1224C65.4555 64.4414 67.2928 65.2015 69.2571 65.7187C69.1676 65.5956 69.0794 65.4717 68.9935 65.3459C68.5366 64.6775 68.1737 63.967 67.8696 63.2227C67.8428 63.2495 67.7923 63.2549 67.7625 63.214C66.5227 61.5143 66.9108 59.4862 67.5017 57.6171C68.1213 55.6567 68.9067 53.7491 69.8029 51.8987C73.0699 45.1553 77.929 39.2805 82.973 33.7985C85.549 30.9988 88.2105 28.2802 90.8621 25.5524C92.1863 24.1903 93.507 22.8241 94.811 21.4423C95.46 20.7544 96.105 20.0629 96.7441 19.3659C97.3762 18.6767 97.9449 17.9468 98.7318 17.4306C99.3591 17.0192 99.9853 17.8054 99.6921 18.3902C99.2412 19.2896 98.4656 20.0026 97.7794 20.734L97.7087 20.8097C97.0398 21.5312 96.3645 22.2469 95.6853 22.9588C94.9041 23.7775 94.1168 24.5906 93.327 25.4017C94.0006 25.3237 94.6821 25.2788 95.3516 25.1772C96.2609 25.0393 97.1578 24.8361 98.0503 24.6151C98.9908 24.3825 99.9191 24.0854 100.815 23.7161C101.657 23.3693 102.453 22.8136 103.379 22.7592C104.163 22.713 104.408 23.6829 103.973 24.1933C103.375 24.8965 102.298 25.1734 101.423 25.4345L101.299 25.4718C100.331 25.767 99.3406 25.9885 98.3392 26.1366C97.0217 26.3315 95.4989 26.4207 94.0893 26.2212C96.9043 27.8703 99.4946 29.9141 102.078 31.9073L102.534 32.2584C105.057 34.1984 107.52 36.2898 109.32 38.9441C110.999 41.4221 112.014 44.3069 112.583 47.23C112.863 48.672 113.049 50.1293 113.173 51.5928C113.636 52.8903 113.562 54.4329 113.445 55.8599L113.404 56.3525L113.407 56.4969C113.424 57.3894 113.783 59.3767 112.938 60.0506C112.923 60.1224 112.91 60.1947 112.895 60.2665C113 60.2015 113.104 60.1347 113.207 60.066C113.249 60.0376 113.291 60.0064 113.332 59.9758L113.449 59.8799C113.453 59.8762 113.457 59.8729 113.46 59.8702C113.723 59.6401 113.973 59.3999 114.206 59.1401C114.637 58.6601 115.047 58.0501 115.435 57.3474C116.288 55.8029 116.833 54.1239 117.255 52.3879C118.025 49.214 118.343 45.8051 117.991 42.5502C117.942 42.0959 117.842 41.5262 117.686 40.9417C117.315 39.554 116.888 38.1808 116.411 36.8263C115.455 34.1164 114.284 31.4874 112.919 28.9592C110.146 23.8241 106.578 19.0765 102.303 15.0926C97.9733 11.0579 92.3587 7.84386 86.3391 7.52698ZM77.9402 23.9339C78.155 23.8028 78.376 24.0574 78.2695 24.2629C77.7537 25.2573 76.8864 26.0968 76.1659 26.9488C75.4199 27.8311 74.6794 28.7182 73.9407 29.6066C72.4365 31.4154 70.9684 33.2574 69.5581 35.1405L69.1859 35.6386C67.946 37.3015 66.7213 38.9907 65.6375 40.7575C65.0705 41.6817 64.5708 42.6377 64.117 43.6221C63.6851 44.5592 63.4859 45.6904 62.9668 46.5706C62.9341 46.6262 62.8329 46.6216 62.8203 46.5514C62.6509 45.6036 63.0694 44.462 63.3685 43.5745C63.724 42.519 64.23 41.5136 64.7716 40.5426C65.9013 38.517 67.2549 36.6185 68.6148 34.7428C69.9959 32.8382 71.4298 30.9726 72.9342 29.1633C73.6408 28.3135 74.3632 27.4806 75.1073 26.6642L75.3873 26.3588C76.1666 25.5142 76.9521 24.5366 77.9402 23.9339ZM74.3286 20.9892C74.6819 20.7278 74.9833 21.2621 74.758 21.5453C73.412 23.2372 71.8804 24.7573 70.4073 26.3352C68.9926 27.8505 67.6404 29.4225 66.3645 31.0564C63.763 34.3881 61.6805 38.0439 59.9168 41.8754C59.8835 41.9477 59.7789 41.8938 59.7946 41.824C60.7288 37.6796 62.9129 33.9155 65.3998 30.5146L65.4944 30.3856C68.0098 26.9656 70.9013 23.5276 74.3286 20.9892Z" fill="black"/>
<path fill-rule="evenodd" clip-rule="evenodd" d="M100.826 66.0688C99.9146 66.0763 98.8899 65.7345 98.2048 65.467L98.0261 65.3963C97.4331 65.1589 96.8239 64.8865 96.3697 64.4293C96.2244 64.2807 96.0697 64.1125 95.9912 63.9357C95.9452 63.8322 95.926 63.7249 95.9705 63.6184C96.1348 63.6023 96.2904 63.5813 96.4379 63.5543C96.5081 63.5415 96.5754 63.5282 96.6269 63.5279C96.817 63.5267 97.005 63.5508 97.1929 63.5746C97.2201 63.578 97.2473 63.5814 97.2745 63.5848C97.4207 63.6029 97.5663 63.6224 97.7116 63.6419C98.1342 63.6986 98.5546 63.7549 98.9833 63.7754C99.2929 63.7902 99.6174 63.7728 99.9449 63.755C100.794 63.7088 101.672 63.6458 102.327 64.2401C102.498 64.3958 102.57 64.5919 102.57 64.7916C102.57 65.0343 102.467 65.2814 102.311 65.4752C101.958 65.9141 101.415 66.064 100.826 66.0688ZM105.794 58.4146C105.398 59.009 104.737 59.3912 103.832 59.3497C102.033 59.2675 99.8855 58.5893 98.3786 57.6086C97.9862 57.3532 97.7317 56.945 97.6861 56.5077L97.6049 55.7296L97.1662 56.3775C97.1205 56.4451 97.0744 56.5124 97.0282 56.5797C96.9012 56.7652 96.7743 56.9507 96.6545 57.1407C96.1948 57.8706 95.7734 58.6076 95.3907 59.3807C95.1198 59.9281 94.9217 60.5403 94.7231 61.158C94.3877 62.2009 94.0638 63.2266 93.3473 63.9596C93.2389 64.0704 93.0724 64.1101 92.92 64.0905C92.7856 64.0732 92.654 64.0074 92.5894 63.8763C91.7333 62.1369 92.8848 60.0408 93.8189 58.5836L93.9176 58.4315C94.7838 57.1146 96.1983 55.3719 97.8183 55.135L98.0038 55.4306L98.2734 55.2509C98.7144 54.957 99.2965 54.9707 99.8062 55.2006L100.316 55.4304C101.265 55.8558 102.201 56.2483 103.227 56.4633C103.302 56.479 103.377 56.4936 103.451 56.5072C103.522 56.52 103.593 56.532 103.664 56.5432C103.648 56.4732 103.632 56.4036 103.616 56.3342C103.598 56.2608 103.581 56.1872 103.562 56.1138C103.543 56.0381 103.522 55.9627 103.501 55.8877C103.419 55.5885 103.326 55.292 103.216 55.0017C102.801 53.9104 102.14 52.8898 101.496 51.9163L101.42 51.8018C101.328 51.6623 101.227 51.5167 101.122 51.3662C100.62 50.6438 100.063 49.8597 100.024 49.0727C100.69 49.1147 101.248 49.5284 101.739 49.8886C102.412 50.3826 103.037 50.9475 103.603 51.5612C104.702 52.7519 105.688 54.274 106.12 55.8475C106.368 56.7486 106.259 57.7181 105.794 58.4146ZM88.215 49.438L88.2148 49.4059C88.2168 48.4974 88.7465 46.4229 90.0556 46.4229C90.8735 46.4229 91.37 47.8347 91.4559 49.2901L91.4589 49.3494C91.4969 50.2543 91.2484 52.2321 90.0556 52.2321C88.8502 52.2321 88.2274 50.3589 88.215 49.438ZM107.49 49.1531L107.49 49.121C107.488 48.2124 106.958 46.1379 105.649 46.1379C104.852 46.1379 104.36 47.4801 104.256 48.8961L104.249 49.0052C104.197 49.8795 104.43 51.9472 105.649 51.9472C106.854 51.9472 107.477 50.0739 107.49 49.1531ZM92.6251 43.2891C92.4516 43.3095 92.279 43.3361 92.1064 43.3635C91.603 43.4436 91.1023 43.5398 90.6051 43.6519C89.6606 43.8649 88.7238 44.1339 87.8049 44.4378C86.9449 44.7224 86.0984 45.0439 85.2521 45.3654C85.2069 45.3826 85.1618 45.3998 85.1166 45.4169C84.8178 45.5304 84.52 45.6576 84.2212 45.7853C83.7666 45.9795 83.3098 46.175 82.8438 46.3224C84.0717 44.626 85.9639 43.369 87.7845 42.4695C88.8233 41.9563 89.9254 41.5425 91.034 41.2034L91.6513 41.0181C92.5604 40.7501 93.5544 40.5026 94.4083 41.0369C94.746 41.2482 94.9616 41.5767 95.0294 41.9318C95.096 42.2801 95.0201 42.6535 94.7794 42.9652C94.5697 43.2367 94.3083 43.3913 94.0302 43.4443C93.7232 43.5027 93.3979 43.4385 93.1017 43.2805C92.8645 43.2628 92.7944 43.2692 92.7243 43.277L92.6251 43.2891ZM106.301 43.4617C105.692 43.3296 105.09 43.2765 104.466 43.2956C104.183 43.304 103.91 43.3476 103.638 43.3914C103.215 43.4595 102.793 43.5299 102.338 43.4472C102.1 43.4041 101.897 43.2652 101.741 43.0838C101.558 42.8717 101.437 42.6007 101.398 42.343C101.358 42.0768 101.398 41.844 101.497 41.6385C101.613 41.3956 101.809 41.191 102.046 41.0117C102.764 40.469 103.995 40.5995 104.842 40.7092C105.678 40.8179 106.51 41.0771 107.25 41.4889C107.98 41.8953 108.614 42.4427 109.109 43.1119C109.526 43.6759 109.723 44.3251 109.926 44.986C108.971 44.1858 107.51 43.7241 106.301 43.4617Z" fill="black"/>
<path fill-rule="evenodd" clip-rule="evenodd" d="M87.3787 67.1449C88.5332 64.4424 91.0531 62.4562 93.9544 61.7301C96.085 61.1982 98.3209 61.2152 100.493 61.4263C101.631 61.5361 102.851 61.6261 103.924 62.0483C104.839 62.409 105.586 63.0908 106.147 63.8911C106.815 64.8395 107.269 65.925 107.588 67.0375C107.633 67.1957 107.676 67.3551 107.716 67.5152C107.577 68.3546 107.282 69.0691 106.504 69.5969C105.745 70.1122 104.839 70.323 103.936 70.3979C103.847 70.3554 103.761 70.3117 103.683 70.267C102.275 69.4619 101.285 67.5594 99.5083 67.8169C97.9229 68.0468 96.8792 70.0399 95.9365 71.2086C92.9101 71.561 89.886 70.6524 87.4237 68.9233C87.2986 68.3315 87.2913 67.7347 87.3787 67.1449ZM109.772 65.0949C109.53 64.4161 109.225 63.7586 108.863 63.1393C107.669 61.0912 105.834 59.4593 103.657 58.5265C98.5055 56.3228 91.8404 57.8762 87.6804 61.4905C86.2594 62.726 84.8225 64.5416 84.388 66.4945C84.2583 66.5202 84.1358 66.5877 84.035 66.6827C81.0294 64.792 77.9343 62.973 75.5123 60.3522C73.7535 58.448 72.5301 56.1945 71.781 53.7182C71.7198 53.5144 71.3908 53.5442 71.4008 53.7697C71.4036 53.8225 71.4065 53.8751 71.4093 53.9279C71.378 53.8309 71.2299 53.8808 71.2185 53.975C70.8155 56.9832 70.3113 60.1725 70.7756 63.1964C71.0533 65.0007 71.8736 66.3217 72.9702 67.748C74.1452 69.2769 75.4753 70.699 76.8354 72.0628C77.6984 72.9284 78.5999 73.9269 79.6567 74.5616C80.8857 75.299 82.28 75.8597 83.5916 76.4287C84.9261 77.0092 86.2805 77.5455 87.6605 78.0105C90.4191 78.9434 93.2702 79.5881 96.1713 79.8705C98.4941 80.0959 101.149 80.3413 103.375 79.4683C105.081 78.7993 106.458 77.5899 107.55 76.1349C108.74 74.5502 109.68 72.7451 110.199 70.8417C110.739 68.8644 109.886 65.4137 109.772 65.0949Z" fill="black"/>
<path fill-rule="evenodd" clip-rule="evenodd" d="M107.927 41.8979C111.275 41.8979 113.185 42.6172 113.885 42.6732L113.906 42.6747C114.197 42.6933 114.458 42.7176 114.732 42.8235C115.74 43.2112 115.904 44.2671 115.316 44.9325C115.275 46.3094 115.456 47.9182 115.145 49.2996C114.761 55.123 112.02 56.1058 110.462 56.4645C109.68 56.6446 108.753 56.7163 107.922 56.5261C106.504 56.4733 105.103 56.03 103.904 55.2579C102.234 54.1819 100.994 52.528 100.592 50.5652C100.401 49.6296 100.312 48.6558 100.416 47.7048L100.431 47.5737C99.8882 47.3143 99.2593 47.2653 98.6109 47.2424C98.3012 47.2314 97.9959 47.2215 97.6994 47.2346C97.4095 47.267 97.1231 47.31 96.8358 47.3687C96.5221 47.4633 96.2258 47.6194 95.9522 47.8666L95.9334 48.2274C95.882 49.1288 95.7635 50.0328 95.5809 50.9172C95.3111 52.222 94.8773 53.4681 93.9539 54.3936C93.6413 54.8601 93.2546 55.2764 92.785 55.6369C91.0794 56.949 88.7621 57.4308 86.6353 57.2493C82.3177 56.8812 79.822 53.4567 79.2468 51.9929L79.2125 51.9042C78.797 50.816 78.4659 49.4041 77.153 49.1703L76.8738 49.1201C76.2747 49.0078 75.7219 48.8514 75.3706 48.2673C75.2166 48.0124 75.1374 47.7272 75.118 47.4365C74.9131 47.4523 74.7084 47.4673 74.5045 47.4819C72.8776 47.8256 63.1194 48.1171 62.3405 48.1171C62.3405 48.1171 60.8433 48.7467 60.2112 48.2589C59.7731 47.9197 59.6289 47.4676 59.8701 46.9554C60.234 46.1847 61.913 45.7212 62.6585 45.5744C62.6585 45.5744 74.6894 45.6742 75.5553 45.5102C76.0911 44.9582 77.0494 45.0338 77.8502 44.9465C78.5131 44.4742 79.4405 44.1579 80.1731 43.9462C80.3224 43.8896 80.4702 43.835 80.6139 43.7835C81.9569 43.3056 83.3528 43.0525 84.77 42.9166C86.2314 42.7778 87.6971 42.8406 89.15 43.0395C89.7623 43.1225 90.3688 43.2298 90.9711 43.3702C92.0495 43.5122 93.1216 43.7462 94.2004 44.0237L94.4163 44.0798C95.5523 44.3774 96.7197 44.6348 97.8957 44.433C98.8531 44.2699 99.7738 43.9017 100.657 43.5036L100.771 43.4516C102.712 42.5661 105.744 41.8979 107.927 41.8979ZM90.854 45.1354C90.1378 44.9781 89.832 46.0813 90.5504 46.2391C91.0591 46.3508 91.4903 46.6072 91.7816 47.0414L91.8123 47.0886C92.2032 47.7101 93.1917 47.1364 92.7981 46.5109C92.3552 45.807 91.667 45.314 90.854 45.1354ZM111.831 44.4516C111.579 44.2739 111.197 44.4058 111.05 44.6569C110.889 44.9334 110.994 45.2412 111.231 45.4221L111.255 45.4398C111.472 45.5925 111.683 45.8663 111.71 46.1468L111.712 46.1819C111.74 46.916 112.882 46.9197 112.854 46.1819C112.826 45.4601 112.408 44.8571 111.831 44.4516Z" fill="black"/>
</svg>
