<svg width="48" height="48" viewBox="0 0 48 48" fill="none" xmlns="http://www.w3.org/2000/svg">
<path fill-rule="evenodd" clip-rule="evenodd" d="M17.319 14.8227C17.319 16.3918 16.1378 17.6473 14.2414 17.6473H14.2066C12.3807 17.6473 11.2002 16.3918 11.2002 14.8227C11.2002 13.2204 12.4166 12 14.2772 12C16.1378 12 17.2837 13.2204 17.319 14.8227ZM16.9604 19.8779V36.2196H11.5215V19.8779H16.9604ZM36.5757 36.2196L36.576 26.8497C36.576 21.8303 33.8928 19.4941 30.3137 19.4941C27.426 19.4941 26.1331 21.0803 25.4113 22.193V19.8783H19.9717C20.0434 21.4117 19.9717 36.22 19.9717 36.22H25.4113V27.0935C25.4113 26.6051 25.4466 26.1179 25.5904 25.7682C25.9835 24.7925 26.8785 23.7823 28.3811 23.7823C30.35 23.7823 31.137 25.2808 31.137 27.4768V36.2196H36.5757Z" fill="white"/>
</svg>
