<svg width="130" height="16" viewBox="0 0 130 16" fill="none" xmlns="http://www.w3.org/2000/svg">
<g clip-path="url(#clip0_8717_57130)">
<path d="M74.0001 7.23847V5.92113H72.3841V3.87316L72.3297 3.89011L70.8117 4.36024L70.7818 4.36944V5.9212H68.3859V5.05674C68.3859 4.65422 68.4748 4.34618 68.6501 4.14076C68.8241 3.93779 69.073 3.83461 69.3905 3.83461C69.6187 3.83461 69.855 3.88903 70.0928 3.99634L70.1524 4.0233V2.63596L70.1244 2.62552C69.9025 2.5448 69.6008 2.50415 69.2268 2.50415C68.7554 2.50415 68.3271 2.60799 67.9536 2.81378C67.5798 3.01986 67.2858 3.31405 67.0799 3.68809C66.8746 4.0617 66.7705 4.49321 66.7705 4.97073V5.92113H65.6452V7.23847H66.7705V12.7882H68.3859V7.23847H70.7818V10.7652C70.7818 12.2177 71.4586 12.9538 72.7935 12.9538C73.0128 12.9538 73.2436 12.9278 73.4794 12.8768C73.7193 12.8245 73.8828 12.7723 73.979 12.7165L74.0002 12.7037V11.3742L73.9345 11.4182C73.8468 11.4773 73.7377 11.5256 73.6097 11.5616C73.4811 11.5982 73.3737 11.6165 73.2905 11.6165C72.9779 11.6165 72.7465 11.5312 72.603 11.3629C72.4578 11.193 72.3841 10.896 72.3841 10.4805V7.23847H74.0001ZM62.0376 11.6167C61.4513 11.6167 60.989 11.4199 60.6632 11.0322C60.3354 10.6426 60.1693 10.0871 60.1693 9.38136C60.1693 8.6532 60.3354 8.08329 60.6633 7.68679C60.9893 7.29289 61.4472 7.09297 62.0245 7.09297C62.5846 7.09297 63.0305 7.2839 63.3499 7.66077C63.6709 8.0396 63.8338 8.60494 63.8338 9.34158C63.8338 10.0873 63.6806 10.6601 63.3785 11.0433C63.0785 11.4235 62.6274 11.6167 62.0376 11.6167ZM62.1094 5.7557C60.9908 5.7557 60.1023 6.0875 59.4688 6.74189C58.8357 7.39636 58.5147 8.30205 58.5147 9.43404C58.5147 10.5092 58.828 11.374 59.4461 12.0041C60.0641 12.6344 60.9052 12.9536 61.9459 12.9536C63.0302 12.9536 63.901 12.6172 64.5343 11.9537C65.1674 11.291 65.4882 10.3939 65.4882 9.28832C65.4882 8.19633 65.1872 7.32506 64.5933 6.69921C63.999 6.07308 63.1632 5.7557 62.1094 5.7557ZM55.9101 5.7557C55.1491 5.7557 54.5197 5.95272 54.0389 6.34118C53.5551 6.73197 53.3097 7.24448 53.3097 7.86468C53.3097 8.18706 53.3627 8.47342 53.4669 8.71631C53.5718 8.96 53.7341 9.17456 53.9497 9.35462C54.1636 9.53324 54.4939 9.72033 54.9316 9.91069C55.2995 10.0639 55.5739 10.1936 55.7482 10.2957C55.9186 10.3959 56.0395 10.4965 56.1078 10.5946C56.1742 10.6905 56.2078 10.8218 56.2078 10.9838C56.2078 11.4452 55.8665 11.6697 55.1642 11.6697C54.9037 11.6697 54.6065 11.6146 54.281 11.5061C53.9579 11.3992 53.6528 11.2426 53.3766 11.0419L53.3096 10.9932V12.5675L53.3342 12.5791C53.5628 12.6859 53.851 12.776 54.1906 12.8469C54.5296 12.9178 54.8377 12.9539 55.1053 12.9539C55.931 12.9539 56.5959 12.7559 57.0811 12.3652C57.5694 11.9717 57.8169 11.4471 57.8169 10.8054C57.8169 10.3426 57.6837 9.94562 57.4211 9.62548C57.1603 9.30796 56.7077 9.01645 56.0764 8.75878C55.5734 8.55443 55.2512 8.3848 55.1183 8.25459C54.9901 8.1288 54.9251 7.95091 54.9251 7.72562C54.9251 7.52592 55.0054 7.36593 55.1703 7.23637C55.3364 7.10615 55.5677 7.03993 55.8577 7.03993C56.1269 7.03993 56.4023 7.08297 56.6762 7.16731C56.9498 7.25166 57.1902 7.36462 57.3909 7.50281L57.4569 7.54846V6.05503L57.4315 6.04402C57.2464 5.96366 57.0023 5.8949 56.7058 5.8391C56.4107 5.78367 56.1429 5.7557 55.9101 5.7557ZM49.0983 11.6167C48.5121 11.6167 48.0497 11.4199 47.724 11.0322C47.3961 10.6426 47.2303 10.0873 47.2303 9.38136C47.2303 8.6532 47.3963 8.08329 47.7243 7.68679C48.0501 7.29289 48.5078 7.09297 49.0854 7.09297C49.6453 7.09297 50.0912 7.2839 50.4107 7.66077C50.7317 8.0396 50.8946 8.60494 50.8946 9.34158C50.8946 10.0873 50.7413 10.6601 50.4392 11.0433C50.1392 11.4235 49.6883 11.6167 49.0983 11.6167ZM49.1703 5.7557C48.0514 5.7557 47.1628 6.0875 46.5297 6.74189C45.8966 7.39636 45.5754 8.30205 45.5754 9.43404C45.5754 10.5097 45.8889 11.374 46.507 12.0041C47.125 12.6344 47.9661 12.9536 49.0067 12.9536C50.0909 12.9536 50.962 12.6172 51.5952 11.9537C52.2282 11.291 52.5491 10.3939 52.5491 9.28832C52.5491 8.19633 52.248 7.32506 51.654 6.69921C51.0596 6.07308 50.2239 5.7557 49.1703 5.7557ZM43.1232 7.11036V5.92113H41.5274V12.788H43.1232V9.27535C43.1232 8.67805 43.257 8.18735 43.521 7.81671C43.7816 7.45049 44.1289 7.26492 44.553 7.26492C44.6968 7.26492 44.8581 7.2889 45.0328 7.33636C45.2058 7.38354 45.3311 7.43477 45.4049 7.48868L45.472 7.53788V5.90939L45.4462 5.89816C45.2976 5.83425 45.0873 5.802 44.8213 5.802C44.4203 5.802 44.0614 5.93243 43.7541 6.18923C43.4843 6.41495 43.2893 6.72443 43.1402 7.11036H43.1232ZM38.6697 5.7557C37.9376 5.7557 37.2846 5.9146 36.7292 6.22785C36.1726 6.54183 35.7422 6.99007 35.4494 7.56005C35.1578 8.12865 35.0097 8.79283 35.0097 9.53353C35.0097 10.1823 35.1533 10.7778 35.437 11.3025C35.7208 11.8282 36.1225 12.2394 36.6311 12.5246C37.1389 12.8094 37.7258 12.9538 38.3756 12.9538C39.134 12.9538 39.7815 12.8004 40.3006 12.4977L40.3216 12.4855V11.0056L40.2545 11.0552C40.0194 11.2286 39.7566 11.367 39.4738 11.4667C39.1918 11.5664 38.9346 11.6167 38.7092 11.6167C38.083 11.6167 37.5803 11.4184 37.2155 11.0274C36.8498 10.6359 36.6644 10.0861 36.6644 9.39433C36.6644 8.6982 36.8578 8.13431 37.2388 7.71823C37.6187 7.30339 38.1223 7.09297 38.7355 7.09297C39.26 7.09297 39.7711 7.27274 40.2547 7.6278L40.3216 7.677V6.11771L40.3 6.10539C40.118 6.00228 39.8698 5.91714 39.5617 5.85258C39.2549 5.78816 38.9548 5.7557 38.6697 5.7557ZM33.9107 5.9212H32.315V12.788H33.9107V5.9212ZM33.1292 2.99587C32.8665 2.99587 32.6374 3.08638 32.4493 3.26572C32.2603 3.44557 32.1644 3.67201 32.1644 3.93924C32.1644 4.20228 32.2591 4.42459 32.4463 4.59965C32.6323 4.77421 32.8621 4.86269 33.1292 4.86269C33.3963 4.86269 33.627 4.77421 33.8152 4.59994C34.0046 4.42459 34.1006 4.20235 34.1006 3.93924C34.1006 3.68135 34.0071 3.45723 33.823 3.27296C33.6389 3.08906 33.4054 2.99587 33.1292 2.99587ZM29.1476 5.41455V12.788H30.7762V3.20608H28.5222L25.6573 10.3233L22.877 3.20608H20.5312V12.788H22.0617V5.41383H22.1142L25.0501 12.788H26.205L29.0951 5.41455H29.1476Z" fill="white"/>
<path d="M7.5069 7.603H0V0.00415039H7.5069V7.603Z" fill="white"/>
<path d="M15.7958 7.603H8.28906V0.00415039H15.7958V7.603Z" fill="white"/>
<path d="M7.50669 15.996H0V8.39722H7.50669V15.996Z" fill="white"/>
<path d="M15.7958 15.996H8.28906V8.39722H15.7958V15.996Z" fill="white"/>
</g>
<defs>
<clipPath id="clip0_8717_57130">
<rect width="130" height="16" fill="white"/>
</clipPath>
</defs>
</svg>
