<svg width="130" height="16" viewBox="0 0 130 16" fill="none" xmlns="http://www.w3.org/2000/svg">
<g clip-path="url(#clip0_8717_34695)">
<path d="M10.9523 8.17542C10.9353 6.41004 12.4851 5.56183 12.555 5.52014C11.683 4.31917 10.3273 4.15562 9.84356 4.13638C8.69053 4.02574 7.592 4.77615 7.00611 4.77615C6.42023 4.77615 5.51756 4.15241 4.56039 4.17005C3.30176 4.18769 2.14192 4.85792 1.49301 5.91939C0.186699 8.05195 1.1592 11.2155 2.43315 12.9488C3.05651 13.7954 3.79738 14.7495 4.77328 14.7142C5.71342 14.6789 6.06768 14.1418 7.20197 14.1418C8.33627 14.1418 8.65646 14.7142 9.6477 14.6966C10.6577 14.6773 11.298 13.8307 11.9163 12.9809C12.6299 11.998 12.9246 11.0456 12.9416 10.9958C12.9194 10.9878 10.9727 10.2855 10.9523 8.17542Z" fill="white"/>
<path d="M9.08743 2.98998C9.60493 2.39992 9.95404 1.57864 9.85876 0.76123C9.1129 0.79023 8.21015 1.2291 7.6754 1.81954C7.19692 2.34076 6.77183 3.17596 6.89011 3.97791C7.71976 4.039 8.56993 3.57848 9.08743 2.99036" fill="white"/>
<path d="M18.2969 9.67448L17.1457 12.9425H15.6787L19.4273 2.55322H21.146L24.9105 12.9425H23.3865L22.2067 9.67448H18.2969ZM21.9162 8.62574L20.8362 5.63593C20.5906 4.95725 20.4273 4.3405 20.2634 3.73975H20.2316L19.6751 5.62613L18.5952 8.63091L21.9162 8.62574Z" fill="white"/>
<path d="M26.0257 7.91769L25.96 5.48166H27.2537L27.3195 6.76161H27.3513C27.9401 5.85223 28.8742 5.31289 30.168 5.31289C32.0845 5.31289 33.523 6.83902 33.523 9.10525C33.523 11.7869 31.7885 13.1118 29.9213 13.1118C28.8731 13.1118 27.9571 12.6793 27.4818 11.9413H27.45V15.9999H26.0246L26.0257 7.91769ZM27.4489 9.90574C27.4489 10.1122 27.4807 10.2908 27.5147 10.46C27.7762 11.3994 28.644 12.0481 29.6768 12.0481C31.1997 12.0481 32.0889 10.8776 32.0889 9.16512C32.0889 7.66841 31.2545 6.39156 29.7316 6.39156C28.7448 6.39156 27.8332 7.05527 27.5536 8.07149C27.4933 8.25096 27.4604 8.4376 27.456 8.62579V9.90574H27.4489ZM35.0125 7.91769L34.9467 5.48166H36.2405L36.3062 6.76161H36.338C36.9268 5.85223 37.861 5.31289 39.1547 5.31289C41.0712 5.31289 42.5097 6.83902 42.5097 9.10525C42.5097 11.7869 40.7752 13.1118 38.908 13.1118C37.8599 13.1118 36.9438 12.6793 36.4685 11.9413H36.4367V15.9999H35.0114L35.0125 7.91769ZM36.4378 9.90574C36.4378 10.1122 36.4696 10.2908 36.5036 10.46C36.7651 11.3994 37.6329 12.0481 38.6657 12.0481C40.1886 12.0481 41.0778 10.8776 41.0778 9.16512C41.0778 7.66841 40.2435 6.39156 38.7205 6.39156C37.7338 6.39156 36.8221 7.05527 36.5425 8.07149C36.4822 8.25096 36.4493 8.4376 36.4449 8.62579V9.90574H36.4378ZM44.0009 2H45.4426V12.943H44.0009V2ZM48.3383 9.45879C48.3701 11.293 49.6156 12.0486 51.0546 12.0486C52.0869 12.0486 52.7075 11.8793 53.2485 11.6636L53.4941 12.6354C52.987 12.8522 52.1236 13.0979 50.8594 13.0979C48.4199 13.0979 46.9628 11.5867 46.9628 9.3375C46.9628 7.0883 48.37 5.31393 50.6796 5.31393C53.2672 5.31393 53.9524 7.45577 53.9524 8.82346C53.9524 9.10216 53.9206 9.31583 53.8976 9.45466L48.3383 9.45879ZM52.5622 8.48696C52.5786 7.62506 52.185 6.28318 50.564 6.28318C49.1068 6.28318 48.4682 7.54764 48.3547 8.48696H52.5622Z" fill="white"/>
</g>
<defs>
<clipPath id="clip0_8717_34695">
<rect width="130" height="16" fill="white"/>
</clipPath>
</defs>
</svg>
