<svg width="130" height="16" viewBox="0 0 130 16" fill="none" xmlns="http://www.w3.org/2000/svg">
<path d="M9.03086 15.0001L10.9978 3.93776C12.8727 3.93776 13.4641 4.14335 13.5495 4.98251C13.5495 4.98251 14.8072 4.51355 15.4415 3.56112C12.9661 2.41407 10.4789 2.36234 10.4789 2.36234L9.02759 4.13004L9.03086 4.12982L7.57953 2.36206C7.57953 2.36206 5.09226 2.41385 2.61719 3.5609C3.25098 4.51333 4.5092 4.98229 4.5092 4.98229C4.59508 4.14307 5.18574 3.93748 7.04803 3.93615L9.03086 15.0001Z" fill="white"/>
<path d="M9.03 1.85164C11.031 1.83633 13.3214 2.16119 15.6661 3.1831C15.9794 2.61905 16.06 2.36977 16.06 2.36977C13.4969 1.35574 11.0967 1.0087 9.02972 1C6.96289 1.0087 4.56273 1.35579 2 2.36977C2 2.36977 2.11433 2.67683 2.39366 3.1831C4.73788 2.16119 7.02865 1.83633 9.02972 1.85164H9.03Z" fill="white"/>
<path d="M20.835 2.02898C21.1031 3.07485 22.0086 4.14384 23.251 4.41166H27.0058L27.1974 4.48729V13.9622H29.5421V4.48729L29.7551 4.41166H33.5132C34.7694 4.08803 35.6555 3.07485 35.919 2.02898V2.00586H20.835V2.02898Z" fill="white"/>
<path d="M44.0401 13.9891H52.9603C54.2013 13.7424 55.1237 12.649 55.3822 11.5906H41.6182C41.8751 12.6493 42.811 13.7424 44.0401 13.9891Z" fill="white"/>
<path d="M44.0401 9.12867H52.9603C54.2013 8.88396 55.1237 7.79021 55.3822 6.73047H41.6182C41.8751 7.79054 42.811 8.88396 44.0401 9.12867Z" fill="white"/>
<path d="M44.0401 4.39919H52.9603C54.2013 4.15184 55.1237 3.05908 55.3822 2H41.6182C41.8751 3.05908 42.811 4.15184 44.0401 4.39919Z" fill="white"/>
<path d="M64.3855 4.37637H72.6263C73.8687 4.01541 74.9119 3.06895 75.1662 2.01978H62.0755V9.09186H72.7898V11.5736L64.3855 11.5802C63.0685 11.9475 61.9516 12.8318 61.3945 13.9999L62.0755 13.9873H75.0919V6.74055H64.3855V4.37637Z" fill="white"/>
<path d="M92.4295 13.9905C93.5996 13.4944 94.229 12.6365 94.4701 11.6325H84.0619L84.0685 2.0166L81.7354 2.0232V13.9905H92.4295Z" fill="white"/>
<path d="M101.519 4.4087H110.442C111.682 4.16234 112.603 3.06859 112.863 2.0105H99.0986C99.3559 3.06892 100.291 4.16234 101.519 4.4087Z" fill="white"/>
<path d="M99.458 6.74951V13.9857H101.779V9.16786H110.224V13.9857H112.543V6.76206L99.458 6.74951Z" fill="white"/>
</svg>
