<svg width="275" height="20" viewBox="0 0 275 20" fill="none" xmlns="http://www.w3.org/2000/svg">
<path d="M95.7824 0.00390625H100.27L89.873 19.3293H86.8349L76.1641 0.00390625H81.1174L88.5584 13.874L95.7824 0.00390625Z" fill="white"/>
<path d="M109.245 19.3287C107.675 19.3287 106.54 19.002 105.839 18.3487C105.137 17.6954 104.785 16.5716 104.785 14.9808V3.8677C104.785 3.05431 104.908 2.39445 105.153 1.89138C105.398 1.38832 105.729 0.996324 106.137 0.712127C106.546 0.42793 107.021 0.238465 107.559 0.143732C108.097 0.0489996 108.657 0 109.242 0H123.416C124.309 0 125.039 0.0914658 125.605 0.271131C126.171 0.450796 126.618 0.705594 126.945 1.03879C127.272 1.37199 127.501 1.77378 127.627 2.24745C127.756 2.72111 127.819 3.2601 127.819 3.8677V14.9808C127.819 15.7779 127.74 16.4508 127.586 16.9996C127.432 17.5484 127.184 17.9992 126.847 18.3487C126.511 18.6982 126.058 18.9498 125.492 19.1033C124.926 19.2536 124.234 19.332 123.413 19.332H109.238L109.245 19.3287ZM123.526 15.7746V3.44304H109.078V15.7779H123.526V15.7746Z" fill="white"/>
<path d="M135.346 0.00390625H139.642V15.7785H153.816V19.3326H135.346V0.00390625Z" fill="white"/>
<path d="M164.546 0.00390625V15.7785H177.079V0.00390625H181.375V14.8671C181.375 16.4972 180.981 17.647 180.198 18.3199C179.412 18.9929 178.346 19.3293 176.997 19.3293H164.357C162.989 19.3293 161.964 18.9929 161.278 18.3199C160.596 17.647 160.253 16.4972 160.253 14.8671V0.00390625H164.549H164.546Z" fill="white"/>
<path d="M199.401 19.3293H195.105V3.29994H186.432V0.00390625H207.909V3.29994H199.398V19.3293H199.401Z" fill="white"/>
<path d="M212.97 0.00390625H232.258V3.29994H217.263V7.70337H226.047V11.1693H217.263V15.8308H232.393V19.3261H212.967V0.00390625H212.97Z" fill="white"/>
<path d="M252.752 12.195L260.85 19.3293H255.076L247.553 12.195H243.669V19.3293H239.373V0.00390625H255.214C256.601 0.00390625 257.664 0.284837 258.403 0.843432C259.142 1.40203 259.51 2.41142 259.51 3.8716V8.5037C259.51 9.24196 259.397 9.85282 259.167 10.3363C258.938 10.8197 258.623 11.1987 258.224 11.4731C257.821 11.7475 257.362 11.9369 256.843 12.0415C256.324 12.146 255.78 12.1983 255.214 12.1983H252.752V12.195ZM253.764 8.72909C254.076 8.72909 254.34 8.71929 254.557 8.69969C254.777 8.6801 254.953 8.62783 255.092 8.5429C255.23 8.45796 255.324 8.31423 255.378 8.11823C255.431 7.91897 255.46 7.64784 255.46 7.30811V4.83526C255.46 4.47593 255.431 4.19174 255.378 3.98267C255.324 3.77361 255.233 3.61681 255.104 3.51227C254.975 3.40774 254.802 3.34568 254.585 3.32608C254.365 3.30648 254.091 3.29668 253.764 3.29668H243.669V8.72583H253.764V8.72909Z" fill="white"/>
<path d="M69.6959 15.8306H52.5684V19.3259H69.6959V15.8306Z" fill="white"/>
<path d="M69.6959 0.933594H52.5684V4.4289H69.6959V0.933594Z" fill="white"/>
<path d="M63.0568 8.38428H52.5684V11.8796H63.0568V8.38428Z" fill="white"/>
<path opacity="0.7" d="M44.8599 15.8306H27.7324V19.3259H44.8599V15.8306Z" fill="white"/>
<path opacity="0.7" d="M38.2209 8.38428H27.7324V11.8796H38.2209V8.38428Z" fill="white"/>
<path opacity="0.4" d="M21.9451 15.8306H7.9248V19.3259H21.9451V15.8306Z" fill="white"/>
<path opacity="0.2" d="M3.36512 15.8306H0V19.3259H3.36512V15.8306Z" fill="white"/>
</svg>
