<svg width="162" height="180" viewBox="0 0 162 180" fill="none" xmlns="http://www.w3.org/2000/svg">
<path fill-rule="evenodd" clip-rule="evenodd" d="M33.1807 172.802C33.9326 173.948 35.4117 173.772 36.0468 172.884C43.2777 174.574 50.6908 173.908 58.0223 173.494C78.682 172.651 99.4582 175.294 120.034 172.529C122.217 172.091 124.758 172.3 126.544 170.782C129.4 167.425 128.785 162.328 128.33 158.239C124.682 135.19 119.497 111.929 116.91 88.7311C116.766 86.5214 117.674 83.7759 118.488 81.6987C118.689 81.3122 119.959 80.9335 120.619 80.4877C122.643 79.0309 122.314 76.4203 120.56 74.8884C114.88 70.873 106.973 72.2761 100.947 73.7576C99.7926 69.408 98.4946 66.5472 96.296 66.2639C92.1113 65.7247 81.9602 64.0769 78.8333 66.2639C77.3374 67.3102 76.3773 70.9968 75.3005 72.7927C67.4477 72.6529 51.5096 62.1161 48.233 73.9814C45.5708 74.1657 42.9341 76.4966 43.4433 79.2938C39.9907 82.3536 42.7139 86.9415 42.6661 90.7499C42.2122 98.8303 37.8524 106.057 36.0386 113.863C31.8927 129.002 27.2001 156.54 32.3423 171.317C32.2316 171.259 31.9899 171.347 32.1465 171.47C32.7288 171.634 32.8045 172.37 33.1807 172.802Z" fill="white"/>
<path fill-rule="evenodd" clip-rule="evenodd" d="M123.467 168.952C122.503 161.187 121.832 151.813 121.824 143.983C121.824 143.246 122.964 143.247 122.965 143.983C122.973 151.813 123.643 161.187 124.608 168.952C124.699 169.682 123.557 169.673 123.467 168.952ZM116.321 120.805C114.83 121.719 112.873 121.085 111.399 120.48C110.727 120.204 111.023 119.098 111.702 119.377C112.824 119.837 114.465 120.516 115.649 119.873C116.832 119.232 116.885 117.468 116.894 116.304C116.899 115.567 118.04 115.567 118.035 116.304C118.023 117.887 117.812 119.89 116.321 120.805ZM113.562 156.34C112.058 155.567 110.775 154.51 109.743 153.169C109.294 152.586 110.286 152.017 110.728 152.591C111.637 153.772 112.821 154.675 114.138 155.352C114.792 155.688 114.214 156.675 113.562 156.34ZM106.337 116.408C103.757 126.776 102.026 137.329 101.177 147.981C101.005 150.144 100.884 152.303 100.815 154.464C100.747 155.028 100.681 155.593 100.62 156.157C100.387 158.294 100.209 160.465 100.225 162.616C100.232 163.582 100.262 164.543 100.327 165.505C100.213 165.183 100.108 164.86 100.005 164.538C99.7955 163.879 99.6572 163.195 99.4433 162.54C99.2665 161.998 99.0383 161.479 98.8258 160.954V160.953C98.89 158.803 98.7445 156.634 98.6704 154.494C98.5748 151.722 98.4565 148.954 98.3952 146.18C98.2725 140.634 98.3338 135.084 98.5335 129.54C98.9342 118.37 99.9467 107.254 100.968 96.1296C101.252 93.0361 101.557 89.944 101.768 86.8446C101.98 83.7127 102.066 80.5748 102.09 77.4343C102.091 77.2082 101.749 77.1482 101.686 77.3669C101.631 76.6218 101.532 75.8781 101.368 75.1587C103.828 76.7319 106.422 78.092 108.965 79.5222C110.304 80.2759 111.638 81.0425 113.018 81.7175C113.777 82.0892 114.542 82.4312 115.324 82.7544C116.134 83.0891 116.908 83.5496 117.799 83.3164C117.877 83.2965 117.949 83.2679 118.019 83.2307C117.918 83.4236 117.817 83.6154 117.72 83.8101C117.383 84.4807 117.062 85.1543 116.751 85.8336C116.669 85.8951 116.596 85.9797 116.539 86.0896C116.388 86.3857 116.241 86.6846 116.098 86.9876C116.07 86.9606 116.041 86.9334 116.013 86.9063C115.893 86.7933 115.727 86.9633 115.833 87.0865C115.881 87.1421 115.929 87.1966 115.976 87.2524C115.046 89.2589 114.29 91.3685 113.511 93.4281C112.554 95.9594 111.647 98.5094 110.793 101.077C109.109 106.127 107.623 111.242 106.337 116.408ZM69.4538 154.033C64.6992 156.587 60.2562 159.638 55.9829 162.93C55.4003 163.379 54.8328 162.384 55.407 161.942C59.6803 158.651 64.1235 155.599 68.8781 153.045C69.5258 152.697 70.1014 153.685 69.4538 154.033ZM53.3942 124.125C53.147 124.107 52.9069 123.963 52.8442 123.705C52.459 122.124 52.1574 120.401 52.5156 118.788C52.6753 118.068 53.7749 118.375 53.6156 119.092C53.3331 120.364 53.5576 121.739 53.8509 123.007C57.9978 123.189 62.089 121.697 66.0564 120.695C66.7699 120.515 67.0712 121.618 66.3597 121.798C62.1512 122.861 57.798 124.452 53.3942 124.125ZM135.95 166.31C135.954 166.3 135.958 166.289 135.961 166.279C136.205 165.538 136.211 164.677 136.238 163.901C136.285 162.519 136.235 161.135 136.111 159.757C135.849 156.858 135.284 154.007 134.609 151.179C133.273 145.578 131.385 140.129 130.36 134.453C128.348 123.31 128.825 111.709 124.877 100.961C123.235 96.4929 120.891 92.198 117.705 88.6483C117.937 87.9389 118.164 87.2281 118.385 86.5144C118.772 85.273 119.167 83.9916 119.405 82.713C119.41 82.6787 119.418 82.6429 119.422 82.6072C120.778 82.0208 122.012 80.9153 122.223 79.445C122.314 78.81 122.208 78.1064 121.935 77.4928C122.494 76.9751 122.853 76.3029 122.767 75.4019C122.608 73.7057 120.633 73.2693 119.258 72.9377C117.695 72.5615 116.074 72.4571 114.475 72.6345C113.668 72.7231 112.869 72.8719 112.089 73.095C111.412 73.288 110.674 73.4868 110.131 73.9531C110.067 74.0074 110.12 74.1133 110.197 74.1133C111.296 74.1091 112.391 73.7042 113.502 73.6512C114.666 73.597 115.827 73.6928 116.968 73.9331C118.083 74.1676 119.195 74.5109 120.209 75.0415C120.494 75.1916 120.912 75.2932 120.577 75.5964C120.332 75.8181 119.85 75.8368 119.535 75.8695C118.837 75.9425 118.235 76.3515 118.147 77.0981C118.069 77.7574 118.461 78.504 119.159 78.6527C119.198 78.6614 119.234 78.6713 119.265 78.6842C119.284 78.7199 119.312 78.7499 119.309 78.7013C119.309 78.7013 119.311 78.6999 119.311 78.7013C119.328 78.8057 119.333 78.8471 119.333 78.8543C119.329 78.8458 119.322 78.81 119.316 78.7814C119.321 78.8072 119.329 78.8486 119.341 78.9101C119.325 78.8429 119.338 79.0075 119.325 79.0331C118.954 79.7196 117.857 79.9128 117.219 80.2087C117.095 80.2658 116.988 80.3332 116.896 80.4088C116.745 80.356 116.591 80.3031 116.436 80.2445C115.67 79.957 114.906 79.6781 114.13 79.4191C112.632 78.9173 111.117 78.4696 109.619 77.9662C106.784 77.0137 104.043 75.8109 101.261 74.7211C101.173 74.3922 101.07 74.0704 100.949 73.7572C100.924 73.6915 100.808 73.6699 100.795 73.7572C100.752 74.0346 100.718 74.3135 100.689 74.5938C100.678 74.6196 100.675 74.6482 100.681 74.6753C100.52 76.3057 100.562 77.9748 100.48 79.6038C100.377 81.6346 100.09 83.6512 100.009 85.6835V85.7207C99.7095 87.4555 99.4386 89.1961 99.1933 90.9423C98.918 90.8565 98.6029 90.8737 98.2806 91.0467C96.0018 92.2667 93.4406 92.946 90.8637 93.0976C89.566 93.1733 88.2811 93.1306 86.9905 92.9803C86.142 92.8831 85.3063 92.7057 84.4692 92.537C84.9099 90.6849 85.3833 88.8414 85.9181 87.0166C86.3588 85.5162 86.8493 84.0231 87.4554 82.58C88.0672 81.1226 88.8287 79.7311 89.5374 78.318C89.864 77.6644 89.479 76.6647 88.6305 76.7334C88.3795 76.7534 88.1285 76.7691 87.8761 76.7806C85.4204 76.898 82.8664 76.6234 80.4421 76.3787C77.6826 76.0984 74.8861 75.8079 72.151 75.3518C71.9485 75.3189 71.8658 75.5949 72.0654 75.6622C73.3631 76.0998 74.6451 76.5945 75.9756 76.9222C77.3447 77.2611 78.7222 77.57 80.1112 77.8117C81.4417 78.0421 82.7779 78.2351 84.1184 78.3981C84.9926 78.5054 85.8768 78.5597 86.7566 78.6312C85.5716 80.5305 84.7545 82.6728 84.0429 84.7823C83.1287 87.4913 82.4571 90.2787 81.7997 93.0604C80.3936 99.0229 79.2342 105.045 78.3272 111.105C77.6769 115.45 77.1507 119.812 76.7557 124.186C76.6388 122.857 76.4962 121.533 76.335 120.21C75.796 115.817 75.0088 111.454 73.9564 107.156C74.0505 106.99 74.0947 106.792 74.0633 106.599C73.8736 105.417 73.3745 104.389 72.9367 103.293C72.5018 101.763 72.0326 100.243 71.5278 98.734C70.9545 96.6788 70.3114 94.6551 69.4885 92.6786C68.8596 91.1726 68.1423 89.7051 67.3437 88.2822C66.3897 86.2928 65.3415 84.3464 64.1907 82.4856C64.1308 82.3125 64.0339 82.1509 63.8955 82.0151C63.6859 81.6833 63.4734 81.3558 63.2567 81.0311C63.1155 80.8194 62.7105 80.9481 62.8174 81.217C62.8673 81.343 62.9173 81.4687 62.9686 81.5933C58.2811 80.4175 53.685 82.2153 49.22 83.5425C48.0934 83.8786 46.9554 84.1818 45.8003 84.4006C44.8919 84.5722 43.8338 84.7811 42.9282 84.5921C42.3221 84.4664 42.054 84.1904 42.3492 83.5411C42.6544 82.869 43.4872 82.427 44.2102 82.1296C44.4826 82.0708 44.7507 81.9664 45.0088 81.8091C45.6106 81.443 45.8745 80.6793 45.5907 80.0285C45.3326 79.4407 44.5796 78.9344 43.9136 79.2033C43.8181 79.2419 43.724 79.2791 43.6298 79.3163C43.6199 79.302 43.6084 79.282 43.5985 79.2534C43.5029 78.9916 43.4616 79.305 43.5029 78.9301C43.5714 78.318 44.2174 77.7617 44.6595 77.4113C45.7589 76.5374 47.3476 75.891 48.7665 76.2214C48.8734 76.2457 48.9804 76.2757 49.0859 76.3129C50.5476 76.8206 51.2592 74.7097 50.0913 73.9231C50.02 73.8759 49.9302 73.8158 49.8318 73.7457C49.3455 73.4068 48.6339 72.8361 48.8278 72.3214C49.0674 71.6819 50.4806 71.3144 51.0154 71.097C52.9491 70.3104 55.0383 69.8642 57.1232 69.7726C59.2209 69.6811 61.3457 69.9128 63.3693 70.4804C64.3618 70.758 65.3815 71.1799 66.3198 71.6063C67.1626 71.988 68.9965 72.4929 69.1135 73.5626C69.1391 73.7988 69.4743 73.8787 69.547 73.6213C70.1217 71.5675 67.8913 70.2417 66.4196 69.3936C65.4542 68.8357 64.359 68.4883 63.2994 68.1465C62.2841 67.8176 61.2473 67.5759 60.1892 67.4298C57.9175 67.1182 55.6187 67.1583 53.3655 67.5959C51.3134 67.9951 49.0303 68.6757 47.3718 70C46.3536 70.8124 45.893 72.1053 46.3023 73.3667C46.3165 73.4082 46.3308 73.4511 46.345 73.4926C44.5126 73.8215 42.7785 74.8741 41.6191 76.3415C40.6665 77.5472 40.1674 79.2248 41.0202 80.6279C40.9845 80.6535 40.9489 80.6807 40.9146 80.7093C40.1018 81.3615 39.4971 82.3084 39.3174 83.3437C38.9652 85.386 40.1959 86.8148 41.9171 87.3611C41.4908 87.7789 41.0815 88.2221 40.6808 88.6655C39.7838 89.6594 38.9267 90.7419 38.1709 91.8462C36.6393 94.083 35.3302 96.5186 34.1851 98.9728C31.8306 104.013 30.3461 109.438 29.5589 114.938C29.1625 117.71 28.8973 120.496 28.796 123.293C28.6791 126.483 28.7974 129.673 28.7361 132.864C28.6762 135.93 28.3382 138.922 27.6552 141.912C27.0006 144.77 26.1278 147.572 25.3378 150.394C24.4465 153.572 23.4654 156.735 22.9948 160.012C22.7567 161.679 22.5855 163.351 22.7181 165.038C22.8522 166.755 23.474 168.224 24.0472 169.822C24.1927 170.229 24.6362 170.394 24.9913 170.306C25.0711 171.072 25.3592 171.818 25.7884 172.465C26.6997 173.835 28.1029 174.709 29.7101 175.026C31.5212 175.382 33.3879 175.298 35.2218 175.232C37.2112 175.16 39.2019 175.096 41.1913 175.013C43.274 174.927 45.3566 174.838 47.4394 174.749C47.3705 172.608 47.2884 170.468 47.1956 168.328C46.6934 156.76 45.9027 145.186 45.8817 133.602C45.8414 133.579 45.8017 133.551 45.7638 133.514C44.8262 132.605 43.675 132.008 42.5935 131.296C41.9815 130.894 42.5536 129.904 43.1694 130.309C44.0812 130.908 45.0314 131.441 45.8859 132.113C45.8909 130.907 45.9014 129.702 45.9252 128.496C45.9398 127.759 47.0806 127.759 47.0661 128.496C46.9945 132.13 47.0184 135.765 47.1004 139.399C47.3658 151.175 48.2001 162.929 48.58 174.7C54.1701 174.461 59.7605 174.219 65.3515 174.015C69.8992 173.849 74.4469 173.683 78.9946 173.517C79.9486 173.483 80.4848 172.799 80.6018 171.905C80.8157 170.261 80.4135 168.56 79.5037 167.177C79.4096 167.034 79.2984 166.907 79.1743 166.798C79.1957 165.813 79.2356 164.826 79.18 163.841C79.0973 162.336 78.9732 160.831 78.8648 159.328C78.6452 156.318 78.4755 153.301 78.4085 150.284C78.2716 144.248 78.3714 138.207 78.7122 132.18C79.3953 120.14 80.9854 108.176 83.5879 96.3985C83.7776 95.5404 83.9687 94.6823 84.1669 93.8256C86.1905 94.8796 88.6519 95.2585 90.8637 95.2729C93.6359 95.2901 96.3469 94.6507 98.851 93.4882C98.8339 93.6182 98.8168 93.7469 98.8011 93.8771C98.1023 99.4548 97.5134 105.044 97 110.64C95.9761 121.797 95.3486 133 95.4356 144.207C95.4599 147.312 95.5782 150.407 95.7251 153.507C95.8748 156.661 96.1044 159.993 96.98 163.035C97.077 163.371 97.2923 163.564 97.5405 163.635C97.5533 164.078 97.5818 164.523 97.6132 164.96C97.7144 166.383 98.0039 169.34 98.6228 170.629C99.2261 171.888 100.231 172.886 101.513 173.436C103.142 174.132 104.903 173.932 106.623 173.82C114.101 173.331 121.574 172.676 129.048 172.101C130.089 172.021 131.13 171.943 132.169 171.861C133.095 171.79 134.052 171.726 134.873 171.245C135.807 170.697 136.536 168.007 136.214 166.894C136.155 166.691 136.067 166.491 135.95 166.31Z" fill="black"/>
<path fill-rule="evenodd" clip-rule="evenodd" d="M112.741 45.9441C112.685 42.7402 112.622 39.4722 112.147 36.2995C111.683 33.1977 110.405 30.394 108.21 28.1416C103.548 23.3572 96.7902 22.1885 90.4996 21.1176L79.7444 19.2865C76.4632 18.7281 72.9626 17.8353 69.6475 18.6274C68.0139 19.0177 66.6267 19.9244 65.3588 20.9972C64.1366 22.0312 62.8227 23.1416 61.9946 24.5328C61.165 25.9259 60.8797 27.5545 60.61 29.1301C60.3058 30.9066 60.0695 32.6969 59.9017 34.4915C59.5653 38.087 59.5193 41.7095 59.7633 45.3124C59.8816 47.06 60.0697 48.8025 60.3098 50.5373C60.4289 51.3976 60.5635 52.2557 60.7155 53.1108C60.7603 53.363 60.7944 53.6421 60.8403 53.9242C60.501 54.8918 60.3082 55.894 60.3238 56.8918C60.3696 59.8311 62.8433 61.6817 65.3372 62.6752C66.7833 63.2513 68.295 63.6427 69.7158 64.2863C71.2104 64.9632 72.2278 66.0606 73.2497 67.3125C75.1987 69.7 77.3981 71.8459 79.9095 73.6362C85.2341 77.4321 91.9782 79.2274 98.4388 77.8647C99.989 77.5378 101.553 77.03 102.946 76.265C104.417 75.4574 105.523 74.2871 106.452 72.9034C108.177 70.3346 109.414 67.442 110.35 64.4986C111.304 61.496 111.982 58.488 112.351 55.3572C112.72 52.2365 112.797 49.0841 112.741 45.9441Z" fill="white"/>
<path fill-rule="evenodd" clip-rule="evenodd" d="M78.4236 8.12591C82.8744 7.51193 89.0174 9.50748 91.2339 13.5312C101.816 11.0292 115.163 10.9472 123.885 19.2762C132.986 29.1563 121.555 42.1832 113.975 45.1202C114.527 47.81 113.666 65.0416 107.578 72.7279C102.745 79.2404 91.4929 82.2459 86.2859 74.4673L86.2453 74.4031C85.6874 73.5047 86.1679 73.5336 86.7405 74.2018C91.8393 78.6986 98.7717 78.7754 104.114 74.0298C114.126 65.3557 113.094 44.0873 108.329 31.7833C94.7634 30.289 80.2384 34.4127 70.8685 44.6541L71.5021 48.4796C71.6101 49.1313 71.7327 49.7825 71.8263 50.4365C71.8862 50.8555 71.8929 51.2723 71.6034 51.6115C70.6475 52.7314 69.0365 51.0486 67.711 50.3793C67.3197 50.3241 66.9276 50.3028 66.5432 50.33C60.1747 51.1526 61.4295 63.5423 68.4288 61.3706C69.0169 61.0032 69.5222 61.1153 69.7504 61.6485C71.4187 63.1811 72.5188 65.9144 75.2906 68.5471C76.2686 69.5347 77.1586 70.3609 78.2586 71.1531C78.9048 71.8084 80.8545 72.4766 80.2364 73.598C79.0676 76.1497 72.1754 68.1342 70.9568 65.9176C67.1388 67.4296 62.9077 66.916 58.9511 66.5464C38.0779 65.4581 40.8645 43.3917 57.9737 29.4601C61.1943 27.0822 64.7476 25.1425 68.4412 23.6498C68.9455 23.446 68.7252 22.6156 68.2138 22.8223C65.7698 23.8101 63.3873 24.9858 61.1162 26.3467L61.1127 25.5331C61.1094 24.1628 61.1308 22.7362 61.3681 21.4842C61.4868 20.6166 61.6863 19.69 61.9935 18.9929C62.3732 16.8558 68.322 9.52006 78.4236 8.12591ZM66.2628 53.1744C66.5851 52.8674 67.1868 53.2335 67.4737 53.2243C68.2074 53.325 68.9044 53.6358 69.4481 54.0194C69.807 54.221 70.0586 54.4104 70.2688 54.5846L70.2745 54.583C70.2729 54.583 70.2709 54.5846 70.2692 54.585L70.289 54.5984C70.595 54.8165 71.7155 56.0449 71.0076 55.7146C70.9548 55.6458 70.9008 55.5797 70.8463 55.5149C70.8405 55.5238 70.8323 55.5325 70.8226 55.541L70.8624 55.6001C71.464 56.5078 70.4253 55.5515 70.2655 55.2975C70.2579 55.3037 70.2494 55.3078 70.2409 55.3123L70.4491 55.5663C70.4782 55.6024 70.501 55.6312 70.52 55.6555L70.5639 55.698C71.2595 56.3837 71.2813 57.0009 70.4731 55.987C70.5049 56.0348 70.5304 56.0854 70.534 56.1303L70.5819 56.1916C71.2164 57.0116 70.7003 56.7204 70.385 56.3702L70.3586 56.34L70.364 56.3482C70.6573 56.8014 70.0753 56.4834 69.9725 56.241L69.9681 56.23C69.8561 56.1383 69.7871 56.0354 69.7635 56.0094L69.7591 56.0051C69.2135 55.4444 68.4226 54.97 67.7508 54.7545C67.6534 54.7359 67.5548 54.721 67.4553 54.7105C67.0513 54.6201 66.6429 54.5581 66.2302 54.5247C66.1797 54.5187 66.1285 54.4815 66.0903 54.4334C65.4662 54.4123 65.6588 54.1558 65.9178 54.1081L65.9223 54.1074L65.8709 54.103C65.4704 54.0638 65.1969 53.9197 65.6019 53.8312L65.6532 53.821C65.6469 53.8111 65.6413 53.8013 65.6359 53.7914C65.2891 53.7532 65.5154 53.4151 65.7079 53.4969C65.6269 53.2313 65.9971 53.3639 66.0433 53.3245C66.0786 53.2853 66.1224 53.2507 66.1476 53.2488C66.2591 53.1699 66.2051 53.177 66.2628 53.1744ZM68.388 48.8745L68.3067 48.9221C68.2409 48.9606 68.1733 48.9862 68.1055 49.0012C68.2013 49.0421 68.296 49.0863 68.3897 49.1335C68.3882 49.0758 68.3871 49.0182 68.3871 48.9607L68.388 48.8745Z" fill="black"/>
<path fill-rule="evenodd" clip-rule="evenodd" d="M96.6275 66.5009C95.6689 66.1087 94.8135 65.4544 94.1882 64.6187C93.9708 64.3282 93.9144 64.0214 93.96 63.7408C94.0113 63.4252 94.1974 63.1393 94.4513 62.9475C94.7059 62.755 95.0244 62.6601 95.3323 62.7085C95.5999 62.7506 95.8662 62.8975 96.077 63.2022L96.1211 63.2631C96.4929 63.7676 96.9773 64.1814 97.5293 64.4482C98.0614 64.7053 98.6564 64.8253 99.2722 64.7555C100.445 64.6227 101.253 63.9866 102.112 63.1228C102.219 63.0137 102.325 62.9013 102.433 62.787C102.5 62.6834 102.594 62.6168 102.698 62.5819C102.814 62.5431 102.945 62.5453 103.065 62.5872C103.18 62.6277 103.284 62.7044 103.353 62.8064C103.419 62.9034 103.456 63.0232 103.444 63.161C103.365 64.0562 102.899 64.8551 102.236 65.4824C101.5 66.1791 100.524 66.6611 99.605 66.8302C98.5928 67.0164 97.5614 66.883 96.6275 66.5009ZM100.083 52.6911C101.16 53.3476 102.801 54.8783 101.642 56.5058C100.279 57.9408 98.3154 56.2955 97.3479 55.5514C96.4508 54.9747 95.4428 56.4579 96.2752 57.1313C103.266 62.3222 106.103 52.8628 100.628 51.9193C100.025 51.8153 99.8009 52.488 100.083 52.6911ZM87.555 46.6528C87.674 45.1717 89.9233 44.8354 90.147 46.301C90.3474 47.6139 90.1115 48.82 89.5218 50.0021C88.9584 51.1313 87.5422 50.6045 87.4351 49.5762C87.2916 48.1978 87.481 47.5742 87.555 46.6528ZM104.675 45.9972C104.989 45.5853 105.441 45.3041 105.984 45.463C107.679 45.9597 107.179 48.3729 106.584 49.5475C106.261 50.1854 105.215 50.3471 104.743 49.7855C103.973 48.8696 103.604 47.0405 104.583 46.1384C104.609 46.0917 104.639 46.0447 104.675 45.9972ZM89.4971 40.1718L89.7648 40.1248C90.5931 39.9811 91.6229 39.8431 92.2088 40.5109C92.5195 40.865 92.6265 41.5232 92.2088 41.8621C91.4741 42.4585 90.6618 42.2274 89.7813 42.2779C89.0558 42.3196 88.3584 42.4401 87.6595 42.6404C86.1262 43.0799 84.8768 43.8823 83.5673 44.7633C83.3955 44.8788 83.2201 44.6584 83.302 44.4972C84.058 43.0123 85.523 41.7925 86.9904 41.0489C87.7736 40.652 88.6307 40.3228 89.4971 40.1718ZM103.132 39.5066L103.337 39.5486C105.567 40.0161 108.464 40.9499 109.52 43.1466C109.56 43.4572 109.518 43.5238 109.483 43.5673L109.472 43.5818C109.443 43.6189 109.421 43.6701 109.286 43.7124C109.249 43.7035 109.211 43.6941 109.173 43.6841C108.689 43.5569 108.306 43.3816 107.936 43.1997L107.534 43.0011C107.067 42.7718 106.597 42.5508 106.098 42.3876C105.034 42.0395 103.939 41.7943 102.828 41.6634C102.587 41.635 102.355 41.5535 102.172 41.4137C101.998 41.281 101.866 41.0974 101.805 40.8533C101.727 40.5373 101.749 40.2981 101.918 40.0131C102.045 39.7991 102.227 39.6507 102.436 39.5655C102.649 39.4787 102.891 39.4582 103.132 39.5066Z" fill="black"/>
<path fill-rule="evenodd" clip-rule="evenodd" d="M114.124 55.6428C113.652 55.0065 112.802 54.1715 111.943 54.2164C111.833 54.2221 111.792 54.3415 111.858 54.4223C112.139 54.7666 112.523 55.0114 112.804 55.3628C113.138 55.7787 113.378 56.2803 113.535 56.7876C113.762 57.5245 113.825 58.3586 113.622 59.108C113.265 60.429 112.136 61.3972 110.904 61.8916C109.685 62.381 108.218 62.5482 107.065 61.8311C105.363 60.7725 103.919 59.2465 101.78 59.2163C101.279 59.2093 100.927 59.4391 100.717 59.7672C100.506 59.4509 100.157 59.227 99.6695 59.2215C97.2713 59.1944 95.4813 60.8502 93.4685 61.8823C92.1081 62.58 90.348 62.3634 88.9446 61.9025C87.6208 61.4679 86.1837 60.595 85.6843 59.2167C85.4087 58.4556 85.4704 57.5669 85.7535 56.8166C85.9396 56.3232 86.2269 55.8465 86.5825 55.4588C86.9511 55.0566 87.4357 54.8037 87.8133 54.4225C87.8904 54.3445 87.8295 54.2234 87.7282 54.2164C86.1244 54.1072 84.6762 56.0277 84.3735 57.421C84.0753 58.7931 84.52 60.1617 85.4199 61.2087C87.25 63.3374 90.6386 64.0395 93.2759 63.4139C95.4106 62.9078 97.438 61.7419 99.6695 61.9092C100.159 61.946 100.51 61.7415 100.722 61.4314C100.934 61.7505 101.287 61.9591 101.78 61.9114C103.86 61.7093 105.716 63.1864 107.735 63.5471C109.342 63.8341 111.078 63.447 112.455 62.5785C113.895 61.6708 114.908 60.2147 114.975 58.4788C115.013 57.4801 114.721 56.4467 114.124 55.6428Z" fill="black"/>
</svg>
