<svg width="246" height="246" viewBox="0 0 246 246" fill="none" xmlns="http://www.w3.org/2000/svg">
<path d="M58.8667 201.193C31.6213 162.302 108.945 90.8694 108.945 90.8694C108.945 90.8694 207.847 112.457 202.325 165.171C199.184 195.154 160.278 213.744 155.133 215.878C149.987 218.011 80.9504 232.716 58.8667 201.193Z" fill="white"/>
<path d="M107.439 88.3592L105.933 75.3061L90.3695 65.2653L91.8756 41.1673L103.925 21.0857L120.994 24.6L129.027 37.151L155.635 24.6L164.672 26.1061L171.198 35.6449L181.239 39.1592V52.7143C168.353 61.4163 141.879 79.222 139.067 80.8286C136.256 82.4351 133.21 91.5388 132.039 95.8898L107.439 88.3592Z" fill="white"/>
<path fill-rule="evenodd" clip-rule="evenodd" d="M110.661 94.7702C112.761 94.3541 119.321 97.7625 121.619 98.8723C129.05 102.479 150.056 107.017 158.716 110.683C170.368 115.637 189.432 128.32 193.792 140.725C200.41 159.531 198.052 174.176 183.487 188.146C180.97 190.584 178.216 194.428 175.739 196.489C167.217 203.603 153.92 209.608 143.299 213.076C126.692 218.525 103.923 218.842 86.9599 214.899C83.3533 214.067 67.1631 206.893 65.1021 204.277C57.4529 194.607 60.0885 165.932 69.977 152.021C72.1767 148.909 74.4358 145.679 76.6751 142.588L91.5772 124.733C93.9552 121.661 95.6594 118.61 98.295 115.36C101.525 111.377 99.1075 113.378 105.29 106.244C108.54 102.499 108.402 97.3266 110.661 94.7702ZM133.113 82.583C131.765 86.0112 129.209 92.3526 124.968 92.5904C124.948 92.5904 107.886 90.0737 108.402 82.2065C109.016 73.2295 113.99 77.9062 119.241 76.8361C123.026 76.0633 123.541 76.1624 127.723 76.0435L133.113 82.583ZM93.9156 64.7678C94.1732 62.2709 94.9064 61.9538 95.3424 59.1795C96.135 53.9677 94.9857 46.6752 97.2646 41.3247C99.9002 35.1617 102.199 29.6923 109.333 26.6405C120.965 21.6467 121.996 30.1084 125.107 35.3995C127.584 39.5808 129.605 38.1936 128.218 51.0348C128.099 52.0059 127.743 53.3336 127.683 53.7695C127.307 57.0789 127.544 55.0576 128.337 56.0485L130.893 54.9189L131.726 41.721C135.768 40.1555 136.066 38.4116 138.82 36.4101C141.575 34.4285 143.675 33.6358 146.41 32.1694C166.445 21.4287 164.285 29.8112 165.612 33.9331C166.286 35.9742 167.257 36.9848 167.911 38.6296C163.175 43.2073 151.384 50.1431 151.265 55.0378C154.594 54.7009 153.861 54.3046 155.803 52.1644L169.635 41.4634C174.173 43.663 172.072 43.4649 178.513 41.9192C178.414 47.5273 175.342 51.6492 171.201 54.5622C167.336 57.2771 164.344 59.992 160.044 61.9935C144.567 69.2067 147.163 68.2952 138.582 78.4215C131.983 75.6471 131.607 72.8926 122.471 71.6244C119.162 71.1686 115.853 69.9994 113.138 69.6031C109.313 69.0284 107.53 71.3271 104.379 72.2585C101.01 70.3363 96.3728 67.8394 93.9156 64.7678ZM103.11 77.7675C106.935 90.3115 103.844 92.7291 95.9963 101.865C90.4675 108.305 85.9294 115.062 80.1033 121.285C68.5304 133.631 56.6999 147.562 52.7563 164.406C47.7427 185.808 52.2015 200.789 69.2438 214.423C87.0194 228.652 102.417 229.187 124.314 228.037C166.563 225.798 219.553 193.477 204.572 148.949C203.581 146.016 202.788 144.669 201.897 142.271C198.409 132.997 193.792 128.577 186.935 122.137L177.463 114.27C173.995 111.872 170.606 109.375 166.623 107.175C154.574 100.497 143.893 97.9211 143.021 97.4058C141.852 96.7122 142.625 97.2275 141.594 96.1376C142.506 93.3434 143.576 91.6986 144.19 88.4487C145.043 84.089 143.774 83.9305 140.841 81.6516L141.694 80.9778C142.03 80.7995 142.625 80.6211 142.764 80.5815C147.044 79.3132 151.285 74.4185 157.626 72.4566C162.085 71.0695 163.333 72.4765 168.05 69.2464L175.699 63.3212C186.281 57.7725 189.729 44.3764 181.604 38.2927C178.77 36.1723 174.768 35.6175 172.37 33.6754C172.35 33.6556 172.191 27.3737 165.791 23.8266C150.452 15.3252 144.825 25.0156 130.537 33.1998C128.416 31.4758 128.436 29.831 126.99 27.9088L119.657 21.726C115.714 20.0218 116.071 18.8129 109.412 17.8023C98.731 16.1971 94.0939 23.3906 90.3089 26.264C84.6414 30.5246 82.7191 38.372 81.7283 44.8719C79.5881 58.9813 91.4385 71.228 103.11 77.7675Z" fill="black"/>
<path fill-rule="evenodd" clip-rule="evenodd" d="M127.028 163.654C127.186 163.555 127.404 163.456 127.563 163.396C127.701 163.337 127.919 163.238 128.078 163.159L134.34 161.197L139.829 176.158C137.59 178.14 134.498 179.686 131.605 179.924C130.198 173.681 127.483 170.194 127.028 163.654ZM138.184 160.563C141.712 157.907 146.428 157.392 150.847 158.086C151.025 163.079 148.251 172.671 142.901 173.364L138.184 160.563ZM121.182 154.36C116.584 155.093 103.485 158.66 102.594 152.458C102.197 149.782 104.991 145.621 106.696 143.56C109.549 140.132 110.56 140.152 114.503 138.606C115.613 140.27 120.964 152.378 121.182 154.36ZM116.901 137.139C119.398 135.673 121.558 135.316 124.511 135.098L130.694 151.962L122.945 153.746C121.499 149.584 116.584 140.786 116.901 137.139ZM113.631 188.247C114.781 188.96 114.563 188.782 115.494 188.92C119.002 189.396 129.921 186.007 132.16 187.434C133.646 189.416 134.974 194.449 137.53 194.826C137.53 193.26 135.113 189.059 134.597 186.265L142.167 182.302C144.545 185.373 146.289 194.132 149.936 194.132C152.214 191.457 147.003 189.039 145.952 180.122C148.311 179.21 150.788 176.495 152.65 174.652C154.969 172.334 155.96 169.619 158.021 167.994C158.893 160.781 157.763 157.987 151.798 153.528C145.635 148.891 140.721 151.388 134.379 150.615L127.424 133.196C130.119 131.452 131.665 130.858 134.181 128.955C139.671 124.794 139.908 126.973 140.82 124.734C136.183 121.881 129.524 126.557 124.768 127.291C120.448 118.67 122.371 116.788 117.535 116.946L121.221 127.687L112.898 130.085C112.324 127.033 110.857 123.149 108.182 121.603C108.42 125.051 110.619 127.528 111.115 131.829C103.426 134.266 95.9748 146.592 99.4625 154.519C104.674 166.369 119.676 162.762 124.63 164.05L130.218 180.994L121.261 182.956C121.201 182.975 118.169 187.593 113.631 188.247Z" fill="black"/>
<path fill-rule="evenodd" clip-rule="evenodd" d="M74.2194 200.332C73.5655 197.518 72.0594 196.29 71.1875 193.218C70.8506 192.009 69.404 186.183 69.3842 185.371C69.1067 177.821 73.0304 162.383 76.0822 155.665C78.3809 150.592 81.1751 148.67 83.7116 144.905L82.7406 143.498C75.8246 144.707 70.0381 163.017 68.5915 169.081C65.7379 181.15 64.4498 190.503 71.782 200.669L74.2194 200.332Z" fill="black"/>
<path fill-rule="evenodd" clip-rule="evenodd" d="M189.855 163.039C186.447 160.046 183.375 163.296 179.729 160.839C179.313 158.6 180.7 156.717 182.285 155.35C185.079 152.932 186.229 154.28 189.36 154.478C189.439 149.96 185.931 149.94 183.098 151.466C179.907 153.15 178.837 154.26 177.073 157.549C172.872 165.516 185.852 164.624 185.852 164.624C188.547 164.981 188.745 165.674 189.855 163.039Z" fill="black"/>
<path fill-rule="evenodd" clip-rule="evenodd" d="M73.9859 182.361C78.2267 183.451 75.4127 181.033 77.5926 169.579C78.1078 166.805 81.7937 161.375 81.1397 159.254C81.1397 159.254 80.2678 158.482 78.7617 159.552C77.0773 160.741 75.7496 166.587 75.0362 168.747C74.0256 171.798 72.0835 179.705 73.9859 182.361Z" fill="black"/>
<path fill-rule="evenodd" clip-rule="evenodd" d="M78.1408 190.584C76.4961 192.308 76.7933 193.14 78.2399 194.884C81.371 194.646 80.0829 191.436 78.1408 190.584Z" fill="black"/>
<path fill-rule="evenodd" clip-rule="evenodd" d="M160.06 34.2113C159.148 36.4703 159.564 35.0237 160.079 36.3316C161.724 37.0252 161.387 37.2432 163.012 35.8957C163.111 33.4186 162.18 33.1808 160.06 34.2113Z" fill="black"/>
<path fill-rule="evenodd" clip-rule="evenodd" d="M186.239 168.151C185.208 170.529 187.428 171.322 189.192 169.856C188.934 167.577 188.221 166.962 186.239 168.151Z" fill="black"/>
<path fill-rule="evenodd" clip-rule="evenodd" d="M180.869 167.399C181.662 169.401 182.019 169.52 183.822 168.648C184.397 166.924 184.099 167.478 182.712 165.854C180.532 167.003 181.622 165.854 180.869 167.399Z" fill="black"/>
<path fill-rule="evenodd" clip-rule="evenodd" d="M182.418 177.306L184.895 177.148L184.915 174.453C182.16 174.195 181.883 174.592 182.418 177.306Z" fill="black"/>
<path fill-rule="evenodd" clip-rule="evenodd" d="M76.6172 185.708C73.8428 186.798 73.9419 189.672 77.2513 188.423C78.1232 186.342 78.0638 187.155 76.6172 185.708Z" fill="black"/>
<path fill-rule="evenodd" clip-rule="evenodd" d="M156.914 38.4708C156.042 40.4921 156.082 40.0958 157.251 41.6613C159.292 40.3732 159.887 38.1538 156.914 38.4708Z" fill="black"/>
</svg>
