<svg width="25" height="24" viewBox="0 0 25 24" fill="none" xmlns="http://www.w3.org/2000/svg">
<g clip-path="url(#clip0_1742_357622)">
<path fill-rule="evenodd" clip-rule="evenodd" d="M3.08514 3.81385C3.79237 9.16855 5.41005 14.2012 8.58661 18.6824C5.16417 14.2882 3.59042 9.24017 3.08514 3.81385ZM2.34582 1.69291C2.27986 3.1823 2.48274 4.74521 2.72746 6.30546C3.2708 9.7712 4.37705 13.0543 6.06801 16.1469C7.24969 18.3082 8.69035 20.2433 10.8076 21.6364C11.486 22.0827 12.1203 22.0824 12.8131 21.816C13.2015 21.6668 13.3892 21.1096 13.0892 20.9532C12.3281 20.5567 12.051 19.7971 11.5942 19.1804C10.209 17.3108 8.88444 15.4035 7.89809 13.2877C6.70033 10.7189 5.93027 8.02814 5.41566 5.26009C5.1741 3.96057 4.90434 2.66515 4.76526 1.34899C4.74706 1.17603 4.51799 1.04195 4.65224 0.827409C4.66656 0.804407 4.62314 0.743606 4.60191 0.702654C4.53416 0.5719 3.3286 0.221507 3.19365 0.291949C2.56131 0.621939 2.42896 0.828253 2.34582 1.69291Z" fill="#141414"/>
<path fill-rule="evenodd" clip-rule="evenodd" d="M13.897 14.4231L13.7879 14.494C13.5578 14.149 13.3277 13.804 13.0976 13.459C13.1283 13.4392 13.1589 13.419 13.1896 13.399C13.4254 13.7404 13.6613 14.0817 13.897 14.4231ZM12.6888 12.6783C11.8193 11.257 11.0619 9.7815 10.7059 8.1352C11.2067 9.71764 11.9357 11.2003 12.6888 12.6783ZM15.9926 15.8638C16.2637 15.3057 15.9468 15.0104 15.6303 14.6668C15.3313 14.3421 15.2663 13.865 14.9891 13.4969C14.6474 13.0427 14.2934 12.5504 14.0865 12.0533C13.9281 11.6728 13.5418 11.4459 13.5076 10.9801C13.4802 10.6059 13.3036 10.2084 12.9403 9.96456C12.7884 9.86241 12.8141 9.68508 12.7717 9.53279C12.6628 9.14207 12.5999 8.7229 12.2184 8.46684C12.1598 8.42736 12.0918 8.32889 12.1023 8.27126C12.2046 7.71627 11.7252 7.38627 11.587 6.92505C11.523 6.71135 11.3267 6.61668 11.1041 6.57783C10.9115 6.54408 10.5926 6.39795 10.5549 6.45333C10.3488 6.75747 10.0674 6.99974 10.1288 7.48176C10.344 9.17756 11.0128 10.6972 11.7979 12.1828C12.591 13.683 13.5858 15.0445 14.7039 16.3166C15.1365 16.8087 15.6205 17.2532 16.1833 17.6019C16.5847 17.8508 16.999 17.768 17.4134 17.6519C17.5715 17.6077 17.645 17.4853 17.6568 17.3286C17.668 17.1822 17.5736 17.1017 17.4652 17.019C17.079 16.724 16.5948 16.5159 16.5434 15.926C16.5327 15.8042 16.4229 15.6481 16.2681 15.6238C16.1196 15.6003 16.2272 15.8327 15.9926 15.8638Z" fill="#141414"/>
<path fill-rule="evenodd" clip-rule="evenodd" d="M19.9143 12.6132C20.21 12.8171 20.4684 12.8242 20.594 13.0448C20.6448 13.134 20.7805 13.2461 20.6384 13.3461C20.5234 13.427 20.3893 13.3685 20.3115 13.2575C20.1972 13.0939 20.1006 12.9182 19.9143 12.6132ZM18.961 11.4138C18.3462 10.6014 17.7881 9.75716 17.5845 8.73113C17.9544 9.6718 18.4723 10.5342 18.961 11.4138ZM20.365 11.6254C20.6777 11.4151 20.5648 11.3015 20.4013 11.0417C20.1482 10.6397 19.9266 10.189 19.5809 9.89017C19.1388 9.50799 19.1176 8.90371 18.6973 8.53038C18.339 8.2122 17.7558 8.16728 17.4016 8.40515C17.0947 8.61145 17.2153 8.85228 17.2712 9.08041C17.5653 10.2819 18.2361 11.2818 19.0179 12.2117C19.5831 12.8838 20.251 13.4555 20.9033 14.0413C21.1148 14.2315 21.1922 14.1352 21.2478 13.9156C21.2724 13.8182 21.2419 13.6858 21.4104 13.6234C21.4818 13.7967 21.5517 13.9637 21.6195 14.1314C21.6357 14.1717 21.6693 14.2262 21.6553 14.2544C21.4986 14.5702 21.5379 14.6426 21.976 14.784C21.9674 14.62 21.7771 14.5463 21.8039 14.379C21.9679 14.2368 21.9656 14.6844 22.1525 14.4904C22.3106 14.326 22.2909 14.04 22.2092 13.9679C21.903 13.6974 21.9264 13.2755 21.6837 12.981C21.6097 12.8913 21.7973 12.6422 21.4997 12.6068C21.3359 12.5871 21.2505 12.2459 21.0133 12.481C21.0971 12.2903 20.8803 12.2054 20.8616 12.1015C20.8092 11.8133 20.5921 11.7457 20.365 11.6254Z" fill="#141414"/>
<path fill-rule="evenodd" clip-rule="evenodd" d="M22.2329 15.0483C22.5256 15.0275 22.7812 14.8238 22.8427 15.2204C22.8698 15.3943 23.0366 15.3184 23.1212 15.2152C23.2517 15.0555 23.4182 14.8711 23.3011 14.6701C23.1644 14.4351 22.9925 14.1443 22.7605 14.0543C22.5779 13.9838 22.4304 14.2821 22.4247 14.5095C22.4201 14.6876 22.5078 14.8782 22.2329 15.0483Z" fill="#141414"/>
</g>
<defs>
<clipPath id="clip0_1742_357622">
<rect width="22.5" height="21" fill="white" transform="matrix(0.992598 0.121443 0.121443 -0.992598 0 20.8446)"/>
</clipPath>
</defs>
</svg>
