<svg width="1320" height="255" viewBox="0 0 1320 255" fill="none" xmlns="http://www.w3.org/2000/svg">
<g clip-path="url(#clip0_378_11894)">
<path d="M891.732 240.367C892.448 240.5 892.648 240.525 892.849 240.551C893.134 240.547 893.42 240.543 893.906 240.564C893.37 239.029 894.299 238.13 895.344 237.287C898.961 234.492 903.017 232.406 907.132 230.49C914.88 226.922 922.688 223.525 930.436 219.957C933.075 218.747 935.655 217.368 938.005 215.877C941.033 213.862 941.021 213.005 938.469 210.357C937.86 209.708 937.135 209.004 936.582 208.241C934.456 205.443 934.726 202.382 937.639 200.312C939.392 199.03 941.52 198 943.537 197.199C949.417 194.858 955.621 193.169 961.859 191.851C970.659 189.925 979.519 188.17 988.349 186.329C990.144 185.989 991.879 185.479 993.614 184.968C994.011 184.734 994.578 184.44 995.401 184.057C994.276 183.302 993.467 182.628 992.516 182.098C986.725 178.668 980.545 176.042 974.198 173.762C966.531 170.986 958.671 168.756 950.593 167.272C949.962 167.11 949.276 167.063 948.7 166.785C947.609 166.401 947 165.753 946.954 164.525C946.967 163.467 947.667 162.458 948.835 162.241C949.633 162.058 950.545 161.931 951.461 162.089C953.951 162.367 956.526 162.616 958.99 163.095C971.082 165.664 982.599 169.87 993.454 175.743C995.209 176.66 996.884 177.893 998.614 179.011C998.874 179.208 999.164 179.489 999.424 179.685C1003.39 183.371 1002.83 187.779 997.738 189.652C994.101 191.018 990.315 191.958 986.499 192.812C976.219 195.16 965.82 197.166 955.57 199.598C951.499 200.542 947.55 202.113 943.627 203.483C942.774 203.781 942.011 204.335 941.047 204.863C942.091 205.934 942.875 206.808 943.689 207.768C946.999 211.491 946.937 215.149 943.503 218.741C940.914 221.463 937.711 223.252 934.274 224.644C922.373 229.471 910.412 234.128 898.396 238.9C897.317 239.373 896.264 239.645 894.899 240.122C895.683 240.996 896.536 240.698 897.222 240.745C903.05 240.719 908.912 241.063 914.696 242.009C915.728 242.223 916.789 242.522 918.136 242.817C917.01 243.976 915.986 244.333 914.903 244.52C910.627 245.153 906.325 245.986 902.075 246.418C897.824 246.85 893.565 246.712 889.311 246.858C888.369 246.9 887.397 246.857 886.565 246.669C884.157 246.075 883.127 243.947 884.036 241.62C884.173 241.19 884.424 240.815 884.676 240.44C887.279 236.66 889.852 232.795 892.57 229.07C893.41 227.915 894.481 226.872 895.496 225.943C896.004 225.478 896.626 225.07 897.308 224.831C898.302 224.388 899.304 224.517 900.088 225.391C900.872 226.266 900.828 227.238 900.299 228.188C899.936 228.793 899.459 229.343 899.011 229.978C896.685 233.182 894.334 236.587 891.732 240.367Z" fill="#FFB77A"/>
</g>
<path fill-rule="evenodd" clip-rule="evenodd" d="M1138.36 77.0995C1133.28 77.3497 1125.37 79.524 1124.97 80.9136C1124.35 83.0835 1125.68 91.2185 1123.46 95.6003C1122.51 97.4682 1118.92 97.3007 1117.53 97.909C1112.87 99.9444 1099.07 103.805 1096.23 108.665C1095.09 110.613 1088.08 134.775 1084.36 147.102C1083.94 148.492 1083.47 149.777 1082.95 150.968L1082.76 150.043C1081.25 142.592 1080.49 138.082 1080.49 136.512C1080.49 134.058 1082.45 123.707 1080.49 121.074C1078.54 118.468 1073.86 116.337 1071.76 116.295L1071.7 116.294C1070.31 116.294 1069.11 115.863 1068.1 115.001L1066.61 114.253C1059.02 110.456 1054.59 108.374 1053.32 108.005C1051.28 107.417 1047.81 108.67 1049.54 110.551C1050.7 111.805 1053.61 114.023 1058.26 117.206L1060.02 118.597L1059.81 118.708C1057.54 119.9 1056.2 120.903 1055.8 121.717C1055.39 122.557 1055.59 123.55 1056.4 124.696L1056.27 124.815C1055.25 125.814 1054.74 126.484 1054.74 126.825V128.491C1053.73 129.974 1053.48 131.21 1053.98 132.201C1054.49 133.191 1055.29 134.049 1056.4 134.775C1057.21 136.905 1058.17 138.421 1059.3 139.323C1060.42 140.225 1062.36 140.976 1065.11 141.576L1067.6 147.523L1069.62 155.879L1070.64 165.202L1070.35 165.416C1068.98 166.411 1068.1 167.149 1068.1 167.912C1068.1 169.1 1073.62 197.038 1082.22 198.289C1084.08 198.559 1093.73 197.233 1096.9 194.662L1096.85 194.94C1096.1 199.43 1096.26 201.762 1097.32 201.936C1110.35 204.067 1147.36 204.726 1208.35 203.912C1208.71 171.613 1207.07 150.103 1203.43 139.381C1194.11 111.959 1183.83 102.593 1180.24 101.791C1177.09 101.088 1166.17 96.7513 1163.11 95.6003C1161.12 94.8489 1160.7 92.5962 1158.42 92.5962L1158.24 92.5971C1156.04 92.6191 1154.1 93.011 1153 91.8841C1150.13 88.9267 1150.93 84.8332 1149.74 80.9136C1149.09 78.754 1144.6 76.7923 1138.36 77.0995Z" fill="white"/>
<path fill-rule="evenodd" clip-rule="evenodd" d="M1152.32 84.8431C1152.03 84.2533 1151.23 84.3297 1150.71 84.5973C1149.14 85.7406 1150.78 87.9566 1151.22 89.3518C1152.33 92.058 1154.27 94.7026 1156.94 95.9674C1156.72 98.6575 1156.47 101.342 1156.38 104.04C1152.96 108.272 1147.2 109.816 1142.08 111.004C1134.04 113.221 1124.97 108.678 1122.26 100.751C1125.35 99.0012 1126.35 94.4187 1125.42 91.2216C1125.34 90.997 1125 90.8978 1124.87 91.1485C1124.03 92.8833 1124.14 94.9998 1123.18 96.7138C1113.95 97.5949 1102.05 101.068 1096.01 108.511C1093.33 112.235 1092.27 117.078 1090.95 121.394C1088.13 130.291 1085.89 139.369 1083.13 148.276L1082.81 146.591C1081.91 141.948 1081.1 137.243 1081.71 132.522L1081.72 132.296C1081.91 128.539 1083.09 121.559 1080.17 119.022C1077.53 117.009 1073.7 115.39 1070.39 116.319C1064.49 113.7 1059.4 109.29 1053.12 107.573C1051.19 107.176 1048.41 107.646 1048.86 110.262C1050.13 114.839 1055.43 116.616 1059.06 118.976C1056.73 119.604 1053.9 122.424 1055.72 124.883C1055.73 124.926 1055.75 124.959 1055.76 124.985C1054.29 125.637 1054.08 127.273 1054.44 128.676C1054.48 129.047 1054.58 128.728 1054.36 129.064C1052.7 130.628 1053.43 134.986 1055.93 135.133C1055.77 137.198 1057.1 139.204 1058.78 140.33C1060.6 141.544 1063.22 141.596 1064.72 143.257C1068.25 149.463 1069.47 156.789 1069.85 163.896C1067.53 164.765 1065.44 167.362 1067.55 169.565C1067.6 169.57 1067.64 169.574 1067.68 169.578C1068.91 172.839 1069.38 176.315 1070.03 179.721C1071.02 185.532 1073.62 190.867 1076.93 195.708C1080.77 202.116 1091.08 201.1 1096.28 196.965C1096.26 198.05 1096.08 199.128 1096.42 200.177C1096.94 201.308 1098.19 200.819 1098.32 199.705C1101.06 201.246 1101.71 196.16 1098.66 196.966C1098.89 193.289 1099.03 189.607 1099.14 185.924C1102.59 187.04 1102.74 181.319 1099.21 182.463L1099.21 180.881C1099.24 168.753 1099.1 156.584 1097.5 144.552C1097.35 143.652 1097.1 142.781 1096.95 141.887C1096.94 141.794 1096.79 141.82 1096.79 141.909C1096.54 158.754 1097.65 175.636 1096.5 192.487C1095.54 192.778 1095.16 193.876 1094.45 194.515C1092.87 195.966 1090.72 196.673 1088.63 196.919C1082.75 197.741 1080.22 195.951 1077.6 190.856C1078.78 191.643 1080.37 190.253 1079.65 189.008L1079.63 188.97C1078.89 187.651 1076.78 188.442 1077.04 189.919C1074.41 185.716 1073.04 180.977 1072.02 176.169L1071.88 175.595C1071.39 173.553 1070.75 171.214 1069.56 169.367C1076.8 167.527 1083.88 161.919 1085.01 154.225C1086.85 159.986 1089.34 165.617 1091.71 171.22C1092.44 173.168 1092.75 175.262 1093.8 177.069C1094.04 177.487 1094.66 177.379 1094.8 176.938C1095.74 172.724 1092.88 168.716 1091.4 164.922C1090.18 162.779 1086.7 152.988 1084.54 152.964C1086.97 142.35 1090.2 131.815 1093.29 121.333C1096.27 107.18 1102.34 104.451 1115.21 99.9942C1112.89 111.797 1102.29 123.222 1107.93 135.602L1108.07 135.923C1108.65 137.288 1109.12 138.663 1108.72 140.161C1108.33 141.615 1107.44 142.877 1106.73 144.185C1102.75 151.57 1105.49 160.195 1107.03 167.886C1108.97 176.905 1110.89 185.933 1112.9 194.938C1113.3 196.735 1113.55 198.586 1114.15 200.326C1114.46 201.225 1116 201.139 1115.9 200.091C1115.71 198.058 1115.14 196.075 1114.72 194.078C1112.22 181.15 1108.83 168.374 1106.68 155.389C1105.3 145.777 1110.75 144.3 1110.54 138.09C1109.8 134.913 1107.84 132.079 1107.95 128.694C1107.52 118.332 1115.08 109.784 1116.02 99.7068L1117.67 99.1199C1118.49 98.8256 1119.31 98.5288 1120.13 98.2251C1115.81 128.365 1117.13 159.164 1119.28 189.453C1119.73 190.85 1119.31 200.613 1121.16 199.747C1121.25 200.292 1121.54 200.829 1122.17 200.826C1127.91 200.878 1133.64 200.969 1139.38 201.037C1142.14 200.783 1145.93 201.834 1148.27 200.246C1150.98 199.475 1151.3 192.154 1152.02 189.545L1152.3 187.647C1156.91 156.639 1161.03 124.992 1157.72 93.677C1162.32 93.8536 1163.27 98.8112 1163.61 102.421C1164.47 110.388 1169.62 117.249 1169.87 125.308C1169.89 127.263 1169.52 129.157 1168.74 130.952C1166.66 135.35 1163.07 140.434 1165.75 145.346C1168.93 149.17 1168.66 150.176 1167.49 154.902C1164.21 170.523 1158.76 185.542 1153.58 200.604C1154.71 206.458 1161.48 184.725 1162.12 183.086C1165.11 184.59 1166.75 179.599 1163.31 179.244C1165.52 171.869 1167.55 164.439 1169.25 156.927L1169.29 156.715C1170.04 153.244 1171.51 149.18 1169.03 146.101C1162.62 139.642 1173.25 132.423 1171.91 124.599C1173.07 125.456 1174.82 124.554 1174.8 123.116C1174.85 121.496 1172.67 120.666 1171.62 121.902C1170.54 115.554 1166.79 110.012 1165.65 103.683L1165.6 103.386C1165.22 101.149 1165.11 98.7949 1164.01 96.7561C1165.5 97.7275 1167.1 98.5127 1168.74 99.2056C1165.81 101.652 1171.49 103.885 1171.02 100.106C1187.12 104.753 1190.76 111.234 1196.67 126.117C1195.57 125.047 1193.67 126.432 1194.34 127.797C1194.86 129.235 1197.16 128.814 1197.16 127.282L1197.43 127.923C1201.02 136.474 1204.28 145.233 1205.92 154.385C1202.7 153.932 1203.52 159.06 1206.43 157.614C1207.6 165.753 1207.62 174.007 1207.48 182.212C1204.77 180.793 1204.69 185.615 1207.45 184.24C1207.35 190.964 1207.2 197.687 1207.09 204.411C1207.07 205.842 1209.28 205.835 1209.32 204.411C1209.58 194.08 1210.05 183.73 1209.82 173.396C1210.03 155.46 1204.87 138.172 1197.17 122.105C1190.35 103.605 1180.94 101.501 1163.63 96.1222C1162.03 93.755 1158.61 91.5162 1155.83 93.0026C1154.27 90.4922 1153.48 87.5179 1152.32 84.8431ZM1181.99 149.32C1181.93 149.092 1181.6 149.149 1181.59 149.374C1181.44 152.276 1181.57 155.197 1181.77 158.112C1181.89 159.891 1182.04 161.668 1182.17 163.436C1182.5 168.098 1182.77 172.765 1182.97 177.436C1182.9 177.407 1182.83 177.381 1182.75 177.36C1182.4 177.264 1182.05 177.264 1181.69 177.36C1181.38 177.447 1181.1 177.6 1180.87 177.821L1180.82 177.87C1180.62 178.049 1180.49 178.262 1180.41 178.507C1180.29 178.725 1180.23 178.959 1180.23 179.209L1180.24 179.271C1180.24 179.63 1180.33 179.962 1180.51 180.272C1180.68 180.57 1180.92 180.807 1181.22 180.984C1181.53 181.164 1181.86 181.253 1182.22 181.254C1182.26 181.258 1182.3 181.261 1182.34 181.263C1182.6 181.273 1182.85 181.218 1183.08 181.098L1183.12 181.087C1183.21 183.457 1183.28 185.828 1183.33 188.199C1183.38 190.265 1183.44 192.332 1183.48 194.398L1183.5 195.432L1183.54 197.717C1183.55 198.656 1183.55 199.556 1183.87 200.442L1183.9 200.544C1184.13 201.136 1184.31 201.959 1184.93 202.288C1185.42 202.551 1186.09 202.454 1186.37 201.942C1186.61 201.514 1186.4 200.897 1186.05 200.608C1186.06 200.589 1186.07 200.572 1186.08 200.553C1186.13 200.396 1186.21 200.248 1186.26 200.09C1186.41 199.588 1186.37 199.054 1186.37 198.533C1186.37 197.614 1186.34 196.695 1186.32 195.777C1186.26 193.824 1186.2 191.872 1186.12 189.921C1185.86 183.374 1185.38 176.827 1184.82 170.299L1184.63 168.095C1184.37 165.165 1184.11 162.232 1183.74 159.317C1183.73 159.177 1183.71 159.038 1183.69 158.899C1183.89 158.8 1184.07 158.662 1184.22 158.509C1184.81 157.893 1185.16 156.972 1185.5 156.179L1185.57 155.998C1185.94 155.152 1186.27 154.296 1186.45 153.387L1186.46 153.303C1186.54 152.916 1186.7 152.231 1186.28 152.043C1186.07 151.946 1185.93 152.015 1185.86 152.229C1185.86 152.257 1185.86 152.288 1185.88 152.313C1185.71 152.572 1185.44 152.814 1185.28 153.054L1184.7 153.872L1184.42 154.283C1184.06 154.811 1183.68 155.316 1183.28 155.814C1182.97 153.627 1182.59 151.449 1181.99 149.32ZM1158.48 198.048C1157.76 197.487 1156.59 197.791 1156.59 198.826C1156.59 199.865 1157.76 200.165 1158.48 199.604L1158.51 199.578L1158.55 199.55C1158.94 199.246 1158.95 198.456 1158.58 198.126L1158.55 198.102C1158.53 198.082 1158.5 198.065 1158.48 198.048ZM1189.72 196.027L1189.66 196.028C1189.33 196.028 1189.03 196.11 1188.75 196.274C1188.63 196.366 1188.51 196.46 1188.39 196.554C1188.16 196.777 1188.01 197.041 1187.92 197.346L1187.86 197.823C1187.85 198.07 1187.9 198.3 1188.01 198.514C1188.09 198.737 1188.21 198.93 1188.39 199.092C1188.55 199.268 1188.74 199.392 1188.96 199.463C1189.16 199.567 1189.37 199.619 1189.6 199.619L1189.66 199.618C1189.98 199.618 1190.29 199.536 1190.57 199.372C1190.69 199.28 1190.81 199.186 1190.93 199.092C1191.15 198.869 1191.31 198.605 1191.39 198.3C1191.41 198.142 1191.44 197.981 1191.46 197.823C1191.47 197.576 1191.41 197.346 1191.3 197.132C1191.23 196.909 1191.11 196.716 1190.93 196.554C1190.77 196.378 1190.58 196.254 1190.35 196.183C1190.16 196.079 1189.94 196.027 1189.72 196.027ZM1108.04 192.717L1107.58 192.778C1107.15 192.877 1106.79 193.199 1106.56 193.566C1106.43 193.763 1106.36 193.976 1106.35 194.204C1106.3 194.43 1106.31 194.658 1106.39 194.886C1106.44 195.109 1106.54 195.304 1106.69 195.469C1106.75 195.551 1106.81 195.626 1106.88 195.692C1107.02 195.931 1107.24 196.087 1107.46 196.248C1107.65 196.368 1107.85 196.432 1108.07 196.443C1108.22 196.481 1108.36 196.481 1108.51 196.443C1108.73 196.432 1108.93 196.368 1109.12 196.248C1109.23 196.162 1109.34 196.075 1109.45 195.99C1109.55 195.877 1109.64 195.76 1109.73 195.638C1109.78 195.504 1109.84 195.372 1109.9 195.239C1110 194.921 1109.95 194.639 1109.89 194.32C1109.88 194.266 1109.87 194.218 1109.85 194.165L1109.81 194.064C1109.71 193.8 1109.66 193.71 1109.48 193.479L1109.41 193.389C1109.38 193.344 1109.34 193.3 1109.3 193.26C1109.19 193.145 1109.03 193.049 1108.91 192.95C1108.64 192.795 1108.35 192.719 1108.04 192.717ZM1167.28 191.602L1167.22 191.602C1166.97 191.604 1166.73 191.667 1166.51 191.794L1166.23 192.015C1166.05 192.191 1165.93 192.396 1165.86 192.635C1165.85 192.76 1165.83 192.885 1165.81 193.009C1165.81 193.202 1165.85 193.383 1165.93 193.552C1165.99 193.726 1166.09 193.876 1166.23 194.005C1166.35 194.141 1166.51 194.238 1166.68 194.296C1166.83 194.375 1167 194.417 1167.17 194.417L1167.22 194.416C1167.48 194.416 1167.71 194.351 1167.93 194.224L1168.22 194.005C1168.39 193.829 1168.52 193.622 1168.58 193.383C1168.6 193.258 1168.62 193.134 1168.63 193.009C1168.64 192.816 1168.6 192.635 1168.51 192.468C1168.45 192.294 1168.36 192.142 1168.22 192.015C1168.09 191.877 1167.94 191.78 1167.77 191.724C1167.61 191.644 1167.45 191.604 1167.28 191.602ZM1178.8 191.026C1178.43 191.023 1178.06 191.126 1177.76 191.336C1177.47 191.541 1177.25 191.763 1177.11 192.095C1177.08 192.186 1177.04 192.275 1177 192.365C1176.85 192.764 1176.83 193.164 1177.03 193.554C1177.23 193.932 1177.67 194.097 1178.05 194.21C1178.38 194.308 1178.75 194.324 1179.08 194.207C1179.24 194.15 1179.4 194.089 1179.55 194C1179.82 193.831 1179.97 193.631 1180.15 193.383C1180.3 193.14 1180.37 192.875 1180.37 192.593C1180.37 192.309 1180.3 192.047 1180.15 191.801C1179.87 191.322 1179.35 191.03 1178.8 191.026ZM1197.29 191.362C1196.83 191.362 1196.42 191.575 1196.15 191.933C1195.87 192.297 1195.76 192.75 1195.89 193.201C1196.02 193.678 1196.41 194.096 1196.9 194.216C1197.27 194.305 1197.56 194.301 1197.92 194.24C1198.23 194.188 1198.46 194.007 1198.7 193.819C1198.96 193.601 1199.05 193.204 1199 192.884C1198.96 192.564 1198.81 192.355 1198.59 192.165L1198.59 192.16L1198.67 192.224C1198.64 192.196 1198.61 192.167 1198.58 192.137C1198.56 192.12 1198.56 192.101 1198.55 192.082C1198.42 191.862 1198.24 191.69 1198.03 191.561C1197.8 191.429 1197.55 191.362 1197.29 191.362ZM1089.89 186.089C1089.63 186.021 1089.38 186.021 1089.12 186.089C1088.94 186.133 1088.78 186.218 1088.64 186.345C1088.5 186.436 1088.38 186.552 1088.3 186.696L1088.27 186.745C1088.07 187.083 1088.04 187.469 1088.12 187.845C1088.23 188.31 1088.66 188.734 1089.12 188.843L1089.14 188.846L1089.16 188.85C1089.34 188.909 1089.53 188.918 1089.72 188.875C1089.91 188.866 1090.09 188.81 1090.25 188.706C1090.46 188.573 1090.63 188.403 1090.76 188.197C1090.87 188.034 1090.92 187.858 1090.93 187.668C1090.96 187.543 1090.96 187.417 1090.93 187.292C1090.92 187.102 1090.87 186.926 1090.76 186.763L1090.54 186.475L1090.52 186.456C1090.34 186.279 1090.13 186.157 1089.89 186.089ZM1107.45 176.876C1105.16 176.876 1105.17 180.417 1107.45 180.417C1109.74 180.417 1109.73 176.876 1107.45 176.876ZM1191.2 176.429C1190.96 176.375 1190.72 176.385 1190.48 176.46C1190.33 176.521 1190.19 176.582 1190.05 176.641L1189.68 176.923C1189.61 176.98 1189.58 177.043 1189.52 177.125L1189.44 177.227C1189.32 177.379 1189.32 177.411 1189.2 177.734C1189.11 178.044 1189.11 178.354 1189.2 178.664C1189.24 178.814 1189.3 178.955 1189.38 179.085C1189.45 179.211 1189.53 179.321 1189.63 179.422L1189.68 179.472C1189.84 179.648 1190.04 179.771 1190.26 179.844C1190.4 179.926 1190.55 179.966 1190.72 179.966C1190.96 180.02 1191.2 180.01 1191.44 179.935C1191.58 179.874 1191.73 179.813 1191.87 179.754L1192.24 179.472L1192.52 179.106L1192.61 178.892L1192.7 178.676L1192.76 178.197C1192.77 177.948 1192.72 177.719 1192.61 177.503C1192.57 177.351 1192.49 177.217 1192.38 177.106C1192.3 176.97 1192.19 176.862 1192.05 176.782C1191.94 176.67 1191.81 176.594 1191.65 176.55C1191.51 176.469 1191.36 176.429 1191.2 176.429ZM1078.06 173.899C1077.87 173.892 1077.69 173.932 1077.53 174.019C1077.47 174.038 1077.41 174.063 1077.36 174.091C1077.15 174.214 1076.98 174.381 1076.86 174.59C1076.76 174.75 1076.7 174.923 1076.69 175.109C1076.65 175.277 1076.66 175.446 1076.7 175.614L1076.72 175.664C1076.76 175.802 1076.81 175.929 1076.89 176.046C1076.9 176.059 1076.91 176.073 1076.92 176.086C1077.03 176.27 1077.19 176.422 1077.38 176.535C1077.59 176.657 1077.82 176.719 1078.07 176.721C1078.56 176.721 1078.99 176.455 1079.25 176.046C1079.29 175.988 1079.31 175.915 1079.33 175.856C1079.36 175.8 1079.39 175.729 1079.41 175.664C1079.48 175.417 1079.48 175.17 1079.41 174.923C1079.37 174.742 1079.29 174.583 1079.16 174.449C1079.06 174.298 1078.93 174.178 1078.77 174.091C1078.57 173.973 1078.35 173.911 1078.12 173.9L1078.06 173.899ZM1174.64 172.167C1174.4 172.101 1174.16 172.096 1173.92 172.152L1173.86 172.167C1173.67 172.212 1173.5 172.299 1173.36 172.428C1173.2 172.532 1173.07 172.67 1172.98 172.84C1172.85 173.069 1172.78 173.316 1172.78 173.58C1172.78 173.845 1172.85 174.092 1172.98 174.32C1173.11 174.541 1173.29 174.716 1173.51 174.846L1173.7 174.938C1173.86 175.039 1174.03 175.093 1174.22 175.102C1174.34 175.135 1174.46 175.135 1174.58 175.102C1174.71 175.102 1174.83 175.071 1174.94 175.008C1175.05 174.975 1175.16 174.916 1175.24 174.829C1175.39 174.731 1175.51 174.602 1175.6 174.44L1175.74 174.108L1175.79 173.739L1175.74 173.372L1175.67 173.19C1175.6 172.941 1175.47 172.726 1175.29 172.543C1175.1 172.362 1174.89 172.236 1174.64 172.167ZM1088.11 169.23C1087.85 169.15 1087.6 169.139 1087.35 169.195C1087.18 169.195 1087.02 169.239 1086.87 169.326C1086.7 169.371 1086.57 169.451 1086.45 169.569C1086.24 169.703 1086.08 169.881 1085.96 170.102L1085.76 170.557C1085.65 170.851 1085.69 171.284 1085.76 171.58C1085.82 171.824 1085.93 172.036 1086.1 172.217C1086.18 172.358 1086.29 172.47 1086.43 172.553C1086.59 172.7 1086.78 172.804 1086.99 172.866L1087.05 172.882L1087.07 172.887C1087.07 172.889 1087.08 172.889 1087.08 172.889C1087.08 172.891 1087.09 172.891 1087.09 172.891C1087.17 172.912 1087.26 172.924 1087.35 172.928C1087.6 172.983 1087.85 172.973 1088.11 172.893C1088.26 172.83 1088.41 172.766 1088.56 172.701C1088.69 172.604 1088.82 172.504 1088.95 172.405C1089.05 172.277 1089.15 172.148 1089.25 172.021C1089.38 171.803 1089.46 171.566 1089.47 171.314C1089.52 171.145 1089.52 170.978 1089.47 170.809C1089.47 170.637 1089.43 170.478 1089.34 170.33C1089.26 170.093 1089.13 169.89 1088.95 169.717C1088.82 169.618 1088.69 169.519 1088.56 169.421C1088.41 169.357 1088.26 169.293 1088.11 169.23ZM1199.4 162.997C1199.13 162.926 1198.87 162.926 1198.61 162.997L1198.25 163.145C1198.08 163.239 1197.94 163.366 1197.83 163.528C1197.7 163.671 1197.61 163.84 1197.57 164.033C1197.46 164.298 1197.48 164.717 1197.56 164.987C1197.65 165.293 1197.79 165.537 1198.02 165.767C1198.38 166.146 1198.95 166.256 1199.45 166.141C1199.59 166.11 1199.72 166.049 1199.84 165.974C1200.22 165.741 1200.47 165.333 1200.47 164.883C1200.47 164.834 1200.47 164.785 1200.46 164.736C1200.48 164.637 1200.49 164.534 1200.49 164.426L1200.44 164.033L1200.43 164.022C1200.36 163.773 1200.24 163.558 1200.05 163.375C1199.88 163.208 1199.69 163.087 1199.46 163.014L1199.4 162.997H1199.4ZM1067.73 123.905C1068.21 120.005 1070 115.81 1075.46 118.1L1075.87 118.252C1077.22 118.763 1078.8 119.434 1079.62 120.614C1080.19 121.427 1080 123.003 1080.08 123.951C1080.43 127.036 1080.24 130.117 1079.87 133.189C1079.39 140.389 1080.91 147.85 1083.93 154.394C1080.91 159.274 1076.86 163.827 1071.34 165.861C1071.11 160.312 1070.02 154.864 1068.86 149.449L1068.81 149.213C1068.35 146.771 1068.12 144.265 1066.51 142.235C1063.24 138.693 1058.74 140.698 1056.59 135.008C1057.04 134.78 1056.8 134 1056.25 134.15C1054.36 134.484 1054.06 130.994 1055.35 130.153C1056.69 129.334 1055.34 127.824 1055.91 126.733C1056.23 126.263 1056.92 126.248 1057.23 125.706C1058.06 123.713 1053.92 122.436 1058.79 120.189C1059.79 119.835 1060.9 120.054 1061.91 120.05C1063.39 120.188 1064.57 121.228 1065.92 121.556C1064.45 125.363 1068.16 129.029 1071.52 125.988C1073.35 127.711 1075.39 131.637 1070.95 129.806C1068.78 128.36 1066.91 126.489 1064.38 125.598L1064.33 125.582C1063.39 125.276 1059.3 123.289 1059.5 125.008C1061.03 126.486 1063.57 126.469 1065.34 127.669C1067.81 128.806 1069.38 131.561 1072.33 131.523C1073.01 135.643 1068.33 133.136 1066.58 132L1066.1 131.738C1063.64 130.411 1061.14 129.182 1058.27 129.166C1057.48 129.16 1057.48 130.379 1058.27 130.389C1062.01 130.413 1065.05 132.746 1068.19 134.481C1068.5 136.886 1064.97 135.833 1063.63 135.478C1062.22 135.281 1059.97 133.765 1058.74 134.566C1058.26 135.798 1060.37 135.707 1061.11 136.081C1057.75 137.692 1060.69 138.707 1061.59 136.23L1061.86 136.32C1064.11 137.075 1069.57 138.629 1068.92 134.824C1069.74 135.188 1070.75 135.405 1071.66 135.203C1073.93 138.555 1077.55 137.258 1072.29 134.973C1073.47 134.423 1073.87 132.297 1072.73 131.505C1076.88 131.253 1073.8 126.914 1072.08 125.469C1072.24 125.305 1072.4 125.139 1072.55 124.97C1073.54 125.44 1074.58 125.725 1075.69 125.826C1076.75 125.922 1076.99 124.115 1075.94 123.967C1074.81 123.809 1073.78 123.509 1072.79 122.945C1071.28 122.298 1070.77 125.079 1069.27 125.177C1068.45 125.339 1067.89 124.622 1067.73 123.905ZM1102.63 159.783C1102.26 159.783 1101.94 159.935 1101.68 160.175C1101.41 160.415 1101.3 160.776 1101.28 161.12C1101.28 161.305 1101.32 161.477 1101.4 161.637C1101.45 161.803 1101.55 161.946 1101.68 162.068C1101.92 162.309 1102.28 162.459 1102.63 162.459C1102.99 162.459 1103.31 162.308 1103.57 162.068C1103.84 161.825 1103.95 161.467 1103.97 161.12C1103.97 160.938 1103.94 160.765 1103.85 160.605C1103.8 160.456 1103.72 160.324 1103.61 160.212L1103.57 160.175C1103.33 159.931 1102.97 159.783 1102.63 159.783ZM1091.63 151.527L1091.57 151.528C1091.27 151.53 1090.98 151.606 1090.72 151.759C1090.6 151.848 1090.49 151.935 1090.37 152.024C1090.16 152.236 1090.02 152.485 1089.94 152.773C1089.85 153.072 1089.85 153.373 1089.94 153.673C1089.96 153.845 1090.03 154.012 1090.13 154.157C1090.28 154.405 1090.48 154.606 1090.73 154.754C1090.99 154.905 1091.27 154.98 1091.57 154.982C1091.87 154.98 1092.16 154.905 1092.42 154.754C1092.67 154.606 1092.87 154.405 1093.01 154.157C1093.12 154.012 1093.18 153.845 1093.21 153.673C1093.29 153.373 1093.29 153.072 1093.21 152.773C1093.13 152.506 1093 152.272 1092.82 152.07L1092.77 152.024C1092.62 151.859 1092.44 151.742 1092.23 151.674C1092.04 151.577 1091.84 151.528 1091.63 151.527ZM1175.55 151.62C1175.42 151.585 1175.3 151.585 1175.17 151.62C1174.97 151.629 1174.79 151.686 1174.63 151.791C1174.53 151.867 1174.43 151.942 1174.34 152.017L1174.25 152.119C1174.07 152.34 1174.06 152.378 1173.92 152.715C1173.87 152.903 1173.86 153.091 1173.9 153.279C1173.9 153.406 1173.93 153.525 1174 153.635C1174.03 153.755 1174.09 153.859 1174.18 153.946C1174.24 154.052 1174.33 154.137 1174.43 154.2C1174.57 154.324 1174.73 154.409 1174.91 154.453L1175.29 154.503C1175.34 154.496 1175.39 154.489 1175.44 154.484C1175.5 154.482 1175.55 154.476 1175.61 154.465L1175.67 154.453L1175.72 154.439C1175.79 154.419 1175.85 154.392 1175.92 154.359C1176.04 154.324 1176.15 154.263 1176.24 154.172C1176.39 154.071 1176.52 153.936 1176.61 153.767L1176.63 153.711C1176.67 153.652 1176.69 153.591 1176.72 153.525C1176.78 153.42 1176.8 153.309 1176.81 153.189C1176.84 153.029 1176.84 152.871 1176.8 152.712L1176.78 152.659L1176.65 152.341C1176.58 152.233 1176.5 152.123 1176.41 152.034C1176.35 151.984 1176.22 151.876 1176.14 151.822L1176.09 151.791C1175.92 151.686 1175.74 151.629 1175.55 151.62ZM1196.59 149.13C1196.33 148.143 1195.04 147.832 1194.33 148.537C1193.62 149.242 1193.93 150.537 1194.92 150.788L1195.04 150.816C1195.99 151.058 1196.86 150.196 1196.61 149.242L1196.59 149.13ZM1076.83 141.079C1076.83 140.981 1076.71 140.947 1076.65 141.004C1075.8 141.756 1075.27 142.658 1074.25 143.241C1073.22 143.826 1072.17 143.779 1071.1 144.157C1070.73 144.285 1070.73 144.77 1071.1 144.897C1073.12 145.602 1076.67 143.211 1076.83 141.079ZM1171.93 140.926C1171.7 140.856 1171.48 140.846 1171.25 140.896C1171.1 140.896 1170.96 140.934 1170.82 141.011C1170.68 141.051 1170.56 141.124 1170.45 141.228C1170.32 141.303 1170.22 141.406 1170.14 141.533C1169.99 141.697 1169.89 141.888 1169.84 142.108L1169.78 142.559L1169.84 143.01C1169.9 143.143 1169.96 143.279 1170.01 143.413L1170.17 143.624C1170.29 143.792 1170.31 143.794 1170.62 144.021C1170.82 144.144 1171.03 144.213 1171.25 144.221C1171.4 144.263 1171.55 144.263 1171.7 144.221C1171.86 144.221 1172 144.183 1172.13 144.106C1172.27 144.066 1172.4 143.993 1172.51 143.889C1172.69 143.769 1172.84 143.61 1172.94 143.413C1173 143.279 1173.06 143.143 1173.11 143.01L1173.17 142.559L1173.11 142.108L1173.11 142.094C1173.03 141.812 1172.89 141.566 1172.68 141.359L1172.34 141.098C1172.21 141.013 1172.07 140.969 1171.93 140.926ZM1090.48 141.263C1090 141.131 1089.47 141.27 1089.11 141.624C1088.76 141.977 1088.62 142.504 1088.75 142.987C1088.88 143.457 1089.26 143.838 1089.73 143.965C1089.88 144.003 1090.02 144.024 1090.16 144.017C1090.41 144.016 1090.63 143.955 1090.84 143.833L1091.12 143.622C1091.25 143.5 1091.34 143.356 1091.4 143.189C1091.48 143.029 1091.52 142.856 1091.51 142.67L1091.51 142.637C1091.52 142.571 1091.51 142.504 1091.49 142.44C1091.49 142.372 1091.48 142.306 1091.46 142.241C1091.33 141.772 1090.95 141.392 1090.48 141.263ZM1194.67 136.549C1194.52 136.543 1194.37 136.575 1194.24 136.646C1194.1 136.691 1193.98 136.768 1193.87 136.879C1193.76 136.98 1193.69 137.102 1193.64 137.242C1193.57 137.376 1193.54 137.52 1193.54 137.675C1193.54 137.879 1193.6 138.068 1193.7 138.243C1193.76 138.319 1193.82 138.396 1193.87 138.471C1194.01 138.612 1194.18 138.707 1194.37 138.761L1194.48 138.8C1194.65 138.859 1194.81 138.862 1194.98 138.84C1195.16 138.815 1195.32 138.767 1195.47 138.655C1195.61 138.572 1195.73 138.458 1195.81 138.316L1195.91 138.089C1195.93 138.013 1195.94 137.898 1195.94 137.818C1195.94 137.806 1195.94 137.795 1195.94 137.783C1195.94 137.715 1195.92 137.55 1195.91 137.482C1195.87 137.339 1195.79 137.203 1195.7 137.088C1195.62 136.968 1195.52 136.874 1195.39 136.805L1195.38 136.796L1195.36 136.787C1195.32 136.759 1195.28 136.731 1195.24 136.702C1195.07 136.601 1194.88 136.549 1194.67 136.549ZM1104.57 135.313C1104.29 135.313 1104.03 135.384 1103.79 135.523C1103.78 135.527 1103.78 135.53 1103.77 135.534C1103.54 135.67 1103.35 135.853 1103.22 136.082C1103.08 136.321 1103.01 136.579 1103.01 136.854C1103.01 137.13 1103.08 137.386 1103.22 137.625C1103.35 137.855 1103.54 138.037 1103.77 138.173C1103.78 138.178 1103.78 138.182 1103.79 138.185C1104.03 138.325 1104.29 138.394 1104.57 138.396C1104.85 138.394 1105.11 138.325 1105.35 138.185C1105.82 137.91 1106.12 137.397 1106.12 136.854C1106.12 136.31 1105.82 135.797 1105.35 135.523C1105.11 135.384 1104.85 135.313 1104.57 135.313ZM1177.03 133.299L1176.99 133.298C1176.8 133.291 1176.63 133.329 1176.47 133.415C1176.3 133.469 1176.16 133.561 1176.04 133.692L1175.78 133.904L1175.71 133.964C1175.7 133.974 1175.68 133.984 1175.67 133.995C1175.5 134.167 1175.38 134.369 1175.32 134.602C1175.3 134.736 1175.28 134.868 1175.27 135.002C1175.23 135.351 1175.43 135.708 1175.66 135.955C1175.78 136.086 1175.93 136.178 1176.09 136.233C1176.25 136.317 1176.43 136.355 1176.61 136.348C1176.99 136.315 1177.35 136.235 1177.62 135.943C1177.66 135.908 1177.69 135.871 1177.72 135.835L1177.94 135.584C1178.1 135.417 1178.22 135.22 1178.28 134.994C1178.3 134.874 1178.31 134.755 1178.33 134.637C1178.34 134.28 1178.17 133.946 1177.94 133.692C1177.72 133.456 1177.35 133.312 1177.03 133.299ZM1185.84 129.634C1184.03 129.634 1184.03 132.442 1185.84 132.442C1187.65 132.442 1187.65 129.634 1185.84 129.634ZM1094.61 125.696L1094.55 125.697C1094.25 125.699 1093.97 125.774 1093.71 125.925L1093.37 126.185C1093.16 126.394 1093.02 126.638 1092.94 126.92C1092.92 127.067 1092.9 127.216 1092.88 127.362C1092.87 127.592 1092.92 127.806 1093.03 128.004C1093.09 128.21 1093.21 128.389 1093.37 128.54C1093.52 128.702 1093.7 128.817 1093.91 128.883C1094.11 128.988 1094.32 129.037 1094.55 129.028C1094.85 129.026 1095.13 128.951 1095.39 128.8C1095.51 128.713 1095.62 128.626 1095.73 128.54C1095.92 128.348 1096.06 128.125 1096.14 127.87L1096.16 127.806L1096.22 127.362C1096.23 127.134 1096.18 126.92 1096.08 126.721C1096.01 126.514 1095.89 126.336 1095.73 126.185C1095.58 126.023 1095.4 125.908 1095.19 125.842C1095.01 125.746 1094.82 125.697 1094.61 125.696ZM1102.78 120.44C1102.62 120.435 1102.47 120.468 1102.33 120.541C1102.18 120.588 1102.06 120.67 1101.95 120.783C1101.73 120.962 1101.59 121.321 1101.59 121.611C1101.59 121.902 1101.73 122.261 1101.95 122.44C1102.1 122.585 1102.27 122.686 1102.47 122.741L1102.78 122.783C1103.09 122.797 1103.4 122.639 1103.61 122.44C1103.66 122.4 1103.7 122.36 1103.74 122.322C1103.94 122.141 1104.02 121.871 1104.04 121.611C1104.04 121.474 1104.01 121.345 1103.95 121.225C1103.91 121.1 1103.84 120.993 1103.74 120.901C1103.7 120.863 1103.66 120.823 1103.61 120.783C1103.38 120.565 1103.1 120.456 1102.78 120.44ZM1051 111.075C1049.85 109.682 1050.52 108.69 1052.25 109.035C1055.21 109.435 1058.01 111.307 1060.62 112.649C1063.47 114.152 1066.41 115.392 1069.32 116.805C1068.12 117.541 1067.23 118.692 1066.55 120.006C1065.19 118.974 1063.44 118.481 1061.75 118.417C1058.66 115.471 1053.56 114.796 1051 111.075ZM1186.45 115.701C1186.14 115.702 1185.85 115.775 1185.58 115.921L1185.52 115.953L1185.14 116.242C1184.96 116.409 1184.84 116.608 1184.76 116.836C1184.65 117.055 1184.59 117.294 1184.6 117.548C1184.59 117.802 1184.65 118.039 1184.76 118.258C1184.84 118.488 1184.96 118.685 1185.14 118.852C1185.25 118.986 1185.38 119.09 1185.54 119.167C1185.69 119.228 1185.83 119.291 1185.98 119.353C1186.15 119.405 1186.34 119.412 1186.52 119.421C1186.85 119.419 1187.15 119.338 1187.43 119.174L1187.8 118.892C1187.97 118.728 1188.1 118.535 1188.17 118.31C1188.28 118.113 1188.33 117.902 1188.33 117.676L1188.33 117.614C1188.33 117.6 1188.33 117.584 1188.33 117.569C1188.31 117.405 1188.28 117.241 1188.26 117.078C1188.2 116.838 1188.09 116.627 1187.93 116.449C1187.89 116.366 1187.83 116.298 1187.76 116.242C1187.53 116.012 1187.26 115.856 1186.94 115.767C1186.78 115.746 1186.62 115.723 1186.45 115.701ZM1105.49 111.088L1105.44 111.089C1105.2 111.089 1104.99 111.148 1104.78 111.265C1104.69 111.333 1104.61 111.401 1104.52 111.469C1104.36 111.631 1104.25 111.822 1104.18 112.042L1104.14 112.386C1104.13 112.566 1104.17 112.731 1104.25 112.886C1104.3 113.046 1104.39 113.185 1104.52 113.304C1104.64 113.431 1104.78 113.52 1104.94 113.572C1105.09 113.654 1105.26 113.69 1105.44 113.683C1105.67 113.683 1105.89 113.624 1106.1 113.506C1106.18 113.44 1106.27 113.372 1106.36 113.304C1106.51 113.155 1106.61 112.982 1106.68 112.785L1106.69 112.731L1106.74 112.386C1106.75 112.207 1106.71 112.042 1106.63 111.887C1106.58 111.725 1106.48 111.585 1106.36 111.469C1106.24 111.342 1106.1 111.253 1105.94 111.201C1105.8 111.127 1105.65 111.09 1105.49 111.088ZM1176.25 109.203L1176.19 109.204C1175.84 109.205 1175.52 109.292 1175.22 109.467C1175.09 109.566 1174.96 109.665 1174.83 109.766C1174.59 110.005 1174.43 110.287 1174.34 110.612L1174.27 111.12C1174.26 111.385 1174.32 111.631 1174.44 111.859C1174.51 112.097 1174.65 112.303 1174.83 112.477C1175.01 112.663 1175.21 112.795 1175.45 112.872C1175.68 112.992 1175.93 113.048 1176.19 113.037C1176.54 113.037 1176.86 112.95 1177.16 112.776C1177.29 112.677 1177.42 112.576 1177.55 112.477C1177.79 112.236 1177.95 111.954 1178.04 111.631L1178.11 111.12C1178.12 110.858 1178.07 110.611 1177.95 110.382C1177.87 110.146 1177.74 109.938 1177.55 109.766C1177.38 109.578 1177.17 109.446 1176.93 109.369C1176.72 109.258 1176.49 109.204 1176.25 109.203ZM1111.64 104.416C1111.49 104.374 1111.33 104.374 1111.17 104.416C1110.93 104.427 1110.71 104.498 1110.5 104.629L1110.14 104.907C1110.14 104.912 1110.13 104.918 1110.13 104.925C1109.91 105.144 1109.76 105.403 1109.67 105.701L1109.61 106.169C1109.6 106.411 1109.65 106.638 1109.76 106.847C1109.83 107.048 1109.94 107.222 1110.08 107.373L1110.14 107.43C1110.3 107.604 1110.49 107.727 1110.72 107.799C1110.86 107.881 1111.01 107.921 1111.17 107.921C1111.41 107.975 1111.64 107.964 1111.88 107.889C1112.02 107.828 1112.17 107.769 1112.31 107.71L1112.35 107.684C1112.89 107.39 1113.23 106.774 1113.23 106.169C1113.23 105.565 1112.89 104.947 1112.35 104.653C1112.34 104.646 1112.32 104.637 1112.31 104.629C1112.1 104.498 1111.88 104.427 1111.64 104.416Z" fill="black"/>
<path fill-rule="evenodd" clip-rule="evenodd" d="M1103.7 59.1275C1102.62 51.345 1104.93 43.8344 1107.92 36.7216C1108.08 36.2884 1108.34 35.9133 1108.68 35.6465C1117.11 18.6764 1129.51 17.1396 1146.81 18.3083C1147.32 18.297 1147.35 18.3061 1147.74 18.1328C1147.8 11.239 1155.7 7.58742 1161.7 9.86196C1188.33 22.2103 1179.96 56.9743 1174.66 79.6701C1172.77 88.4558 1170.88 97.2409 1168.99 106.026C1168.92 106.32 1168.79 106.574 1168.61 106.788C1168.88 106.892 1169.16 106.99 1169.43 107.081C1170.04 107.29 1169.8 108.205 1169.16 108.057C1168.53 107.912 1167.93 107.717 1167.33 107.505C1166.4 107.707 1165.61 107.098 1164.88 106.613C1156.31 103.23 1152.71 92.1105 1150.51 83.9189C1141.56 90.2141 1127.28 94.9289 1117.05 89.2681C1107.47 83.5115 1104.02 71.5033 1104.7 60.9047C1104 60.5836 1103.72 59.8838 1103.7 59.1541H1103.7C1103.7 59.1453 1103.7 59.1364 1103.7 59.1275Z" fill="white"/>
<path fill-rule="evenodd" clip-rule="evenodd" d="M1164.16 10.5102C1162.18 9.23236 1159.64 8.75674 1157.31 8.84988C1156.07 8.89949 1154.91 9.20851 1153.76 9.67265C1152.7 10.103 1151.77 10.7212 1150.73 11.1923C1150.67 11.2209 1150.72 11.3088 1150.78 11.2968C1152 11.0503 1153.44 11.1992 1154.68 11.3757L1154.8 11.3934C1156.02 11.5701 1157.26 11.6615 1158.47 11.942C1160.68 12.4585 1162.74 13.584 1163.96 15.5417C1165.54 18.0985 1165.95 21.408 1165.78 24.3578C1165.7 25.8504 1165.4 27.3187 1164.94 28.7415C1164.67 29.5955 1164.03 30.4546 1163.73 31.3507C1163.5 30.9266 1163.26 30.5067 1163.02 30.0918C1164.13 29.5704 1164.44 28.1212 1164.5 26.8134C1164.67 26.6488 1164.78 26.4104 1164.78 26.1916C1164.79 25.6033 1164.65 25.0708 1164.42 24.5835C1164.28 23.2033 1164 21.8272 1163.51 20.5339C1161.58 15.4561 1156.49 10.8795 1150.72 11.3316C1149.13 11.4559 1147.59 12.1277 1146.77 13.556C1146.11 14.7029 1146.11 16.0865 1146.56 17.3063C1146.7 17.6684 1146.87 17.9954 1147.08 18.2936C1146.45 18.1359 1145.83 17.9846 1145.21 17.8347C1143.04 17.3145 1140.87 16.907 1138.66 16.6803C1135.64 16.3718 1132.56 16.8385 1129.8 18.0396C1129.04 18.2341 1128.29 18.443 1127.54 18.6662C1124.24 19.6477 1120.85 20.9298 1118.19 23.1702C1116.96 24.201 1116.08 25.4001 1115.37 26.717C1112.7 29.0901 1110.15 31.7802 1108.35 34.8575C1104.64 41.1978 1103.76 49.0406 1103.6 56.2486C1103.46 62.8701 1104.05 69.5595 1105.29 76.0656C1105.85 79.0182 1106.77 81.7623 1108.61 84.1838C1110.67 86.8803 1113.41 89.0048 1116.49 90.4303C1122.75 93.3324 1130.51 93.7546 1136.6 90.159C1138.43 89.0777 1136.78 86.259 1134.93 87.3124C1128.92 90.7353 1121.25 89.9534 1115.46 86.3246C1113.02 84.7917 1110.91 82.6954 1109.57 80.1284C1108.6 78.2534 1108.18 76.1034 1107.81 74.0099L1107.62 72.8901C1106.5 66.4524 1105.99 59.8492 1106.26 53.3184C1106.53 46.8038 1107.57 39.7478 1111.27 34.2093C1113.22 31.288 1115.71 28.7288 1118.32 26.3953C1118.5 26.2313 1118.69 26.068 1118.87 25.9052C1119.89 25.2929 1120.95 24.7583 1121.99 24.302L1122.21 24.2064C1122.81 23.9516 1123.65 23.6224 1124.43 23.3592C1125.54 22.983 1126.67 22.6488 1127.8 22.3476C1128.39 22.1897 1128.99 22.0448 1129.59 21.9064C1129.38 22.0974 1129.17 22.2901 1128.97 22.4877C1128 23.4238 1127.24 24.5363 1126.32 25.5178C1126.22 25.6286 1126.35 25.7901 1126.48 25.7227C1127.87 25.01 1129.42 24.5487 1130.87 23.9712C1132.25 23.4252 1133.58 22.7967 1134.93 22.1944C1135.27 22.0433 1135.61 21.8819 1135.94 21.7222C1137.27 21.7358 1138.6 21.767 1139.92 21.8424C1138.32 22.9797 1136.86 24.3239 1135.65 25.798C1135.55 25.9193 1135.64 26.1138 1135.81 26.0708C1138.34 25.4229 1140.75 24.4707 1143.16 23.4728L1144.32 22.9938C1145.17 22.951 1146.01 22.931 1146.86 22.9435L1147.27 22.9503C1148.17 22.9673 1149.06 23.0025 1149.94 23.1373C1150.15 23.1691 1150.36 23.1994 1150.56 23.2273C1151.8 23.7335 1153 24.3439 1154.08 25.1484L1153.79 25.1319C1152.09 25.0352 1150.36 25.1815 1148.71 25.6199C1145.51 26.472 1142.77 28.5241 1140.79 31.1406C1140.73 31.2189 1140.84 31.3279 1140.92 31.2746C1143.42 29.5659 1146.32 28.7052 1149.3 28.2377C1150.73 28.0116 1152.21 27.9337 1153.66 28.0464C1154.86 28.1395 1156.11 28.5617 1157.3 28.3568C1157.63 28.7616 1157.94 29.1785 1158.24 29.6047C1158.08 29.5946 1157.92 29.5854 1157.76 29.5779C1156.05 29.4975 1154.3 29.6073 1152.62 30.0015C1149.28 30.7892 1146.48 32.7941 1143.92 34.9952C1143.87 35.0387 1143.94 35.1163 1143.99 35.085C1146.77 33.4872 1149.99 33.0096 1153.13 32.7213C1154.72 32.5761 1156.32 32.5103 1157.9 32.6364C1158.63 32.694 1159.35 32.8136 1160.07 32.8879C1160.13 32.894 1160.19 32.8956 1160.25 32.8984C1160.78 33.8865 1161.26 34.8925 1161.69 35.8954C1160.37 35.5444 1158.96 35.3603 1157.61 35.4511C1154.86 35.6358 1152.13 36.8937 1149.94 38.5025C1149.87 38.5528 1149.9 38.6868 1150 38.6517C1152.39 37.7511 1154.76 37.7438 1157.25 38.0913C1158.42 38.2542 1159.57 38.4753 1160.7 38.8221C1161.27 38.9966 1161.83 39.1868 1162.37 39.4374C1162.62 39.5509 1162.85 39.6832 1163.09 39.808C1163.29 40.4605 1163.46 41.1191 1163.62 41.7817C1159.54 42.011 1155.7 43.9302 1152.36 46.1329C1152.28 46.1861 1152.33 46.3345 1152.43 46.2969C1154.42 45.546 1156.59 45.1988 1158.71 44.9967C1160.56 44.82 1162.37 44.9161 1164.21 44.9676C1164.31 45.6649 1164.39 46.3642 1164.45 47.065C1164.15 47.1477 1163.86 47.2368 1163.58 47.3205C1162.67 47.5956 1161.75 47.9659 1160.89 48.3952C1159.16 49.2673 1157.75 50.446 1156.33 51.7565C1156.25 51.8249 1156.33 51.9742 1156.43 51.9337C1158.08 51.2699 1159.88 50.8447 1161.61 50.4685C1162.51 50.2739 1163.4 50.0942 1164.31 49.9293C1164.39 49.9133 1164.48 49.8999 1164.57 49.8867C1164.58 51.4842 1164.49 53.0823 1164.29 54.6673L1164.25 54.9643C1164.14 55.7665 1164.23 56.5425 1164.76 57.0966C1164.03 56.6083 1163.18 56.27 1162.25 56.1403C1159.79 55.7989 1157.51 56.7791 1155.97 58.675C1155.9 58.7636 1156.01 58.8799 1156.09 58.8019C1157.6 57.4688 1159.91 57.2329 1161.77 57.8605C1163.5 58.4415 1164.8 59.8285 1165.32 61.5641C1165.87 63.4084 1165.62 65.4446 1164.61 67.0888C1164.11 67.9079 1163.38 68.6401 1162.48 69.0003C1162.36 69.0449 1162.25 69.082 1162.13 69.1142C1161.59 68.9143 1161 69.0048 1160.43 69.2581L1160.36 69.2924C1160 69.2904 1159.64 69.2794 1159.29 69.2825C1158.62 69.289 1158.29 70.0059 1158.58 70.5395C1158.42 70.8339 1158.3 71.1647 1158.16 71.4531C1157.9 71.9737 1157.63 72.4909 1157.36 73.0048C1156.98 73.4404 1156.62 73.8913 1156.37 74.4171C1156.27 74.6328 1156.18 74.8664 1156.1 75.1008C1155.89 75.4181 1155.68 75.7338 1155.46 76.0478C1154.74 77.0624 1153.99 78.0236 1153.16 78.9447C1152.66 79.4984 1152.09 79.9926 1151.56 80.5233C1151.4 80.5445 1151.24 80.6535 1151.19 80.8102L1151.15 80.9601C1150.98 81.1517 1150.82 81.3492 1150.67 81.5595C1150.34 82.0259 1150.43 82.4991 1150.72 82.8401C1150.27 85.6632 1150.57 88.6667 1151.18 91.4042C1151.57 93.173 1152.03 94.9402 1152.65 96.6465C1152.96 97.5138 1153.34 98.347 1153.86 99.1089C1154.15 99.5263 1154.52 100.013 1154.94 100.41C1155 100.872 1155.08 101.331 1155.2 101.78C1156.61 107.107 1162.36 108.729 1167.17 109.409C1168.1 109.54 1169.02 109.316 1169.53 108.453C1169.64 108.253 1169.72 108.038 1169.77 107.817C1169.98 107.762 1170.18 107.664 1170.36 107.523C1170.39 107.857 1170.42 108.192 1170.47 108.53C1170.58 109.377 1171.72 109.631 1172.01 108.738C1173.22 104.971 1173.88 100.998 1174.71 97.1263C1175.54 93.2628 1176.46 89.4198 1177.32 85.5622L1178.4 80.6937C1181.05 68.7724 1183.52 56.6987 1182.91 44.4377C1182.58 37.7448 1181.35 31.0694 1178.72 24.8845C1176.52 19.7322 1172.82 13.9437 1166.84 12.8903C1166.8 12.8831 1166.76 12.8873 1166.72 12.896C1166.01 11.9742 1165.16 11.1624 1164.16 10.5102ZM1160.55 75.3124C1160.06 76.9093 1159.72 78.5465 1159.53 80.2173C1159.22 83.0019 1159.38 85.8545 1159.51 88.6466C1159.64 91.2117 1159.93 93.7991 1160.44 96.3179C1160.92 98.7364 1161.68 101.108 1162.81 103.308C1162.99 103.663 1163.18 104.01 1163.39 104.35C1162.77 104.142 1162.2 103.901 1161.62 103.566C1160.88 103.145 1160.2 102.602 1159.83 102.029C1159.24 101.11 1159.04 100.089 1158.96 98.9935C1158.73 96.1764 1158.63 93.3508 1158.49 90.5289L1158.46 89.9144C1158.23 85.5053 1157.92 80.9836 1158.37 76.5699C1159.01 76.4038 1159.58 76.0777 1160.11 75.6686C1160.25 75.5558 1160.4 75.4363 1160.55 75.3124ZM1165.36 69.9733C1165.23 71.3145 1165.1 72.6559 1164.99 73.9984C1164.58 78.7635 1164.33 83.5551 1164.56 88.3368C1164.68 90.8268 1164.92 93.3239 1165.34 95.7823C1165.53 96.8903 1165.76 97.9981 1166.02 99.0942L1166.1 99.4591C1166.36 100.545 1166.53 101.902 1167.36 102.691L1167.36 102.855C1166.77 101.971 1166.23 100.976 1165.84 100.051C1164.12 95.9266 1163.81 91.437 1163.49 87.0396C1163.3 84.3295 1163.16 81.6159 1162.94 78.908L1162.83 77.6049C1162.71 76.0883 1162.6 74.583 1162.61 73.0678C1162.95 72.5739 1163.22 72.0546 1163.38 71.5215C1163.41 71.4357 1163.43 71.349 1163.44 71.2623C1164.14 70.9303 1164.81 70.4771 1165.36 69.9733ZM1155.93 79.4097C1155.58 80.5596 1155.3 81.7241 1155.1 82.8935C1154.78 84.7549 1154.59 86.628 1154.5 88.5074L1154.33 87.8434C1153.88 86.1827 1153.41 84.5197 1152.82 82.9081C1153.75 82.2598 1154.52 81.2417 1155.2 80.3907C1155.45 80.0728 1155.69 79.7447 1155.93 79.4097ZM1169.22 28.2715C1169.57 29.4202 1169.88 30.5819 1170.21 31.74C1170.96 34.4604 1171.45 37.2553 1171.8 40.0554C1173.16 51.2354 1172.02 62.4607 1170.54 73.5675C1169.93 78.1695 1169.26 82.7648 1168.69 87.3722C1168.67 86.92 1168.66 86.4679 1168.65 86.0163C1168.48 76.2368 1170.13 66.594 1170.79 56.8649L1170.83 56.2721C1171.13 51.7231 1171.31 47.0892 1170.77 42.5568C1170.49 40.224 1170 37.941 1169.34 35.6867L1168.95 34.3626C1168.69 33.4723 1168.41 32.5583 1168.08 31.6719C1168.12 31.587 1168.17 31.5013 1168.2 31.4155C1168.66 30.4085 1168.98 29.35 1169.22 28.2715ZM1168.07 15.0926C1171.49 19.4977 1174.37 24.1772 1176.11 29.5595C1180.09 41.8777 1179.2 55.0499 1176.89 67.6059C1175.81 73.5219 1174.4 79.3691 1173.13 85.2441C1174.49 74.6941 1176.26 64.1673 1176.54 53.5159C1176.69 47.7026 1176.39 41.862 1175.32 36.1385L1175.25 35.802C1174.79 33.3831 1174.23 30.8203 1173.06 28.6465C1172.43 27.4662 1171.73 26.3647 1170.9 25.3104C1170.55 24.8657 1170.15 24.5092 1169.74 24.1831C1169.86 21.1464 1169.4 17.8534 1168.07 15.0926ZM1162.48 62.028C1160.78 62.0949 1159.07 62.5688 1157.73 63.6736C1156.68 64.5376 1158.18 65.9979 1159.22 65.1583C1160.35 64.2453 1161.37 63.2082 1162.57 62.3778C1162.72 62.2787 1162.68 62.0202 1162.48 62.028ZM1165.31 57.4989C1165.69 57.6938 1166.07 57.7331 1166.5 57.628C1166.51 57.6241 1166.53 57.6198 1166.54 57.6152L1166.63 57.5867C1166.59 57.992 1166.55 58.3973 1166.51 58.8026C1166.17 58.3161 1165.76 57.8757 1165.31 57.4989ZM1167 33.0403C1167.15 34.2972 1167.25 35.5603 1167.3 36.8252C1167.36 38.0576 1167.38 39.2937 1167.38 40.5303L1167.38 41.0603L1167.38 41.0502C1166.8 38.5568 1165.97 36.1029 1164.91 33.7547C1165.09 33.785 1165.28 33.7802 1165.46 33.7582C1165.88 33.7079 1166.28 33.5235 1166.63 33.3078C1166.76 33.2292 1166.89 33.1374 1167 33.0403ZM1149.62 18.471C1150.35 18.7994 1151.06 19.1768 1151.79 19.4977C1153.23 20.1342 1154.65 20.8741 1155.99 21.7141C1157.35 22.5642 1158.66 23.4592 1159.86 24.5194C1160 24.6437 1160.14 24.7694 1160.28 24.8949C1160.31 25.1691 1160.33 25.4444 1160.34 25.7219C1160.34 25.8711 1160.34 26.0271 1160.34 26.1874C1158.07 23.3833 1155.33 21.1709 1151.85 19.7792C1151.25 19.5379 1150.63 19.3231 1150.01 19.1242C1149.87 18.9202 1149.74 18.7036 1149.62 18.471ZM1149.69 15.7812C1150.1 15.2453 1151.26 15.289 1152 15.4085C1153.18 15.6017 1154.23 16.0154 1155.24 16.6142C1156.44 17.3218 1157.48 18.2803 1158.29 19.4078C1157.89 19.1832 1157.48 18.9713 1157.07 18.7746L1156.79 18.6406C1155.21 17.9052 1153.51 17.2061 1151.79 16.9781C1150.99 16.8726 1150.14 16.7199 1149.34 16.8059C1149.37 16.4161 1149.49 16.0505 1149.69 15.7812Z" fill="black"/>
<path fill-rule="evenodd" clip-rule="evenodd" d="M1121.95 74.8815C1121.69 74.4172 1121.07 73.987 1120.51 74.053C1117.98 74.3486 1117.98 77.4047 1118.96 79.1888C1119.83 80.7708 1121.62 81.6994 1123.41 81.5638C1125.29 81.4212 1126.89 80.3171 1127.6 78.5603C1128.07 77.3982 1128.28 75.2529 1127.04 74.4721C1127.02 74.4574 1126.98 74.4611 1126.96 74.4822C1126.36 75.1731 1126.34 76.2106 1125.82 76.9799C1125.34 77.6954 1124.58 78.2863 1123.7 78.3775C1123.04 78.4458 1122.37 78.2087 1122.12 77.6185C1121.98 77.2992 1121.99 77.1259 1122.05 76.9062L1122.09 76.7153C1122.26 76.0465 1122.33 75.5373 1121.95 74.8815ZM1121.28 61.4787C1119.96 62.2778 1117.95 64.1412 1119.37 66.1222C1121.04 67.869 1123.44 65.8662 1124.62 64.9604C1125.72 64.2584 1126.96 66.0639 1125.94 66.8836C1117.38 73.2024 1113.91 61.6877 1120.61 60.5392C1121.35 60.4126 1121.62 61.2315 1121.28 61.4787ZM1135.19 55.9995C1134.38 54.7888 1132.54 54.9671 1132.09 56.4037C1131.85 57.1819 1132.19 57.8814 1132.17 58.6586C1132.15 59.3151 1132.2 60.0466 1132.4 60.6824C1132.86 62.1323 1134.16 63.1563 1135.71 63.1138C1137.25 63.0715 1138.61 62.0983 1139.25 60.7277C1139.9 59.3518 1139.77 57.9279 1139.29 56.5289C1139.27 56.4617 1139.18 56.4291 1139.13 56.4857C1138.57 57.0784 1138.16 57.704 1137.74 58.3677L1137.3 59.0479C1136.97 59.5601 1136.49 60.2144 1135.87 60.1733L1135.78 60.1641C1135.61 60.1494 1135.63 60.1835 1135.5 59.9495C1135.44 59.8412 1135.45 59.64 1135.42 59.5122L1135.41 59.469L1135.41 59.4457C1135.43 59.3838 1135.44 59.2672 1135.45 59.0649L1135.45 59.0202C1135.5 58.0736 1135.77 56.8572 1135.19 55.9995ZM1114.69 56.8052C1114.84 55.2568 1112.66 54.913 1111.93 56.0587C1111.55 56.6562 1111.44 57.4067 1111.36 58.1178L1111.32 58.4553C1111.23 59.1856 1111.2 59.9454 1111.52 60.6266C1112.02 61.6995 1113.11 62.2667 1114.28 62.1769C1115.4 62.0909 1116.42 61.4424 1116.96 60.4579C1117.44 59.5794 1117.92 57.8643 1117.34 56.948C1117.3 56.8925 1117.23 56.8853 1117.18 56.9281C1116.63 57.4168 1116.54 58.3082 1116.21 58.9449C1115.88 59.6015 1115.36 60.2415 1114.59 60.3413C1113.84 60.4367 1113.56 60.0312 1113.75 59.3235C1113.99 58.4099 1114.6 57.7883 1114.69 56.8052ZM1134.6 46.7939L1134.25 46.6575C1133.02 46.1967 1131.34 45.6642 1130.35 46.656C1129.74 47.2676 1129.62 48.1685 1130.06 48.9149C1130.59 49.8189 1131.54 49.8412 1132.46 49.9744C1133.5 50.1259 1134.57 50.4138 1135.54 50.8243C1136.63 51.2869 1137.65 51.8635 1138.65 52.5075C1139.59 53.1194 1140.54 54.1196 1141.67 54.3081C1141.72 54.3158 1141.77 54.2959 1141.78 54.2453C1142.04 53.1398 1141.32 52.0519 1140.68 51.1894C1139.91 50.1452 1138.98 49.2881 1137.93 48.5197C1136.92 47.7778 1135.77 47.2418 1134.6 46.7939ZM1112.4 50.7243L1112.29 50.7053C1111.55 50.5822 1110.87 50.6105 1110.31 51.1963C1109.89 51.6432 1109.72 52.2224 1109.93 52.8133C1110.11 53.3584 1110.53 53.9122 1111.14 54.0264C1113.2 54.4122 1115.47 54.3485 1117.54 54.0563C1118.49 53.9226 1119.44 53.759 1120.36 53.501L1120.78 53.3785C1121.55 53.1595 1122.43 52.9307 1122.99 52.3667C1123.19 52.1641 1123.07 51.8741 1122.83 51.7802C1121.86 51.3997 1120.52 51.6021 1119.49 51.5724C1118.28 51.5379 1117.07 51.4475 1115.87 51.323C1114.69 51.2012 1113.55 50.9364 1112.4 50.7243Z" fill="black"/>
<path fill-rule="evenodd" clip-rule="evenodd" d="M1106.56 63.0375C1107.73 64.6122 1109.91 65.1137 1111.92 64.9405C1116.25 64.5244 1117.62 59.6148 1117.76 55.7988C1114.85 56.6143 1118 50.8389 1108.07 50.2038C1104.57 49.9127 1105.54 52.0224 1103.99 53.5638C1104.02 56.7988 1104.56 60.3139 1106.56 63.0375ZM1127.2 59.32C1129.75 71.2721 1143.76 68.4291 1145.23 57.6551C1143.87 56.6983 1144.23 54.3357 1142.54 53.4796C1139.87 51.7742 1136.52 51.8472 1133.49 51.8872C1129.6 52.1534 1128.5 53.7584 1126.5 55.5094C1126.6 56.679 1126.87 58.0651 1127.2 59.32ZM1101.01 48.2243C1101.15 48.2005 1101.3 48.178 1101.44 48.1569C1101.55 48.0934 1101.69 48.0445 1101.84 48.0151C1102.19 47.9264 1102.54 47.8667 1102.88 47.8345C1107.86 46.7167 1119.38 48.3039 1119.85 52.5427C1121.44 53.0707 1122.81 52.5979 1124.65 52.6449C1126.05 46.8119 1150.23 47.6352 1151.39 51.1519C1151.39 51.1507 1151.4 51.1496 1151.4 51.1482C1152.52 50.8032 1154.17 50.8864 1155.45 50.8317C1158.18 50.7746 1160.91 51.0175 1163.58 51.5922C1168.59 52.3855 1175.42 53.3143 1171.94 59.5483C1171.93 59.5493 1171.93 59.5505 1171.93 59.5516L1171.93 59.5511C1171.33 60.1644 1170.32 59.6705 1170.28 58.8402C1171.45 55.8869 1168.81 55.5323 1166.77 54.6836C1161.71 52.8702 1156.56 52.6188 1151.33 53.1797C1150.94 53.6421 1150.34 54.0453 1149.71 54.2563C1146.21 54.8357 1148.05 57.4248 1145.84 57.8014C1146.25 66.8268 1135.27 71.7533 1128.9 65.8204C1126.36 63.342 1125.76 59.6705 1125.17 56.3611C1124.86 56.2913 1124.66 56.1214 1124.54 55.8965C1123.79 55.1503 1123.32 54.4612 1121.84 54.2563C1120.36 54.0516 1119.22 54.4626 1119.07 54.5885C1119.03 54.6667 1118.99 54.745 1118.94 54.8234C1118.87 54.9402 1118.78 55.0333 1118.67 55.1066C1120.14 64.0941 1113.14 69.7779 1106.08 65.1165C1103.02 62.2375 1102.37 57.8298 1102.24 53.8956C1101.83 53.6453 1101.56 53.1601 1101.71 52.55C1101.9 51.7092 1101.44 50.9811 1100.7 50.6155C1099.74 50.1407 1099.91 48.4069 1101.01 48.2243Z" fill="black"/>
<defs>
<clipPath id="clip0_378_11894">
<rect width="66.8468" height="131.887" fill="white" transform="translate(989.508 148.003) rotate(70.7437)"/>
</clipPath>
</defs>
</svg>
