<svg width="78" height="78" viewBox="0 0 78 78" fill="none" xmlns="http://www.w3.org/2000/svg">
<rect width="78" height="78" rx="12" fill="url(#paint0_linear_8686_51529)"/>
<path d="M44.5252 38.9503C44.5252 35.9918 42.0516 33.5932 39 33.5932C35.9486 33.5932 33.4748 35.9918 33.4748 38.9503C33.4748 41.9091 35.9486 44.3077 39 44.3077C42.0516 44.3077 44.5252 41.9091 44.5252 38.9503Z" fill="#61DAFB"/>
<path fill-rule="evenodd" clip-rule="evenodd" d="M56.9445 29.0045C58.1114 24.4074 59.578 15.8824 54.4077 12.9922C49.2616 10.1146 42.5649 15.6286 39.0288 18.9384C35.5029 15.6616 28.6181 10.1711 23.4521 13.0705C18.308 15.9578 19.8943 24.3414 21.087 28.9673C16.2884 30.2888 8.0625 33.1351 8.0625 38.9503C8.0625 44.749 16.2798 47.8456 21.05 49.1658C19.8529 53.8174 18.346 62.0813 23.4967 64.962C28.6819 67.8609 35.5454 62.5012 39.1142 59.1552C42.673 62.4844 49.3055 67.8793 54.4526 64.9904C59.616 62.0924 58.2711 53.6817 57.0784 49.0288C61.7025 47.7058 69.9375 44.6767 69.9375 38.9503C69.9375 33.1909 61.6676 30.3216 56.9445 29.0045ZM56.3585 46.5631C55.5753 44.1595 54.5183 41.6035 53.2253 38.963C54.4594 36.385 55.4754 33.8619 56.2366 31.4737C59.699 32.447 67.2944 34.6714 67.2944 38.9503C67.2944 43.2693 60.0058 45.5148 56.3585 46.5631ZM53.128 62.7724C49.2878 64.9277 43.5832 59.7686 40.9549 57.3168C42.6984 55.4679 44.4409 53.3183 46.1414 50.9315C49.1328 50.6742 51.9588 50.2534 54.5216 49.6791C55.3611 52.9701 56.9855 60.6073 53.128 62.7724ZM24.8175 62.7416C20.9767 60.5944 22.7322 53.2202 23.6129 49.7938C26.1472 50.3373 28.9527 50.7283 31.9512 50.9641C33.6629 53.2998 35.4557 55.4466 37.2625 57.3267C35.0302 59.4203 28.6762 64.8988 24.8175 62.7416ZM10.7056 38.9503C10.7056 34.6151 18.2555 32.4069 21.7968 31.436C22.5712 33.8778 23.5868 36.4309 24.8125 39.0127C23.571 41.633 22.5408 44.2267 21.7593 46.6972C18.3826 45.7601 10.7056 43.2882 10.7056 38.9503ZM24.7764 15.2886C28.6329 13.1242 34.6166 18.3953 37.1765 20.7678C35.3791 22.6393 33.6027 24.77 31.9057 27.0921C28.9957 27.3536 26.2099 27.7736 23.649 28.3362C22.6882 24.6052 20.9241 17.4506 24.7764 15.2886ZM48.0322 29.8778C50.0066 30.1194 51.898 30.4406 53.6741 30.8338C53.1409 32.4908 52.4763 34.2235 51.6937 35.9998C50.5591 33.9124 49.3411 31.8671 48.0322 29.8778ZM39.0296 22.5992C40.2487 23.8797 41.4697 25.3098 42.6708 26.8611C40.2345 26.7495 37.7941 26.7489 35.3577 26.8595C36.5598 25.3225 37.7913 23.8946 39.0296 22.5992ZM26.329 35.9979C25.5593 34.2278 24.9007 32.4874 24.3629 30.8068C26.1283 30.4236 28.0109 30.1106 29.9724 29.873C28.6599 31.8579 27.444 33.9025 26.329 35.9979ZM30.0288 48.2106C28.0025 47.9913 26.0913 47.6942 24.3265 47.3217C24.8728 45.6113 25.5459 43.8335 26.3321 42.0254C27.4624 44.1424 28.6968 46.2069 30.0288 48.2106ZM39.1027 55.4825C37.8499 54.1717 36.6004 52.722 35.3799 51.1627C37.8302 51.2561 40.2852 51.2563 42.7351 51.1502C41.5303 52.7379 40.3136 54.1897 39.1027 55.4825ZM51.7189 41.9332C52.5459 43.761 53.2431 45.5292 53.7968 47.2107C52.0026 47.6076 50.0657 47.9273 48.0248 48.1646C49.3435 46.1378 50.5806 44.0606 51.7189 41.9332ZM44.6662 48.4753C40.9184 48.7349 37.147 48.7322 33.3979 48.4965C31.2674 45.4792 29.3711 42.3061 27.7341 39.0119C29.3631 35.7245 31.2457 32.5576 33.3661 29.5451C37.1181 29.2701 40.893 29.2694 44.6449 29.5467C46.7469 32.5591 48.6267 35.7177 50.2936 38.9755C48.6465 42.2613 46.754 45.4346 44.6662 48.4753ZM53.0875 15.2124C56.945 17.3696 55.2279 25.0312 54.3852 28.3628C51.8183 27.7885 49.0306 27.361 46.1121 27.0955C44.4118 24.7482 42.6502 22.6138 40.8818 20.7664C43.4746 18.3428 49.2673 13.0762 53.0875 15.2124Z" fill="#61DAFB"/>
<defs>
<linearGradient id="paint0_linear_8686_51529" x1="2.81928" y1="78" x2="75.1807" y2="3.75904" gradientUnits="userSpaceOnUse">
<stop stop-color="#141414"/>
<stop offset="1" stop-color="#323232"/>
</linearGradient>
</defs>
</svg>
