<svg width="371" height="371" viewBox="0 0 371 371" fill="none" xmlns="http://www.w3.org/2000/svg">
<path d="M101.251 210.667L119.508 199.738C119.508 199.738 123.259 192.139 132.885 192.059C142.51 191.98 149.389 199.491 149.389 199.491C149.389 199.491 160.943 210.563 153.067 222.288C145.191 234.013 141.544 229.727 141.544 229.727L123.726 248.504L125.58 240.392L101.942 257.051L107.855 243.826C107.855 243.826 67.372 267.535 76.4577 257.661C85.5433 247.787 92.542 244.685 97.0109 234.387L79.3745 234.558C87.9069 225.538 95.598 221.444 106.1 212.432L101.251 210.667Z" fill="white"/>
<path fill-rule="evenodd" clip-rule="evenodd" d="M208.059 123.669C217.502 114.19 279.635 102.148 280.739 115.094C281.842 128.041 262.217 165.077 262.217 165.077L217.148 198.338C217.148 198.338 227.315 222.669 209.012 238.767C190.709 254.864 169.325 260.024 169.325 260.024C169.325 260.024 180.125 240.501 180.034 229.539C179.943 218.577 174.866 207.159 174.866 207.159L150.979 210.845C149.629 210.132 148.283 209.72 147.056 209.345C142.368 207.91 139.438 207.013 144.843 191.96C145.44 190.845 146.027 189.811 146.577 188.842C151.459 180.245 153.458 176.725 133.666 166.141L95.7409 159.479C95.7409 159.479 109.572 144.78 136.421 137.649C163.269 130.518 176.85 145.852 176.85 145.852L208.059 123.669ZM258.801 131.455C263.399 138.23 261.959 144.929 250.15 161.258C238.855 171.081 224.753 168.326 220.874 166.914C216.995 165.502 210.224 144.579 223.074 131.75C235.924 118.922 258.751 127.782 258.801 131.455Z" fill="white"/>
<path fill-rule="evenodd" clip-rule="evenodd" d="M125.328 230.628C124.286 225.999 124.754 227.509 113.897 235.634C112.014 237.046 110.92 238.246 109.025 237.997C110.586 233.068 119.642 223.275 112.511 223.689C110.081 223.841 111.193 224.564 109.155 223.416C112.352 221.378 118.035 218.805 120.379 216.211C120.254 212.451 117.451 213.244 115.003 210.942C115.659 210.753 123.073 209.425 123.422 209.41C125.973 212.356 127.088 214.5 129.303 217.452C130.688 219.299 131.371 219.299 132.805 221.336C133.85 222.831 134.658 223.705 135.687 225.154C132.632 227.256 131.165 226.439 125.328 230.628ZM113.208 210.067L112.564 211.917L118.317 215.385C110.488 222.587 103.496 221.718 104.751 225.846C107.588 226.49 110.777 225.274 113.379 225.809C113.173 227.862 109.748 233.165 107.81 237.77C106.641 240.564 106.732 239.167 107.586 241.924C110.608 241.651 119.379 234.16 122.397 231.706C123.491 234.455 122.325 236.317 128.544 231.423C130.78 229.671 133.999 227.787 136.647 226.788L139.469 229.967L138.13 231.978C136.095 234.302 135.476 233.779 132.794 237.291C131.686 238.749 127.2 243.271 125.724 244.492C125.593 242.749 125.827 243.314 126.349 241.707C126.975 239.757 127.75 240.942 125.763 239.356C123.78 238.737 109.494 253.098 104.729 254.869L103.545 255.112C104.188 252.655 106.87 249.144 108.033 245.861C110.474 239.018 96.5191 248.935 94.9489 249.676C92.9262 250.624 91.681 250.913 89.5278 252.167C86.8795 253.698 81.2428 256.788 78.406 255.916C82.2568 252.192 85.7857 248.444 90.0587 244.954C93.1624 242.436 98.8993 237.886 98.0363 233.749C96.0104 232.44 84.348 235.646 80.5331 233.192C84.803 229.192 98.4756 220.796 106.909 212.932C104.655 209.725 105.257 211.817 102.614 210.193C104.106 209.017 118.103 201.459 119.033 201.408C120.196 201.921 121.226 205.723 122.216 207.296C119.516 208.581 115.2 209.104 113.208 210.067ZM127.218 208.423L140.235 202.113C141.125 201.807 140.773 201.843 141.274 201.828C140.663 202.912 138.359 207.66 138.094 207.991L132.859 212.298C131.213 213.57 132.686 212.902 131.173 213.163L127.218 208.423ZM143.297 210.675L135.915 219.763L132.564 214.816C134.505 213.075 135.24 212.334 137.609 210.937C139.446 209.843 138.353 209.676 141.842 210.305L142.924 210.557C143.018 210.581 143.188 210.605 143.297 210.675ZM149.284 213.113L138.612 223.51L136.935 220.972C138.262 218.742 141.199 216.482 142.793 214.508C144.855 211.993 146.268 210.763 149.284 213.113ZM151.71 212.527L155.076 212.812C152.698 217.842 153.709 218.051 149.458 222.683C146.782 225.621 141.395 231.37 139.736 224.3C141.257 221.925 144.559 220.379 146.782 218.559C149.743 216.129 149.749 215.327 151.71 212.527ZM125.955 206.333L123.434 202.795C127.515 200.037 133.45 198.053 138.254 197.297C140.629 196.92 141.717 196.142 142.446 198.329C141.744 199.064 136.196 201.233 134.683 202.026C132.758 203.053 127.601 206.275 125.955 206.333ZM123.042 201.514L121.438 197.705C125.738 194.479 135.63 192.052 142.151 194.924C138.695 196.416 131.503 195.205 123.042 201.514ZM99.2752 158.594C109.291 148.993 125.066 144.488 137.861 140.793C143.382 139.195 154.72 138.113 160.451 139.376C165.627 140.505 164.491 138.434 173.423 144.168C166.059 151.002 158.281 158.07 153.268 167.355C151.959 169.761 150.201 173.414 148.828 175.507C147.045 173.181 145.575 171.398 143.16 169.925C141.034 168.635 139.263 167.059 137.313 165.902C129.872 161.498 131.773 162.844 125.21 160.648C121.711 159.476 116.204 158.69 112.648 158.605C109.838 158.53 100.997 159.524 99.2752 158.594ZM215.554 201.141C216.638 203.726 217.216 214.341 217.031 217.764C216.664 224.664 212.88 228.3 207.708 233.072C197.86 242.187 192.39 246.005 181.244 252.506C179.55 253.511 172.999 257.609 171.969 257.983C170.42 256.145 177.806 249.01 179.612 235.449C180.674 227.401 180.297 218.344 176.645 210.566C179.032 209.573 183.576 209.202 186.416 208.609L205.68 204.276C209.015 203.408 212.495 202.05 215.554 201.141ZM155.051 174.009C157.095 178.987 159.471 184.077 161.898 188.882C165.814 196.708 169.097 198.479 171.621 201.768L150.24 206.113C148.743 206.192 144.582 205.326 143.279 204.576C143.33 203.835 147.936 191.629 148.632 189.341C149.898 185.183 152.269 177.159 155.051 174.009ZM156.332 170.808C158.483 168.891 157.966 169.089 159.205 166.793C159.898 165.514 161.255 164.211 162.203 163.12C164.489 160.475 166.67 158.422 169.254 156.046C174.232 151.496 180.448 145.941 186.122 142.369C186.911 143.826 186.979 149.433 189.145 155.838C193.291 168.123 196.147 173.65 205.004 183.788C206.869 185.92 208.543 186.278 210.772 188.137C212.759 189.798 214.8 190.317 216.971 192.352C210.827 195.499 182.552 202.319 179.354 201.396C177.966 200.558 171.873 194.992 170.248 193.458C166.827 190.215 164.741 186.37 162.265 182.437C164.169 181.863 165.794 179.904 167.713 178.692C169.277 177.689 172.105 176.954 172.615 175.204C170.574 173.774 163.589 179.242 161.651 180.809L156.332 170.808ZM189.077 140.588C192.435 137.348 208.225 128.332 212.726 126.512C217.251 124.674 221.333 122.22 224.394 120.835C226.098 120.069 228.294 119.656 230.104 118.83C232.087 117.931 233.241 117.141 235.479 116.43C245.645 113.228 246.683 112.335 257.86 112C261.881 111.869 274.431 114.301 278.716 115.433C278.337 119.913 276.57 128.11 275.441 132.602C272.025 146.118 267.634 153.778 258.484 164.761C254.05 170.062 228.033 191.458 222.435 189.107C219.826 188.008 208.949 179.253 206.832 176.987C199.093 168.669 189.254 151.048 189.077 140.588ZM174.854 143.038C167.509 132.335 147.667 132.963 136.406 134.728C121.402 137.098 105.798 145.197 94.6068 155.357C93.8355 157.872 93.8083 159.05 91.9406 161.192C94.0972 163.864 95.6249 163.952 98.7258 163.354C99.8648 163.126 101.095 163.095 102.14 163.223C103.986 163.432 104.144 163.162 105.875 163.192L116.63 163.838L127.051 166.899C128.791 167.7 128.566 167.451 130.267 167.846C134.756 168.921 143.343 175.559 147.018 179.826L143.475 192.033C140.696 191.365 140.119 190.089 136.298 189.804C135.18 189.731 130.044 189.768 129.088 190.087C117.778 193.863 119.247 193.14 118.622 199.266C114.738 202.009 103.009 207.96 100.403 209.725L100.391 211.784L103.277 213.303C99.4563 217.193 94.4028 221.06 90.1116 224.45C87.1657 226.774 78.5163 231.364 77.9699 234.811C80.2054 237.538 92.4328 234.099 96.4662 234.946C94.8326 239.854 83.7354 246.774 78.4725 252.943C76.7142 255.002 74.2178 256.457 74.953 259.285C78.531 261.271 89.7861 254.384 93.4032 252.601C94.8276 251.893 95.7236 252.076 97.2269 251.195C99.3498 249.925 103.286 247.048 105.196 246.356C105.418 246.626 106.268 245.609 105.539 247.902C104.492 251.212 99.5537 254.575 100.887 259.896C107.362 256.937 117.545 247.305 123.662 242.527C123.935 244.638 123.559 244.617 122.775 246.685C122.204 248.177 121.977 248.936 122.93 250.233C124.379 249.583 129.806 243.557 131.015 242.004C133.751 238.49 137.207 236.088 140.074 232.874L141.599 234.805C147.229 232.974 150.087 231.342 153.831 225.325C155.453 222.704 155.878 221.474 156.826 218.637C157.533 216.493 157.733 213.647 158.82 211.731C164.099 210.846 168.445 210.111 173.614 210.675C176.792 220.175 179.308 229.299 176.001 239.012L170.529 252.115C167.201 264.179 162.967 261.47 164.602 265.066C165.379 265.09 167.976 263.92 169.109 263.355C176.358 259.835 171.371 261.032 180.668 258.216C183.343 257.404 180.783 258.699 186.335 256.584C191.246 254.704 193.493 252.183 197.766 250.211C205.62 246.56 220.015 232.117 220.114 221.924C220.132 220.126 220.506 218.422 220.636 216.597C221.134 209.693 218.791 201.788 218.828 200.014C220.407 199.057 223.769 197.845 225.649 197.213C230.165 195.667 227.899 196.266 232.549 193.708C237.284 191.086 241.936 187.596 246.185 184.352C258.12 175.209 259.271 172.315 267.811 161.581C273.043 155.017 275.846 145.416 278.102 137.365C278.906 134.464 282.176 113.996 281.847 111.964C279.041 112.019 281.835 113.112 278.85 111.612C276.636 110.483 272.338 109.739 269.446 108.946C258.819 106.041 247.53 106.935 237.171 110.207C216.008 116.893 190.922 127.055 174.854 143.038Z" fill="black"/>
<path fill-rule="evenodd" clip-rule="evenodd" d="M218.506 150.338C218.539 152.306 218.202 152.919 216.833 154.383C215.946 152.011 216.158 151.358 218.506 150.338ZM222.183 144.94C219.848 147.774 221.318 147.583 217.355 148.98C216.048 145.442 219.465 144.53 222.183 144.94ZM219.987 139.811C222.286 139.434 226.897 138.747 228.901 139.142C226.839 140.67 225.849 141.754 223.395 142.38C221.57 142.857 219.817 143.203 218.083 144.029C218.147 142.368 218.785 141.168 219.987 139.811ZM253.891 138.165C259.006 141.845 255.164 145.05 252.887 149.378C251.359 152.251 247.703 158.259 245.355 160.267C238.765 165.932 228.324 169.626 220.997 163.276C214.75 157.882 224.592 144.785 229.533 141.553C236.3 137.161 246.446 132.796 253.891 138.165ZM220.968 137.727C223.789 134.529 224.366 134.893 228.494 134.929C231.139 134.938 234.006 134.534 236.372 135.512C232.825 137.185 232.251 137.028 228.546 137.149L223.051 137.873C221.308 138.003 222.599 138.079 220.968 137.727ZM230.231 128.994C233.316 129.565 239.655 131.511 241.915 133.537C237.277 135.402 241.304 133.33 233.444 133.532C231.507 133.58 226.614 133.891 225.053 133.201L230.231 128.994ZM233.24 128.198C241.188 122.369 248.666 129.555 253.985 135.304C252.776 135.489 249.478 134.432 248.287 133.959C246.325 133.19 247.831 132.288 243.874 131.669C241.274 131.265 240.748 130.236 238.395 129.628C236.709 129.203 234.732 128.845 233.24 128.198ZM255.622 135.537C256.336 138.21 258.972 136.688 257.49 138.863L254.525 135.999C255.591 134.459 254.304 136.488 255.622 135.537ZM248.991 128.191C250.649 128.352 253.091 129.026 254.574 130.268C255.649 131.17 257.699 133.903 258.015 135.185C255.242 136.145 252.311 131.073 248.991 128.191ZM223.567 130.462C219.063 134.808 215.483 139.981 214.715 146.271C213.95 152.388 213.699 158.253 216.979 163.841C224.698 177.015 243.002 170.062 249.863 162.429C254.804 156.919 261.895 146.228 261.988 138.127C262 136.068 259.776 130.902 258.018 129.469C255.843 127.683 246.704 122.484 241.753 122.819C234.099 123.321 229.289 124.955 223.567 130.462Z" fill="black"/>
<path fill-rule="evenodd" clip-rule="evenodd" d="M167.612 161.241C169.34 163.343 169.966 159.799 175.654 155.892C178.336 154.051 183.653 151.069 185.633 148.9C183.495 146.252 178.196 151.84 176.097 153.32C173.947 154.857 167.985 158.778 167.612 161.241Z" fill="black"/>
<path fill-rule="evenodd" clip-rule="evenodd" d="M211.421 206.057C210.999 208.025 211.622 208.754 211.989 210.586C212.302 212.116 211.993 213.298 212.041 215.008C212.16 218.734 208.895 220.253 209.488 223.245C211.863 223.703 211.675 221.756 212.677 219.828C213.992 217.304 214.186 217.689 214.186 214.652C214.192 212.787 214.097 211.017 213.793 209.194C213.401 206.85 214.206 204.86 211.421 206.057Z" fill="black"/>
<path fill-rule="evenodd" clip-rule="evenodd" d="M147.226 144.717C148.587 145.974 147.63 145.534 149.796 144.954C150.731 144.708 151.663 144.483 152.626 144.273C154.758 143.775 156.043 143.589 158.145 143.607C166.029 143.692 166.078 147.376 168.474 145.104C166.837 142.516 160.72 141.827 158.059 141.849C156.225 141.858 154.409 142.044 152.568 142.475L148.335 143.563C146.336 144.568 147.399 144.264 147.226 144.717Z" fill="black"/>
<path fill-rule="evenodd" clip-rule="evenodd" d="M189.61 195.128C191.244 196.218 192.076 195.176 194.539 194.562C198.396 193.605 209.609 192.483 210.775 191.457C209.366 188.869 204.009 191.066 200.057 191.998C197.813 192.524 190.096 192.941 189.61 195.128Z" fill="black"/>
<path fill-rule="evenodd" clip-rule="evenodd" d="M208.293 207.956C205.879 210.659 208.64 215.479 204.476 220.33L205.986 221.38C208.558 219.014 208.965 214.495 209.32 211.248C209.529 209.249 209.851 209.122 208.293 207.956Z" fill="black"/>
<path fill-rule="evenodd" clip-rule="evenodd" d="M193.065 188.922C194.419 190.905 196.749 189.329 198.726 188.776C200.852 188.168 203.336 188.317 204.794 186.54C203.218 184.742 201.149 186.464 199.075 187.014C197.441 187.443 194.361 188.044 193.065 188.922Z" fill="black"/>
<path fill-rule="evenodd" clip-rule="evenodd" d="M175.501 159.992C176.986 161.669 178.079 160.165 179.698 158.932C182.926 156.453 184.342 156.189 184.041 154.118C181.972 153.41 181.967 154.668 180.129 156.293C178.641 157.599 177.001 158.677 175.501 159.992Z" fill="black"/>
<path fill-rule="evenodd" clip-rule="evenodd" d="M151.835 147.773C153.208 149.021 154.747 147.961 157.177 147.961C159.64 147.955 160.706 148.769 162.826 147.293C160.399 145.601 152.691 145.574 151.835 147.773Z" fill="black"/>
<path fill-rule="evenodd" clip-rule="evenodd" d="M173.461 180.733C171.967 179.424 171.211 180.466 169.498 181.675C167.83 182.869 166.588 183.288 167.499 185.186C169.161 184.794 172.778 182.252 173.461 180.733Z" fill="black"/>
<path fill-rule="evenodd" clip-rule="evenodd" d="M249.202 167.767C249.651 168.037 249.949 168.535 250.842 168.283C252.956 167.685 251.944 167.171 251.844 166.43C250.058 166.555 250.86 166.333 249.202 167.767Z" fill="black"/>
<path fill-rule="evenodd" clip-rule="evenodd" d="M256.127 160.677C254.86 161.114 255.659 160.154 254.648 161.843L255.295 163.161L257.065 162.232L256.127 160.677Z" fill="black"/>
<path fill-rule="evenodd" clip-rule="evenodd" d="M155.432 153.079C156.155 154.625 156.416 154.77 157.913 153.476C157.223 152.076 156.725 152.222 155.432 153.079Z" fill="black"/>
<path fill-rule="evenodd" clip-rule="evenodd" d="M173.425 187.518C172.097 186.71 171.739 187.244 171.396 188.508C172.769 189.604 173.255 189.316 173.425 187.518Z" fill="black"/>
<path fill-rule="evenodd" clip-rule="evenodd" d="M201.361 213.851C201.661 215.695 202.214 215.394 203.62 214.51C202.63 213.469 202.776 213.056 201.361 213.851Z" fill="black"/>
<path fill-rule="evenodd" clip-rule="evenodd" d="M194.658 184.745C195.153 185.455 194.84 185.747 195.858 185.61C197.562 185.376 196.681 184.708 196.711 184.647C195.727 184.171 196.119 183.858 194.658 184.745Z" fill="black"/>
<path fill-rule="evenodd" clip-rule="evenodd" d="M180.708 162.937C182.263 163.821 180.453 163.888 182.552 163.016C181.54 161.819 181.704 161.431 180.708 162.937Z" fill="black"/>
<path fill-rule="evenodd" clip-rule="evenodd" d="M119.387 251.226L120.444 251.8C119.21 250.182 120.28 251.354 119.387 251.226Z" fill="black"/>
</svg>
