<svg width="29" height="34" viewBox="0 0 29 34" fill="none" xmlns="http://www.w3.org/2000/svg">
<g clip-path="url(#clip0_260_8252)">
<path d="M11.6406 27.546C12.1302 26.6033 12.5546 25.5928 13.0696 24.7029C13.9459 23.2121 15.2102 22.2567 17.0182 22.0252C18.5309 21.8562 20.0152 21.7632 21.5534 21.6471C22.0217 21.6062 22.5154 21.6181 22.9837 21.5772C23.3583 21.5444 23.6566 21.3531 23.6657 20.9666C23.6718 20.7089 23.4508 20.4527 23.3235 20.1884C23.2981 20.1355 23.2187 20.1057 23.1393 20.0759C20.2306 18.2915 18.8529 15.5652 18.3924 12.4465C17.9625 9.7291 17.8135 6.9872 17.517 4.27655C17.4864 3.87517 17.4558 3.47379 17.357 3.13346C17.2949 2.93686 17.0343 2.66579 16.8215 2.62929C16.6087 2.59279 16.285 2.73129 16.1598 2.94426C15.9949 3.14233 15.9207 3.46105 15.8606 3.7418C15.7406 4.30328 15.6205 4.86476 15.5259 5.47912C15.1617 7.89855 13.8732 9.88455 12.5846 11.8705C11.9902 12.7306 11.1381 13.1908 10.0937 13.3188C8.76822 13.4714 7.47432 13.4192 6.14376 13.2233C5.71822 13.1503 5.16236 12.9418 4.90894 13.4966C4.64127 14.0893 5.14014 14.4498 5.53414 14.7275C7.26897 15.8983 8.16298 17.62 8.86665 19.487C9.59577 21.4068 9.97571 23.4122 9.94133 25.4355C9.92823 26.557 9.87542 27.6636 9.87656 28.7471C9.88473 28.9668 9.81349 29.1567 9.88986 29.3153C9.97744 29.5647 10.1556 29.9349 10.3287 29.9565C10.5415 29.993 10.8143 29.7487 11.0189 29.5655C11.1553 29.4434 11.1868 29.2386 11.258 29.0487C11.4433 28.555 11.6285 28.0613 11.7995 27.6056C11.7201 27.5758 11.6803 27.5609 11.6406 27.546Z" fill="#575757"/>
</g>
<defs>
<clipPath id="clip0_260_8252">
<rect width="20.3551" height="27.9882" fill="white" transform="matrix(-0.93628 -0.351255 -0.351255 0.93628 28.889 7.14982)"/>
</clipPath>
</defs>
</svg>
