<svg width="29" height="34" viewBox="0 0 29 34" fill="none" xmlns="http://www.w3.org/2000/svg">
<g clip-path="url(#clip0_260_8222)">
<path d="M11.6406 27.5461C12.1302 26.6033 12.5546 25.5928 13.0696 24.703C13.9459 23.2122 15.2102 22.2568 17.0182 22.0253C18.5309 21.8563 20.0152 21.7633 21.5534 21.6472C22.0217 21.6063 22.5154 21.6182 22.9837 21.5773C23.3583 21.5445 23.6566 21.3532 23.6657 20.9667C23.6718 20.709 23.4508 20.4528 23.3235 20.1885C23.2981 20.1356 23.2187 20.1058 23.1393 20.076C20.2306 18.2916 18.8529 15.5653 18.3924 12.4465C17.9625 9.72918 17.8135 6.98728 17.517 4.27664C17.4864 3.87525 17.4558 3.47387 17.357 3.13355C17.2949 2.93695 17.0343 2.66587 16.8215 2.62937C16.6087 2.59287 16.285 2.73137 16.1598 2.94434C15.9949 3.14242 15.9207 3.46114 15.8606 3.74188C15.7406 4.30336 15.6205 4.86484 15.5259 5.4792C15.1617 7.89863 13.8732 9.88463 12.5846 11.8706C11.9902 12.7307 11.1381 13.1909 10.0937 13.3189C8.76822 13.4715 7.47432 13.4193 6.14376 13.2234C5.71822 13.1504 5.16236 12.9419 4.90894 13.4966C4.64127 14.0894 5.14014 14.4498 5.53414 14.7276C7.26897 15.8984 8.16298 17.6201 8.86665 19.487C9.59577 21.4069 9.97571 23.4123 9.94133 25.4356C9.92823 26.5571 9.87542 27.6637 9.87656 28.7472C9.88473 28.9669 9.81349 29.1567 9.88986 29.3154C9.97744 29.5648 10.1556 29.9349 10.3287 29.9566C10.5415 29.9931 10.8143 29.7488 11.0189 29.5656C11.1553 29.4435 11.1868 29.2387 11.258 29.0488C11.4433 28.5551 11.6285 28.0614 11.7995 27.6057C11.7201 27.5759 11.6803 27.561 11.6406 27.5461Z" fill="#ABFFC3"/>
</g>
<defs>
<clipPath id="clip0_260_8222">
<rect width="20.3551" height="27.9882" fill="white" transform="matrix(-0.93628 -0.351255 -0.351255 0.93628 28.889 7.1499)"/>
</clipPath>
</defs>
</svg>
