<svg width="181" height="41" viewBox="0 0 181 41" fill="none" xmlns="http://www.w3.org/2000/svg">
<path d="M95.1687 24.7708C90.5897 24.7708 86.961 28.2729 86.961 32.8854C86.961 37.4979 90.6761 41 95.1687 41C99.7477 41 103.376 37.4125 103.376 32.8854C103.376 28.2729 99.7477 24.7708 95.1687 24.7708ZM95.1687 28.0167C97.9333 28.0167 100.007 30.0667 100.007 32.8854C100.007 35.7042 97.8469 37.7542 95.1687 37.7542C92.404 37.7542 90.3305 35.7042 90.3305 32.8854C90.2441 30.0667 92.404 28.0167 95.1687 28.0167ZM163.508 35.7896V28.3583H167.396V25.1125H163.508V20.7563L160.139 21.7812V25.1125H157.288V28.3583H160.139V35.7896C160.139 39.8042 162.212 41.2563 167.396 40.5729V37.5833C164.804 37.7542 163.508 37.7542 163.508 35.7896ZM180.96 37.4979H173.271L180.96 28.3583V25.2833H169.037V28.3583H176.727L169.037 37.4979V40.6583H180.96V37.4979ZM112.88 24.9417V28.5292C110.634 28.3583 108.042 29.3833 108.042 32.8854V40.6583H104.672V25.1979H108.042V27.7604C108.992 25.7104 110.893 24.9417 112.88 24.9417ZM121.001 24.7708C116.422 24.7708 112.793 28.2729 112.793 32.8854C112.793 37.4979 116.509 41 121.001 41C125.58 41 129.209 37.4125 129.209 32.8854C129.295 28.2729 125.667 24.7708 121.001 24.7708ZM121.001 28.0167C123.766 28.0167 125.839 30.0667 125.839 32.8854C125.839 35.7042 123.679 37.7542 121.001 37.7542C118.236 37.7542 116.163 35.7042 116.163 32.8854C116.163 30.0667 118.323 28.0167 121.001 28.0167ZM151.499 25.1979L146.574 40.6583H143.291L140.008 30.2375L136.725 40.6583H133.442L128.518 25.1979H132.06L135.084 35.875L138.367 25.1979H141.563L144.846 35.875L147.87 25.1979H151.499ZM155.992 25.1979H152.622V40.6583H155.992V25.1979ZM46.3548 1.025V7.43125C45.0589 6.49167 43.2446 5.72292 41.5166 5.72292C36.6785 5.72292 32.7906 9.90833 33.309 14.7771C33.741 18.5354 36.8512 21.6104 40.6527 22.0375C42.8126 22.2083 44.7997 21.6104 46.3548 20.5V21.6958H49.8107V0L46.3548 1.025ZM46.2684 13.9229C46.2684 16.9125 43.5037 19.2188 40.3935 18.5354C38.5792 18.1938 37.1104 16.7417 36.6785 14.8625C36.0737 11.7875 38.4928 9.05417 41.5166 9.05417C44.1085 9.05417 46.2684 11.1896 46.2684 13.9229ZM13.0059 6.23542V7.26042C11.71 6.32083 9.98203 5.72292 8.25411 5.72292C3.41592 5.72292 -0.471909 9.90833 0.0464681 14.7771C0.478449 18.5354 3.58871 21.6104 7.39014 22.0375C9.55005 22.2083 11.5372 21.6104 13.0923 20.5V21.6958H16.5481V6.23542H13.0059ZM13.0059 13.9229C13.0059 16.9125 10.2412 19.2188 7.13096 18.5354C5.31664 18.1938 3.8479 16.7417 3.41592 14.8625C2.81115 11.7875 5.23024 9.05417 8.25411 9.05417C10.846 9.05417 13.0059 11.1896 13.0059 13.9229ZM26.0517 5.80833C23.8918 5.80833 22.2503 6.57708 21.2135 8.2V6.15H17.8441V21.6104H21.2135V13.325C21.2135 10.1646 22.9415 8.88333 25.1878 8.88333C27.3477 8.88333 28.6436 10.0792 28.6436 12.4708V21.6104H32.0131V12.2146C32.0995 8.2 29.594 5.80833 26.0517 5.80833ZM88.8617 17.0833C88.0842 18.1938 86.7018 18.9625 84.8011 18.9625C82.2956 18.9625 80.3085 17.7667 79.7901 15.2896H92.2312C92.3176 14.8625 92.3176 14.35 92.3176 13.9229C92.3176 9.48125 89.1209 5.80833 84.4555 5.80833C79.531 5.80833 76.2479 9.39583 76.2479 13.9229C76.2479 18.5354 79.6174 22.0375 84.7147 22.0375C87.7386 22.0375 90.1577 20.7563 91.54 18.7062L88.8617 17.0833ZM84.5419 8.88333C86.6154 8.88333 88.5162 9.99375 89.0345 12.6417H79.7901C80.3085 10.3354 82.0364 8.88333 84.5419 8.88333ZM127.481 19.0479C129.382 19.0479 130.764 18.1938 131.541 17.1688L134.306 18.7917C132.837 20.9271 130.505 22.1229 127.481 22.1229C122.297 22.1229 119.014 18.6208 119.014 14.0083C119.014 9.39583 122.383 5.89375 127.222 5.89375C131.887 5.89375 135.084 9.56667 135.084 14.0083C135.084 14.1792 135.084 14.4354 134.997 14.6917C134.997 14.9479 134.911 15.1188 134.911 15.375H122.47C122.988 17.7667 124.975 19.0479 127.481 19.0479ZM131.628 12.6417C131.196 9.99375 129.209 8.88333 127.135 8.88333C124.63 8.88333 122.902 10.3354 122.383 12.6417H131.628ZM155.992 21.6958H152.622V18.7062H155.992V21.6958ZM136.725 21.6958H140.095V13.4104C140.095 10.25 141.823 8.96875 144.069 8.96875C146.142 8.96875 147.525 10.25 147.525 12.5563V21.6104H150.894V12.1292C150.894 8.11458 148.389 5.80833 144.933 5.80833C142.773 5.80833 141.131 6.57708 140.095 8.2V6.23542H136.725V21.6958ZM96.8102 10.5063C96.8102 9.39583 97.8469 8.88333 99.0565 8.88333C100.266 8.88333 101.303 9.39583 101.908 10.4208L104.845 8.96875C103.722 7.00417 101.648 5.80833 99.0565 5.80833C95.8598 5.80833 93.3543 7.60208 93.3543 10.5063C93.3543 13.7521 96.119 14.5208 98.5381 15.2042H98.6245C98.7109 15.2042 98.7973 15.2896 98.8837 15.2896C100.525 15.8021 101.735 16.1438 101.735 17.2542C101.735 18.45 100.612 18.9625 99.0565 18.9625C97.5878 18.9625 96.3782 18.3646 95.7734 17.2542L92.7496 18.7062C93.7863 20.7563 96.0326 22.0375 98.9701 22.0375C102.34 22.0375 105.104 20.3292 105.104 17.2542C105.104 13.9229 102.167 13.0688 99.8341 12.4708C98.2789 12.0438 96.8102 11.6167 96.8102 10.5063ZM109.856 10.5063C109.856 9.39583 110.893 8.88333 112.102 8.88333C113.312 8.88333 114.349 9.39583 115.04 10.5063L117.977 9.05417C116.854 7.08958 114.694 5.89375 112.189 5.89375C108.992 5.89375 106.487 7.6875 106.487 10.5917C106.487 13.8375 109.251 14.6062 111.67 15.2896H111.93C113.485 15.8021 114.867 16.2292 114.867 17.3396C114.867 18.5354 113.657 19.0479 112.189 19.0479C110.634 19.0479 109.51 18.45 108.906 17.3396L105.882 18.7917C106.919 20.8417 109.078 22.1229 112.102 22.1229C115.558 22.1229 118.236 20.4146 118.236 17.3396C118.236 14.0083 115.472 13.2396 113.053 12.5563H112.966C112.793 12.5563 112.707 12.4708 112.534 12.4708C111.066 11.9583 109.856 11.6167 109.856 10.5063ZM59.4007 9.56667V5.97917C57.4135 5.97917 55.5128 6.74792 54.5625 8.79792V6.23542H51.193V21.6958H54.5625V13.9229C54.5625 10.4208 57.1543 9.39583 59.4007 9.56667ZM74.8656 18.7062V27.1625C75.9023 25.5396 77.5438 24.7708 79.7038 24.7708C83.1596 24.7708 85.6651 27.0771 85.6651 31.0917V40.6583H82.2956V31.5188C82.2956 29.2125 80.9133 27.9313 78.8398 27.9313C76.5935 27.9313 74.8656 29.2125 74.8656 32.3729V40.6583H71.4961V21.4396C70.4594 21.8667 69.3362 22.1229 68.0403 22.1229C62.8565 22.1229 59.5734 18.6208 59.5734 14.0083C59.5734 9.39583 62.9429 5.89375 67.7811 5.89375C72.4465 5.89375 75.6431 9.56667 75.6431 14.0083C75.6431 14.1792 75.6431 14.4354 75.5567 14.6917C75.5567 14.9479 75.4703 15.1188 75.4703 15.375H63.0293C63.5477 17.7667 65.5348 19.0479 68.0403 19.0479C69.509 19.0479 70.6322 18.5354 71.4961 17.8521C71.7553 17.6812 71.9281 17.425 72.1009 17.1688L74.8656 18.7062ZM72.1873 12.6417C71.6689 9.99375 69.7682 8.88333 67.6947 8.88333C65.1892 8.88333 63.4613 10.3354 63.0293 12.6417H72.1873Z" fill="#808080"/>
</svg>
