<svg width="162" height="181" viewBox="0 0 162 181" fill="none" xmlns="http://www.w3.org/2000/svg">
<path fill-rule="evenodd" clip-rule="evenodd" d="M41.3183 108.803C42.4845 104.311 43.5571 102.406 45.6288 100.844C47.5666 99.3835 50.3954 98.1567 54.5229 97.2606C58.822 96.514 58.9438 94.2947 60.0218 90.7278C60.3362 89.6555 61.8945 89.3702 62.5671 90.1431C62.6619 90.0414 62.7607 89.9484 62.8631 89.8642C62.7715 89.3528 63.5212 87.887 63.4961 87.3979C63.2347 82.2919 64.9162 79.7278 69.113 78.7747C70.0257 78.5673 76.2251 78.4452 77.115 78.6896C81.0054 79.758 84.8352 83.15 84.2491 87.2362C85.4704 88.8214 86.6656 89.7889 88.5496 90.2996C92.7425 90.8284 96.935 91.2986 101.129 91.7011C109.339 92.98 117.036 97.2961 122.297 103.591C122.782 104.172 122.922 104.961 122.494 105.58C122.829 107.007 124.718 110.469 123.232 111.448C125.675 117.252 131.297 128.471 131.308 131.676C131.352 145.141 129.888 162.667 116.51 170.118C115.975 170.641 115.898 171.22 115.666 171.998C115.078 174.449 112.942 176.201 110.604 176.058C99.088 176.312 87.9336 174.917 76.4168 174.849C71.338 174.819 65.2302 175.572 60.8182 176.074C56.4063 176.576 51.9526 176.132 47.7186 174.849C47.3616 175.407 46.6397 175.733 45.9075 175.572C41.5183 174.706 37.9688 172.02 34.8774 169.083C33.9327 167.376 30.2433 162.513 31.7098 160.82C30.3804 155.238 30.4495 149.24 32.8118 143.925C32.4769 142.951 33.0873 141.88 32.8118 140.874C32.6124 140.146 32.1018 139.845 31.8448 139.124C31.4832 138.109 31.8765 136.748 32.2837 135.713C32.4505 135.197 31.9766 134.641 31.8448 134.115C31.2201 131.632 32.6507 131.85 33.682 130.19C33.6666 130.185 33.3984 129 33.3997 129.006C33.2417 128.16 33.6373 127.076 33.9824 126.369C34.2156 125.892 34.7152 125.593 35.2116 125.648C34.7117 123.962 34.0795 122.56 33.3997 120.936C32.1973 118.073 30.6753 115.332 28.9488 112.741C28.2418 111.68 29.1914 110.45 30.3356 110.378C34.0389 110.144 37.7018 109.615 41.3183 108.803Z" fill="white"/>
<path fill-rule="evenodd" clip-rule="evenodd" d="M52.1255 130.452C53.6067 129.875 55.2016 129.556 56.8046 129.432C55.9416 129.282 55.076 129.137 54.2035 129.063C53.5947 129.011 53.0301 129.016 52.5725 129.475C52.2673 129.78 52.1242 130.174 51.9235 130.535C51.989 130.506 52.0573 130.478 52.1255 130.452ZM36.227 125.058C38.6529 125.18 41.0814 125.753 43.2758 126.791C44.1736 127.216 44.9871 127.83 45.2253 128.841C45.3457 129.356 45.3163 129.89 45.2522 130.411C45.2039 130.805 45.1918 131.309 44.8466 131.576C44.7878 131.621 44.7249 131.656 44.6593 131.681C45.4688 132.044 46.2396 132.48 46.9247 132.929C47.5508 133.34 48.1944 133.973 48.4834 134.687C48.5075 134.606 48.5315 134.53 48.5556 134.458C49.048 133.012 49.8067 131.828 51.0015 131.031C50.7901 130.937 50.6443 130.714 50.7125 130.405C50.9962 129.117 52.1939 127.998 53.5465 128.078C55.0277 128.164 56.6186 128.7 57.9581 129.376C58.4463 129.366 58.9335 129.372 59.4151 129.394C59.498 129.396 59.494 129.508 59.4151 129.517C59.0244 129.567 58.6337 129.621 58.243 129.685C57.3144 129.832 56.3885 130.02 55.4827 130.252C54.3961 130.532 53.2722 130.812 52.2566 131.3C50.2872 132.248 49.0681 134.725 49.3183 136.881C49.3598 137.235 49.4976 138.304 49.9915 138.193C50.4088 138.1 50.5747 137.235 50.7206 136.914C51.1113 136.064 51.8151 135.508 52.6594 135.132C53.6508 134.689 54.7119 134.39 55.7396 134.042C56.3215 133.844 56.9036 133.646 57.487 133.449C58.0837 133.246 58.6511 132.965 59.2866 133.107C59.6706 133.194 59.7148 133.648 59.4994 133.909C59.1715 134.306 58.6845 134.423 58.2122 134.587C57.5887 134.802 56.9665 135.018 56.3443 135.233C55.3824 135.565 54.3747 135.846 53.4369 136.252L53.4662 136.319C53.5426 136.298 53.6322 136.373 53.6174 136.466C53.4769 137.327 53.2815 138.321 53.4984 139.182C53.6696 139.865 54.2732 140.622 55.0571 140.421C54.934 140.309 54.8885 140.117 54.9715 139.938C55.282 139.279 59.3495 136.677 59.7121 137.643C59.7242 137.677 59.6868 137.703 59.6573 137.698C59.3482 137.634 58.8304 138.157 58.583 138.323C58.2257 138.563 57.8631 138.797 57.5097 139.043C57.123 139.311 56.7457 139.593 56.3777 139.884C56.0887 140.113 55.8706 140.351 55.5389 140.466C55.7127 140.549 55.8507 140.701 55.9094 140.897C56.0593 141.406 56.3483 141.838 56.8501 142.063C57.3759 142.297 57.9687 142.149 58.5226 142.206C59.2773 142.282 59.9356 142.638 60.4855 143.147C61.6402 144.219 62.2196 146.106 63.8346 146.613C64.7993 146.915 65.8697 146.724 66.8465 146.587C67.937 146.435 68.9994 146.314 70.0979 146.473C71.1496 146.626 72.1437 146.987 73.1044 147.429C74.0049 147.842 75.0004 148.31 75.7992 148.927C75.9638 148.423 76.1297 147.925 76.2556 147.41C76.5525 146.194 76.7131 144.955 76.752 143.706C76.788 142.516 76.7211 141.321 76.6182 140.137C76.5673 139.545 76.487 138.956 76.4361 138.365C76.4229 138.216 76.396 138.056 76.3759 137.897C74.9496 137.061 73.4511 136.42 71.9405 135.761C71.9363 135.759 71.9323 135.757 71.9283 135.755C71.8815 135.734 71.836 135.714 71.7892 135.694C71.7905 135.692 71.7918 135.689 71.7945 135.686C71.6219 135.581 71.5015 135.442 71.4292 135.285C69.2523 133.851 67.4325 131.893 66.0758 129.609C65.5071 128.652 64.9599 127.659 64.2159 126.82C63.4238 125.926 62.4832 125.394 61.3191 125.117C59.9583 124.793 58.5561 124.599 57.1618 124.489C56.4005 124.429 55.5496 124.336 54.7199 124.34C54.1419 124.344 53.576 124.393 53.0568 124.535C52.2874 124.745 51.8378 125.326 51.3548 125.914C50.8932 126.477 50.4342 127.042 50.0034 127.63C49.5954 128.187 49.2099 128.762 48.8754 129.366C48.6747 129.727 48.4887 130.1 48.3322 130.484C48.2773 130.619 48.2051 130.773 48.1716 130.914C48.1382 131.056 48.1997 131.207 48.0392 131.207C48.7015 131.216 48.6948 132.267 48.0365 132.229C45.4594 132.08 49.1511 127.082 49.6904 126.385C50.4544 125.399 51.2424 124.112 52.4654 123.654C52.4827 123.647 52.5015 123.641 52.5189 123.635C52.163 123.3 51.882 122.899 51.613 122.491C51.3361 122.071 51.0057 121.59 50.9146 121.091C50.857 120.774 51.2544 120.593 51.4431 120.87C51.7174 121.276 51.8499 121.789 52.0546 122.234C52.2633 122.686 52.5175 123.113 52.7182 123.569C53.2013 123.421 53.7231 123.354 54.2543 123.331C53.5839 122.43 52.4387 120.691 52.3008 120.468C51.6665 119.434 51.0631 118.368 50.4864 117.3C49.863 116.144 49.329 114.939 48.7323 113.77C48.3937 113.106 48.0525 112.438 47.6766 111.794C47.5468 111.574 47.4076 111.353 47.2497 111.152C47.2189 111.113 47.1801 111.079 47.144 111.042C47.1025 111.019 47.0597 110.994 47.0356 110.981C46.819 110.857 46.7426 110.57 46.5902 110.388C46.3465 110.094 46.0602 110.06 45.6936 110.056C44.9123 110.048 44.1281 110.078 43.348 110.1C42.2013 110.131 41.056 110.177 39.9106 110.236C39.5641 110.255 39.2189 110.274 38.8723 110.295C37.2065 110.393 35.542 110.522 33.8815 110.681C32.4123 110.82 30.9432 111.047 29.4727 111.156C31.4637 115.855 33.6714 120.469 36.171 124.922C36.1963 124.967 36.2151 125.012 36.227 125.058ZM47.2721 137.163C47.5932 137.309 47.905 137.491 48.1953 137.699C48.1471 137.376 48.1351 137.035 48.1485 136.694C47.909 136.949 47.6026 137.095 47.2721 137.163ZM33.5657 129.08C33.5885 129.083 33.6099 129.094 33.6206 129.117C34.0648 130.028 33.8789 131.044 33.1536 131.758C32.7736 132.13 31.9454 132.551 31.9723 133.162C31.995 133.656 32.5368 134.071 32.7682 134.479C32.9837 134.859 33.0639 135.277 32.8913 135.689C32.6706 136.217 32.0537 136.427 31.8423 136.945C31.5747 137.603 32.0096 138.397 32.3147 138.969C32.5983 139.5 32.9651 140.03 33.2085 140.591C34.8395 141.43 36.2993 142.717 37.5544 144.023C38.9285 145.452 40.1073 147.134 42.2896 147.091C42.5077 147.087 42.6737 147.202 42.7727 147.36C43.3801 147.388 43.9889 147.4 44.5964 147.402C45.6642 147.408 46.7319 147.397 47.7983 147.364C47.8732 147.107 47.8184 146.759 47.8225 146.542C47.8358 145.844 47.8425 145.148 47.8719 144.45C47.8799 144.256 47.888 144.06 47.896 143.866C47.512 144.556 46.7627 144.87 45.909 144.822C44.5362 144.743 43.1553 144.519 41.7961 144.318C41.0801 144.213 40.3656 144.094 39.6524 143.966C39.0663 143.862 38.2394 143.889 37.83 143.422C37.7337 143.314 37.7283 143.114 37.8795 143.041C38.2849 142.843 38.5405 142.953 38.9862 143.038C39.5293 143.143 40.0739 143.243 40.6199 143.336C41.6676 143.517 42.7178 143.684 43.7708 143.832C44.3703 143.916 44.9711 143.998 45.5718 144.063C46.0963 144.119 46.6877 144.195 47.1106 143.803C47.9629 143.01 47.4852 141.682 46.946 140.882C46.9353 140.866 46.9353 140.852 46.9393 140.838C46.4308 140.72 45.9237 140.582 45.418 140.485C44.4452 140.299 43.4658 140.142 42.485 140.002C40.4699 139.716 38.4415 139.528 36.4158 139.338C35.9141 139.29 35.9087 138.506 36.4158 138.552C39.326 138.817 42.2508 139.068 45.1223 139.625C45.8421 139.763 46.5568 139.92 47.2671 140.097C47.603 140.179 47.9629 140.308 48.3148 140.312C48.3362 140.312 48.3577 140.312 48.379 140.311C49.0681 140.29 49.1684 139.703 48.7898 139.216C48.743 139.156 48.6948 139.096 48.6453 139.039C47.9763 138.246 47.1428 137.717 46.2838 137.17C45.3216 137.039 44.3623 136.75 43.4203 136.537C41.0948 136.011 38.7693 135.484 36.4425 134.959C35.9863 134.855 36.1802 134.159 36.6365 134.261C38.4027 134.659 40.1689 135.056 41.9352 135.454L44.5201 136.036C45.0366 136.151 45.6817 136.384 46.2891 136.468C46.5887 136.509 46.8791 136.514 47.1413 136.453C47.9883 136.254 48.0311 135.202 47.6658 134.578C47.2564 133.876 46.483 133.437 45.7966 133.04C44.6071 132.35 43.3413 131.854 42.105 131.282C41.8856 131.235 41.6661 131.187 41.4467 131.139C40.1702 130.86 38.7118 130.723 37.5102 130.211C37.1503 130.06 37.3471 129.496 37.7029 129.504C38.6355 129.524 39.6109 129.853 40.5221 130.049C41.5082 130.262 42.4957 130.473 43.4818 130.684C43.5808 130.706 44.1669 130.892 44.2552 130.85C44.3114 130.824 44.3315 130.63 44.3502 130.502C44.4106 130.082 44.4546 129.641 44.389 129.219C44.2445 128.274 43.4511 127.83 42.6482 127.467C40.8606 126.661 38.9004 126.156 36.9496 125.953C36.5 125.907 36.0504 125.878 35.5982 125.863C35.0671 125.847 34.6294 125.754 34.3605 126.274C33.9377 127.093 33.7049 128.146 33.5657 129.08ZM36.047 158.768C36.4365 157.43 36.3305 156.001 36.5973 154.636C36.735 153.931 36.923 153.233 37.1282 152.545C37.2939 151.99 37.5702 151.399 37.6015 150.82C37.6034 150.781 37.5575 150.759 37.5259 150.776C36.9764 151.089 36.5544 151.765 36.241 152.295C35.8658 152.93 35.5793 153.595 35.3483 154.294C34.8877 155.686 34.5096 157.365 35.1035 158.768C35.2803 159.186 35.9011 159.269 36.047 158.768ZM48.0879 141.042C47.7587 141.01 47.4296 140.947 47.1004 140.874C47.4684 141.231 47.8082 141.66 47.997 142.136C48.0263 141.77 48.0639 141.406 48.1133 141.043C48.1053 141.043 48.0959 141.043 48.0879 141.042ZM51.2511 168.899C51.8316 168.497 52.2545 167.934 52.7468 167.438C53.2309 166.949 52.4741 166.197 51.9899 166.686C51.5699 167.109 51.2052 167.638 50.711 167.981C50.4731 168.145 50.363 168.443 50.5188 168.708C50.6567 168.942 51.0139 169.063 51.2511 168.899ZM54.4853 153.433C53.4257 152.978 52.3837 152.483 51.2747 152.155C50.612 151.959 50.3314 152.985 50.9901 153.18C52.0114 153.482 52.9693 153.933 53.945 154.352C54.5715 154.621 55.1159 153.704 54.4853 153.433ZM65.6775 153.115C65.9367 152.48 64.9006 152.206 64.6453 152.833C64.3514 153.553 64.0144 154.256 63.7205 154.976C63.4616 155.611 64.4973 155.885 64.7526 155.259C65.0466 154.538 65.3836 153.836 65.6775 153.115ZM76.7196 165.799C76.8922 166.027 77.18 166.151 77.4519 165.989C77.6796 165.854 77.8186 165.493 77.6439 165.262C77.1337 164.586 76.6168 163.919 76.0189 163.317C75.5341 162.829 74.7776 163.581 75.2619 164.069C75.7959 164.607 76.2638 165.195 76.7196 165.799ZM78.3008 94.6319C77.8095 94.9652 77.3791 95.3703 76.9593 95.787C76.4714 96.2715 77.2284 97.0233 77.7164 96.5388C78.07 96.1876 78.4268 95.8311 78.8411 95.5501C79.0805 95.3877 79.188 95.0855 79.0331 94.8226C78.8944 94.5871 78.5397 94.47 78.3008 94.6319ZM62.2335 111.744C62.5113 112.297 62.7614 112.838 62.7772 113.467C62.794 114.151 63.8644 114.151 63.8475 113.467C63.827 112.645 63.5219 111.932 63.1578 111.207C62.8498 110.594 61.9269 111.134 62.2335 111.744ZM56.338 98.0007C55.7625 97.6196 55.2271 98.5412 55.7975 98.9189C56.26 99.2251 56.7225 99.5315 57.1849 99.8377C57.7602 100.219 58.2955 99.2972 57.7252 98.9195C57.2628 98.6132 56.8004 98.307 56.338 98.0007ZM81.9066 122.03C82.0048 122.706 83.0361 122.417 82.9389 121.747C82.7883 120.713 82.6046 119.692 82.3222 118.685C82.1372 118.025 81.1049 118.307 81.29 118.967C81.5725 119.975 81.7562 120.996 81.9066 122.03ZM85.659 134.211C86.348 134.197 86.3481 133.133 85.659 133.148C85.0355 133.161 84.4225 133.324 83.8211 133.473C83.1521 133.639 83.4374 134.664 84.1057 134.499C84.6142 134.372 85.1318 134.222 85.659 134.211ZM87.0456 158.749C87.2823 158.864 87.5251 158.967 87.7644 159.075C88.2435 159.293 88.7224 159.511 89.2011 159.729C90.1985 160.184 91.1953 160.64 92.1912 161.098C94.1849 162.015 96.1939 162.899 98.1924 163.806C100.23 164.731 102.263 165.668 104.293 166.61C105.249 167.054 106.213 167.481 107.175 167.913C107.997 168.283 109.014 168.928 109.916 168.989C109.963 168.992 109.978 168.934 109.952 168.904C109.611 168.518 109.067 168.294 108.619 168.044C108.161 167.788 107.694 167.547 107.23 167.303C106.262 166.793 105.293 166.288 104.316 165.796C102.361 164.814 100.402 163.838 98.4432 162.864C96.4452 161.87 94.4498 160.869 92.4343 159.911C91.4854 159.459 90.5355 159.009 89.5851 158.561C89.0703 158.318 88.5551 158.075 88.04 157.833C87.8175 157.728 87.5972 157.615 87.3698 157.522C87.0675 157.398 86.8378 157.423 86.526 157.346C86.0176 157.222 85.7975 157.864 86.1878 158.144C86.5092 158.374 86.6783 158.571 87.0456 158.749ZM94.1906 169.653C94.3005 169.388 94.0705 169.065 93.8168 168.999C93.5129 168.919 93.2692 169.103 93.1583 169.37C92.8649 170.079 92.4469 170.73 91.9089 171.28C91.428 171.771 92.1845 172.523 92.6658 172.032C93.34 171.343 93.8244 170.538 94.1906 169.653ZM99.4479 152.584C99.9359 152.099 99.1788 151.348 98.691 151.832L97.3037 153.21C96.8157 153.695 97.5729 154.447 98.0606 153.962L99.4479 152.584ZM113.684 150.337C114.681 150.628 115.844 150.895 116.524 151.74C116.558 151.782 116.613 151.729 116.593 151.687C115.723 149.894 113.226 149.266 111.498 148.637C110.275 148.193 109.021 147.825 107.756 147.496C107.882 146.062 107.534 144.525 107.413 143.099C107.283 141.576 107.178 140.049 107.124 138.521C107.069 136.962 107.055 135.393 107.107 133.834C107.158 132.281 107.361 130.747 107.45 129.199C107.459 129.049 107.249 129.042 107.204 129.166C106.678 130.602 106.454 132.194 106.283 133.708C106.107 135.269 106.048 136.825 106.071 138.394C106.094 140.008 106.189 141.618 106.318 143.226C106.38 143.989 106.451 144.75 106.518 145.512C106.57 146.093 106.593 146.67 106.713 147.233C105.95 147.047 105.185 146.871 104.423 146.7C101.992 146.155 99.5514 145.649 97.1309 145.06C95.9427 144.771 94.7716 144.425 93.5887 144.117C92.475 143.827 91.2994 143.476 90.1559 143.347C89.7478 143.301 89.6959 143.855 89.966 144.044C90.8954 144.692 92.1298 145.143 93.2033 145.506C94.2806 145.87 95.4006 146.132 96.5048 146.402C98.8077 146.965 101.132 147.425 103.454 147.904C105.772 148.383 108.094 148.858 110.386 149.448C111.49 149.733 112.59 150.018 113.684 150.337ZM119.147 121.888C119.743 122.236 120.281 121.316 119.687 120.97C118.91 120.517 118.082 120.176 117.247 119.844C116.607 119.59 116.331 120.619 116.963 120.87C117.713 121.168 118.449 121.481 119.147 121.888ZM121.306 161.396C121.904 161.74 122.442 160.82 121.846 160.477C121.01 159.996 120.093 159.674 119.226 159.252C118.609 158.952 118.067 159.87 118.686 160.171C119.553 160.592 120.469 160.914 121.306 161.396ZM122.274 138.969C121.696 139.515 120.925 139.771 120.198 140.058C119.564 140.307 119.842 141.335 120.483 141.083C121.389 140.726 122.311 140.4 123.031 139.721C123.532 139.249 122.774 138.498 122.274 138.969ZM115.886 108.513C115.251 108.76 115.529 109.789 116.171 109.539C116.882 109.261 117.617 109.05 118.329 108.773C118.964 108.525 118.685 107.497 118.044 107.747C117.332 108.025 116.598 108.236 115.886 108.513ZM104.607 96.4157C103.932 96.3027 103.645 97.3275 104.323 97.4412C105.164 97.5822 105.992 97.7472 106.789 98.0537C107.433 98.3012 107.709 97.2726 107.074 97.0283C106.276 96.7218 105.448 96.5567 104.607 96.4157ZM100.883 125.87C101.502 125.567 100.959 124.651 100.343 124.951C99.6939 125.268 99.0212 125.514 98.3129 125.663C97.6384 125.806 97.9257 126.831 98.5975 126.689C99.3947 126.52 100.153 126.226 100.883 125.87ZM97.3618 109.279C96.6954 109.097 96.4136 110.123 97.0772 110.304C98.2446 110.622 99.4465 110.787 100.623 111.07C101.293 111.231 101.576 110.205 100.907 110.044C99.7311 109.762 98.5291 109.597 97.3618 109.279ZM82.4349 104.072C81.7574 104.197 82.0461 105.222 82.7194 105.098C83.4362 104.966 84.1626 104.964 84.8893 104.964C85.5792 104.963 85.578 103.9 84.8893 103.9C84.0637 103.901 83.2487 103.923 82.4349 104.072ZM33.7504 109.628C35.4992 109.462 37.2506 109.329 39.0048 109.229C39.0865 109.225 39.1667 109.22 39.2484 109.216C39.2577 109.197 39.2697 109.18 39.2819 109.161C39.8544 108.326 40.2759 107.492 40.6412 106.548C40.9904 105.649 41.3289 104.723 41.8668 103.912C42.4803 102.988 43.3086 102.265 44.2163 101.639C44.7669 102.007 45.2779 102.437 45.7454 102.894C46.2374 103.374 46.9944 102.622 46.5023 102.142C46.0868 101.736 45.6434 101.361 45.1747 101.023C45.7159 100.696 46.2681 100.389 46.8068 100.084C48.826 98.9393 50.8932 97.8811 53.0032 96.9135C53.984 96.4628 54.9768 96.0627 55.9763 95.6573C56.5144 95.4394 57.0454 95.1588 57.5833 94.9064C57.5445 94.5287 57.6582 94.106 57.9499 93.8575C58.1654 93.6754 58.3326 93.6076 58.5895 93.4788C58.647 93.4587 58.6818 93.4467 58.6979 93.4401C58.6859 93.4428 58.6511 93.4534 58.5937 93.472C58.457 93.5346 58.4463 93.5159 58.5614 93.4175C58.5681 93.2023 58.9951 92.7477 59.0926 92.5257C59.4325 91.7639 59.5382 90.9584 60.0399 90.2645C60.7317 89.3088 61.8931 88.9474 62.9757 89.2716C63.088 88.1218 63.1174 86.9216 63.5536 85.8953C63.5656 85.8675 63.6044 85.8554 63.6218 85.886C64.0768 86.6557 64.1156 87.513 64.1504 88.4009C64.1838 89.2344 64.1518 90.0864 64.042 90.9145C64.1115 90.9677 64.1825 91.0183 64.2561 91.0674C64.6013 91.2934 64.9732 91.4675 65.3639 91.5966C66.1079 91.841 66.888 91.9473 67.668 91.9846C69.6818 92.0803 71.757 91.8782 73.7373 91.5353C75.7404 91.1883 78.8111 90.6673 80.5934 89.6717C81.7696 89.0152 82.8546 88.2135 83.9546 87.4372C83.5558 86.1611 83.4541 84.7894 83.8555 83.7113C83.9037 83.5824 84.107 83.5585 84.1458 83.7113C84.3974 84.7402 84.471 85.7743 84.8055 86.7912C84.8108 86.8058 84.8162 86.8219 84.8216 86.8364C84.9259 86.7661 85.0303 86.6968 85.1347 86.6277C85.3755 86.4695 85.7033 86.588 85.8478 86.8138C88.1587 90.4307 91.8181 90.638 95.6609 91.2842C99.8665 91.9912 104.093 92.7542 108.137 94.1379C112.004 95.462 115.699 97.3894 118.627 100.269C119.29 100.92 119.909 101.615 120.494 102.34C119.928 102.411 119.367 102.521 118.813 102.694C118.157 102.899 118.439 103.925 119.098 103.72C119.81 103.497 120.53 103.387 121.257 103.333C123.246 106.036 124.797 109.101 126.139 112.119C128.711 117.904 130.386 124.064 131.156 130.337C130.733 130.085 130.302 129.845 129.861 129.622C129.248 129.312 128.707 130.23 129.321 130.54C130.003 130.885 130.665 131.264 131.307 131.676C131.587 134.422 131.696 137.185 131.63 139.944C131.473 146.521 130.579 153.291 128.558 159.566C127.566 162.646 126.252 165.701 124.295 168.303C123.409 169.482 122.403 170.546 121.217 171.432C120.643 171.863 120.036 172.247 119.395 172.572C118.569 172.992 117.494 173.13 116.782 173.724C116.548 173.919 116.367 174.177 116.23 174.468C116.309 175.021 116.319 175.576 116.166 176.129C116.118 176.302 115.987 176.442 115.825 176.51C115.822 176.558 115.822 176.604 115.822 176.65C115.822 176.671 115.79 176.676 115.786 176.655C115.78 176.614 115.773 176.573 115.766 176.53C115.714 176.547 115.659 176.555 115.603 176.555C113.57 176.563 111.535 176.514 109.5 176.445C109.658 175.966 109.828 175.491 109.992 175.013C110.214 174.362 109.18 174.085 108.96 174.73C108.768 175.29 108.568 175.845 108.39 176.407C106.209 176.326 104.029 176.229 101.853 176.158C97.2251 176.005 92.5982 175.954 87.9687 175.858C80.7794 175.706 73.5377 175.396 66.3372 175.699C66.0882 175.174 65.8095 174.661 65.5452 174.143C65.2335 173.532 64.3102 174.071 64.6209 174.68C64.8046 175.04 64.9949 175.395 65.1757 175.755C63.7174 175.83 62.2605 175.929 60.8068 176.065C58.326 176.296 55.8693 176.707 53.3913 176.962C50.8719 177.223 48.4071 177.176 45.9077 176.763C45.4581 176.688 45.1932 176.418 45.0835 176.083C45.0796 176.082 45.0768 176.08 45.0742 176.075C44.9458 175.927 44.8252 175.803 44.7009 175.695C44.5523 175.6 44.3917 175.518 44.203 175.447C43.8511 175.314 43.4845 175.233 43.1125 175.178C42.7031 175.117 42.2883 175.112 41.8789 175.061C41.5338 175.017 41.1965 174.952 40.8594 174.873C40.2532 174.729 39.6778 174.542 39.1051 174.293C38.6061 174.076 38.1553 173.765 37.7297 173.426C36.8492 172.787 36.0867 171.971 35.4202 171.123C35.0322 170.627 34.6669 170.112 34.3351 169.577C33.757 168.649 33.2647 167.685 32.7669 166.714C32.5863 166.426 32.4214 166.131 32.2708 165.83C33.2435 165.545 34.2256 165.313 35.2568 165.296C35.9462 165.285 35.9461 164.222 35.2568 164.233C34.0742 164.252 32.9554 164.526 31.8439 164.853C31.7897 164.71 31.7378 164.566 31.6898 164.421C31.5573 164.116 31.4476 163.804 31.3566 163.487C31.3032 163.344 31.2496 163.2 31.1961 163.057C31.0756 162.56 30.9552 162.061 30.8335 161.563C30.5913 160.765 30.4001 159.956 30.2594 159.135C30.1417 158.596 30.0507 158.052 29.9892 157.502C29.8018 156.169 29.6493 154.838 29.6386 153.49C29.6547 152.659 29.7082 151.83 29.7992 151.004C29.838 150.444 29.9035 149.885 29.9918 149.331C30.1069 148.507 30.2206 147.691 30.412 146.877C30.5551 146.327 30.6983 145.777 30.8415 145.226C31.1987 144.079 31.6202 142.955 32.106 141.855C32.1327 141.786 32.268 141.635 32.3494 141.633C32.411 141.632 32.4968 141.688 32.4687 141.762C32.4659 141.769 32.4633 141.777 32.4605 141.783C32.4886 141.721 32.5154 141.657 32.5434 141.595C32.5675 141.536 32.6612 141.419 32.7335 141.421C32.7375 141.421 32.7416 141.421 32.7468 141.422C32.7281 141.409 32.7107 141.391 32.6933 141.372C32.213 140.807 31.9012 140.063 31.5573 139.409C31.2723 138.87 31.0034 138.301 30.9258 137.691C30.8577 137.155 30.9499 136.627 31.2884 136.194C31.6737 135.701 32.3989 135.47 31.9962 134.757C31.5386 133.946 30.8656 133.243 31.5359 132.322C31.8771 131.853 32.4177 131.595 32.8191 131.187C33.2807 130.715 33.5003 130.083 33.4881 129.439C33.46 129.455 33.4225 129.447 33.4092 129.407C33.0211 128.242 33.3021 126.964 33.6995 125.83C33.9163 125.215 34.3753 125.046 34.9091 125.015C32.5971 120.529 30.4335 115.971 28.5053 111.308C28.4411 111.155 28.3782 111.002 28.3154 110.849C28.2216 110.621 28.4196 110.316 28.6485 110.266C30.3156 109.903 32.0524 109.787 33.7504 109.628Z" fill="black"/>
<path fill-rule="evenodd" clip-rule="evenodd" d="M53.0412 54.0639C53.3591 49.9772 52.8665 45.6939 54.4526 41.8095C57.218 35.3647 64.9727 33.2158 70.9846 30.7622C73.393 30.0552 81.4973 29.9564 84.3173 29.0207C90.6997 26.9029 92.2247 24.3797 97.2961 28.4119C98.1521 29.1007 98.6878 29.8494 99.0785 30.8722L99.0624 30.8766C99.174 31.303 99.0544 31.7285 98.803 32.0535C101.002 34.2864 101.922 37.634 100.794 40.6063C97.112 48.3411 97.2851 52.5233 98.4714 60.8385C100.021 68.6013 96.4805 71.437 90.6178 75.6608C90.8565 76.1206 90.9061 76.7317 90.5948 77.1373C83.8154 86.6015 71.0329 91.1201 60.0807 86.3165C55.6351 84.3508 53.6504 79.6475 52.5178 75.4036C51.1983 70.6517 50.7929 65.6444 51.8671 60.8038C52.3003 58.5651 52.8647 56.3426 53.0412 54.0639Z" fill="white"/>
<path fill-rule="evenodd" clip-rule="evenodd" d="M92.1432 8.78691C91.3203 8.66415 90.6989 9.17135 90.4033 9.88625L90.3877 9.92474C90.2927 10.168 90.187 10.4046 90.0733 10.6372C88.0141 9.63364 85.0758 9.89151 83.7725 11.9239C82.8426 13.3755 83.4099 15.0982 83.7605 16.6374L83.9906 17.6517C83.5458 17.9329 83.2103 18.4365 83.226 18.958L83.2279 18.9982L83.3216 20.4125C83.0246 20.1134 82.7529 19.7878 82.5108 19.4408C82.3435 19.1364 82.1629 18.8373 81.9689 18.5476C80.8275 16.8421 78.2652 18.3243 79.2072 20.1506C79.3878 20.5029 79.5912 20.8365 79.8093 21.1582C80.0555 21.6328 80.2575 22.1206 80.4127 22.6217C79.9672 22.8145 79.6246 23.2425 79.5885 23.8885C79.5042 25.3972 80.3017 26.656 81.5701 27.4469C81.9434 27.6795 82.3288 27.7247 82.678 27.6383C82.7396 27.7207 82.8011 27.8031 82.86 27.8869C82.3542 28.2949 81.8979 28.7602 81.5059 29.2759C80.3258 29.1005 79.1389 29.018 77.9521 29.0154C76.5017 28.3096 74.7649 28.3242 73.2061 28.5887C72.2026 28.7588 71.2392 29.0898 70.2517 29.3278C69.2108 29.5777 68.1537 29.587 67.1007 29.7571C65.7734 29.9711 64.6093 30.5799 63.8774 31.5516C63.0732 31.5755 62.2276 31.9025 61.5265 32.3465C59.8941 33.3806 58.271 34.4294 56.6427 35.4702C56.0177 35.8698 55.784 36.5077 55.8989 37.2192L55.9067 37.2647L55.9616 37.5598L55.8328 37.7414C55.3344 38.4405 54.7922 39.1728 54.4697 39.9445C53.8729 40.7992 53.3337 41.6951 52.856 42.6189C52.2124 43.8604 51.6813 45.1764 51.3213 46.5269C51.2317 46.8685 51.142 47.2128 51.0832 47.5611C50.9989 48.0529 51.1286 48.4344 51.1996 48.9062C51.2879 49.5044 51.32 50.1105 51.4137 50.71C51.4765 51.1075 51.8164 51.3029 52.1723 51.3135C52.0385 52.3251 51.9422 53.3433 51.8498 54.3535C51.7201 55.7971 51.6317 57.2446 51.5555 58.6922C51.1621 59.2598 50.3579 59.709 49.7772 59.8646C48.9731 60.0786 48.1301 59.846 47.3701 59.5735C46.8924 59.402 46.5004 59.9988 46.7332 60.3976C47.4651 61.6497 49.0306 61.6444 50.2161 61.0901C50.7179 60.8562 51.1581 60.5172 51.4846 60.0759C51.4645 60.496 51.4431 60.916 51.4217 61.3374L51.4017 61.719C51.1607 66.1763 50.6403 70.7868 51.4832 75.2001C52.943 82.8446 59.311 88.6653 67.09 89.1173C71.172 89.3545 74.5714 88.1567 76.2617 87.4885C77.9521 86.8204 77.2951 85.458 76.1216 85.8474C74.1002 86.5183 70.3866 87.5178 67.0632 87.0862C59.2304 86.069 52.5884 82.1797 53.2708 65.4288C53.3676 63.0533 53.6656 60.6767 53.7298 58.3014C53.7913 55.9792 53.7686 53.6556 53.8716 51.3348L53.906 50.5429C53.9462 49.6177 53.9892 48.6881 54.0589 47.7618C54.1432 47.4029 54.2128 47.0387 54.3158 46.6864C54.5955 45.728 54.9608 44.7962 55.4144 43.9069C55.5147 43.9827 55.6271 44.0372 55.7489 44.0585C56.6734 44.2233 57.5405 44.1768 58.4062 43.794C58.8103 43.6172 59.1662 43.3819 59.498 43.0908C59.6559 42.9539 59.7616 42.821 59.8446 42.6827C60.2634 42.6894 60.6822 42.5644 60.9444 42.2653C61.2435 41.9244 61.2933 41.5723 61.1761 41.2464L61.1639 41.2139L61.1933 41.2033C61.5465 42.1111 62.2503 42.91 63.0224 43.4497C64.2427 44.3057 65.7693 44.553 67.2332 44.5756C68.8495 44.5995 70.5541 44.3522 72.1491 44.0997C72.5705 44.0332 72.9893 43.9575 73.4001 43.8551C73.4162 43.8711 73.4322 43.8897 73.4496 43.9056C74.8184 45.207 76.7439 45.5419 78.4806 44.7989C79.4841 44.3695 80.3258 43.6783 81.0697 42.8861C81.0804 43.3008 81.1018 43.7155 81.1379 44.1263L81.1529 44.2894C81.227 45.0544 81.3695 45.8658 81.9515 46.4179C82.8921 47.3125 84.2569 46.9536 85.342 46.3714C85.3407 46.3993 85.3407 46.4285 85.3407 46.4578C85.0477 47.4467 84.7533 48.437 84.4589 49.4273L84.3955 49.6383C84.1815 50.3414 83.9467 51.0455 83.8822 51.7814C83.7591 53.1878 84.7011 54.5768 86.2746 54.1049C87.1 53.8583 87.7612 53.1689 88.3957 52.6167L88.7955 52.2732C87.7612 55.6322 87.044 59.1109 86.9771 62.6161C86.9731 62.8062 87.1377 62.9497 87.3196 62.9564C87.7451 62.9737 88.2027 62.8899 88.6309 62.7211C88.655 62.7198 88.6791 62.7185 88.7045 62.7145C89.4351 62.6095 90.1134 62.3476 90.7115 61.9608C90.5737 62.3954 90.5122 62.862 90.5483 63.3498C90.5577 63.4682 90.7436 63.5094 90.7704 63.3791C91.1156 61.6923 93.1026 60.4175 94.8153 60.7405C96.6537 61.0875 98.0078 62.6586 98.3396 64.4465C98.6955 66.3672 98.0145 68.5884 96.7527 70.0705C96.172 70.7538 95.408 71.324 94.5008 71.4676C94.086 71.5327 93.6552 71.5101 93.2524 71.3931C93.0812 71.3426 92.9206 71.2722 92.7574 71.2057C92.5192 71.11 92.2409 71.0954 92.0161 70.9943C91.5063 70.767 90.9939 71.2336 91.2521 71.7533C91.4769 72.2066 91.6789 72.5123 92.0522 72.7463C91.7498 73.1132 91.4755 73.6236 91.3739 73.7605C90.8547 74.457 90.3275 75.115 89.7361 75.7517C89.134 76.3977 88.477 76.9879 87.7826 77.5342L87.4907 77.7634C86.8218 78.2904 86.2393 78.7787 85.7675 79.5348C85.3955 80.1316 85.8772 80.9411 86.5743 80.9318C88.7553 80.9012 90.3409 78.9977 91.4702 77.3349C91.6308 77.0969 91.782 76.8457 91.9224 76.5878C91.9733 76.6689 92.0295 76.7447 92.0924 76.8138L91.9679 77.1461C91.5986 78.1244 93.1896 78.7638 93.6512 77.8506C93.987 77.1886 94.3764 76.5586 94.8099 75.9631C95.0655 75.9272 95.3157 75.773 95.4548 75.5736C95.8067 75.0672 96.2015 74.5554 96.5346 74.0157C96.7193 73.8416 96.9093 73.6741 97.1033 73.5106C97.1595 73.5598 97.217 73.609 97.2719 73.6608C97.5154 74.2125 97.8165 74.7162 98.1898 75.1908L98.2698 75.292C98.985 76.1874 99.9165 77.1039 101.069 77.3229C101.421 77.3894 101.76 76.9547 101.448 76.6769C100.641 75.9564 99.687 75.4659 98.9431 74.6617C98.5766 74.2655 98.24 73.8292 97.9506 73.3719L97.8847 73.266C97.8365 73.1876 97.787 73.1092 97.7362 73.0294C98.072 72.8021 98.4079 72.5735 98.7437 72.3449C99.6683 73.1295 100.872 73.4885 101.895 74.1385L101.996 74.2045C102.921 74.8186 103.895 73.4601 103.154 72.7144C102.337 71.8954 101.655 70.9188 100.931 70.0086C101.271 69.3857 101.432 68.6492 101.493 67.9048C101.516 67.6941 101.535 67.4833 101.554 67.2725C102.073 67.2804 102.595 67.1036 103.036 66.7992L103.203 66.6809C103.74 66.8511 104.303 66.9335 104.842 66.9189C106.111 66.8817 106.63 65.4421 105.837 64.5315C105.027 63.6011 103.61 63.3977 102.488 63.8496C102.451 63.831 102.414 63.8111 102.378 63.7912C102.431 63.5466 102.419 63.3247 102.359 63.1299L102.376 63.011C102.623 62.6347 102.785 62.2051 102.847 61.7512C102.896 61.3916 102.886 61.0352 102.802 60.6802C102.774 60.562 102.716 60.4396 102.672 60.3164C102.763 60.0875 102.817 59.8509 102.833 59.6129C102.859 59.5828 102.884 59.5518 102.908 59.5183C103.465 58.7413 103.353 57.8052 102.823 57.1764C102.82 57.1364 102.817 57.0964 102.811 57.0567C102.842 56.9873 102.871 56.9172 102.897 56.8464C103.415 56.3273 103.795 55.7027 103.724 54.9287C103.682 54.4733 103.494 54.0633 103.209 53.7569C103.259 53.6083 103.264 53.4362 103.203 53.2925C103.658 52.0901 103.6 50.6418 103.273 49.297C103.345 49.0923 103.383 48.8704 103.375 48.6351C103.337 47.6368 102.467 46.7196 101.437 46.7316C101.313 46.7327 101.197 46.7487 101.085 46.7723L101.084 46.7485C101.044 46.4489 100.962 46.172 100.84 45.9235C100.9 45.9021 100.955 45.8714 101.003 45.8306C101.664 46.1805 102.362 46.4479 103.095 46.6302C103.633 46.7642 104.185 46.156 103.85 45.6538C103.695 45.4208 103.523 45.2116 103.339 45.0205C103.601 45.0219 103.868 45.0396 104.137 45.074C104.622 45.1365 105.162 44.8082 105.477 44.3642C105.867 44.7417 106.259 45.1179 106.651 45.4941C107.644 46.4498 109.144 45.7466 109.301 44.4865C109.596 44.4081 109.872 44.2751 110.114 44.0851C111.68 44.7603 113.364 45.1312 115.086 45.2016C116.323 45.2521 117.045 43.8219 116.467 42.8116C116.079 42.1337 115.598 41.5249 115.042 40.9959C115.904 41.2578 116.794 41.4465 117.702 41.5675C118.193 41.6326 118.888 41.2285 119.084 40.7806C119.836 39.0579 119.772 37.262 118.906 35.5859C118.873 35.5194 118.836 35.4556 118.799 35.3918C118.71 35.1698 118.612 34.9505 118.506 34.7351C119.571 33.6319 119.664 31.9916 119.09 30.6185C119.32 30.2476 119.408 29.801 119.252 29.3969C118.806 28.2338 118.164 27.1598 117.353 26.2373C117.431 26.0884 117.499 25.9302 117.556 25.7601C118.013 24.3843 117.484 22.7241 116.418 21.7657C115.747 21.1622 114.977 20.8006 114.154 20.5694C113.807 19.9606 113.362 19.4116 112.843 18.949C112.822 18.9051 112.802 18.8613 112.78 18.8174C111.971 17.3047 110.5 16.4939 108.922 16.3065C108.861 15.7149 108.459 15.15 107.876 14.9666C107.715 14.4548 107.476 13.9657 107.147 13.5217C106.629 12.8225 105.768 12.4928 104.958 12.9514C104.513 13.2027 104.088 13.4911 103.689 13.8101C103.51 13.7267 103.307 13.6727 103.078 13.6555L103.02 13.652L101.701 13.5855C101.148 13.3422 100.597 13.087 100.044 12.8385C99.7124 12.566 99.3418 12.3387 98.9377 12.1698C98.4801 11.9798 98.0118 11.8721 97.5422 11.8362C97.1608 11.7126 96.7768 11.6036 96.3861 11.5185C95.4682 11.3191 94.5075 11.2075 93.5548 11.2168C93.5353 10.9718 93.5257 10.7239 93.5275 10.4731L93.5294 10.3474C93.5508 9.54325 92.9046 8.90122 92.1432 8.78691ZM93.0688 73.1292C93.1999 73.1571 93.3324 73.1797 93.4648 73.1956C93.4247 73.294 93.3846 73.3923 93.3458 73.4907C93.2387 73.5505 93.1303 73.6077 93.022 73.6609C93.0541 73.4801 93.0728 73.298 93.0688 73.1292ZM99.9427 71.0999L100.032 71.2626C100.046 71.2892 100.06 71.3155 100.074 71.3414C99.8856 71.3268 99.6956 71.3307 99.5082 71.352L99.5088 71.3322C99.5329 71.3241 99.5569 71.3167 99.58 71.3055C99.7092 71.2438 99.8294 71.1747 99.9427 71.0999ZM96.2249 63.6756C95.0412 63.7441 94.0382 63.9244 92.9616 64.4389L92.8692 64.4838C91.9178 64.953 90.3443 65.8197 90.4768 67.0626C90.5142 67.4161 90.7725 67.7883 91.1792 67.7604C92.2938 67.6847 92.9307 66.5681 93.6854 65.8716C94.4467 65.1697 95.382 64.4479 96.3039 63.9654C96.4342 63.8975 96.3829 63.6825 96.2411 63.6755L96.2249 63.6756ZM101.594 47.3005C101.878 47.3098 101.783 47.5837 101.637 47.355C101.625 47.3364 101.61 47.3178 101.594 47.3005ZM86.2815 29.0205C88.968 29.0907 91.6718 30.6665 93.6843 32.2594C95.4351 33.6451 96.947 35.2934 98.2857 37.0699C98.6301 37.9546 98.9258 38.8579 99.1756 39.7677C99.3402 40.3686 99.4432 40.976 99.581 41.5822L99.6238 41.768C99.7321 41.969 99.8125 42.1852 99.8711 42.4087C99.6272 42.6517 99.3107 42.8257 98.9623 42.9082C98.85 42.9348 98.7568 42.9924 98.6831 43.0687C98.4026 42.6037 98.1575 42.1129 98.0148 41.5927L98.0096 41.5686C97.4705 40.6914 96.885 39.8415 96.2573 39.0207C94.5259 36.7543 92.6192 34.6887 90.3272 32.97C88.5891 31.6673 86.6463 30.6464 84.5804 29.9831C85.086 29.5779 85.6603 29.2572 86.2815 29.0205Z" fill="black"/>
<path fill-rule="evenodd" clip-rule="evenodd" d="M62.0607 78.3094C63.0463 78.593 64.1043 78.6183 65.1091 78.3254C66.0204 78.0598 66.9561 77.4751 67.6268 76.7014C68.2226 76.0141 68.6085 75.1789 68.5933 74.2873C68.5916 74.1855 68.5549 74.1005 68.4986 74.0346C68.4379 73.9635 68.3531 73.9148 68.2623 73.8936C68.1689 73.8718 68.0702 73.8796 67.9861 73.9175C67.91 73.9518 67.8448 74.0102 67.804 74.0954C67.701 74.2299 67.5983 74.3625 67.4952 74.4913C66.6664 75.508 65.8638 76.2677 64.6176 76.5402C63.9415 76.6881 63.2661 76.6225 62.6465 76.3969C61.9832 76.1554 61.3836 75.7307 60.9138 75.1873C60.7015 74.9417 60.4508 74.8415 60.2057 74.8398C59.9279 74.8379 59.6533 74.9661 59.4465 75.1711C59.2432 75.3725 59.107 75.6463 59.0947 75.9327C59.0838 76.184 59.1664 76.4465 59.386 76.6808C60.1092 77.4523 61.0465 78.0176 62.0607 78.3094ZM62.093 65.5763C61.0826 66.1865 59.5431 67.6092 60.63 69.1217C61.9095 70.4554 63.7516 68.9263 64.6594 68.2347C65.5011 67.6987 66.4468 69.0772 65.6659 69.7031C59.1063 74.5276 56.4444 65.7359 61.582 64.859C62.1476 64.7623 62.3577 65.3876 62.093 65.5763ZM71.5426 62.8917C71.8673 62.6854 72.2494 62.6146 72.6727 62.8059C73.0036 62.9554 73.5839 63.4537 73.9877 64.1087C74.264 64.5568 74.4599 65.0825 74.4191 65.6301C74.4096 65.7573 74.4569 65.851 74.5315 65.9204C74.5904 65.9751 74.6756 66.0153 74.7755 66.0279C74.8604 66.0386 74.9554 66.029 75.0327 66.005C75.1796 65.9595 75.2574 65.8648 75.2867 65.7875C75.5694 65.0415 75.4476 64.209 75.1307 63.458C74.703 62.4444 73.9264 61.5954 73.4175 61.3217C72.5468 60.8531 71.5196 60.8315 70.6476 61.3089C69.9053 61.7152 69.4412 62.3711 68.9796 63.0397C68.8815 63.1818 68.7841 63.3229 68.6834 63.4615C68.4817 63.7393 68.4616 64.0147 68.5397 64.2509C68.6263 64.5126 68.8469 64.7335 69.1229 64.849C69.3779 64.9558 69.6739 64.9709 69.9359 64.8611C70.1571 64.7684 70.3602 64.5877 70.4887 64.281C70.7051 63.7645 71.0657 63.1947 71.5426 62.8917ZM55.051 64.0407C55.2734 64.1558 55.4474 64.1905 55.6941 64.1171C55.8306 64.0764 55.9654 63.9983 56.071 63.8934C56.1756 63.7895 56.2511 63.6603 56.2804 63.5169C56.3526 63.163 56.5475 62.8317 56.8253 62.6158C57.0627 62.4312 57.3623 62.3333 57.6947 62.3885C58.0533 62.448 58.395 62.6765 58.6304 62.9459C58.709 63.0361 58.7707 63.1385 58.8327 63.2402C58.9486 63.4303 59.0613 63.6071 59.2212 63.7468C59.2819 63.7999 59.3732 63.8367 59.4617 63.8367C59.4976 63.8367 59.5341 63.8309 59.5689 63.8201C59.9259 63.4642 59.9945 63.1942 59.983 62.9264C59.9709 62.6455 59.8595 62.3612 59.6794 62.0959C59.2569 61.4735 58.4547 60.9632 57.9134 60.8477C57.172 60.6894 56.4358 60.8794 55.8455 61.2907C55.2382 61.714 54.7881 62.3711 54.6478 63.1116C54.6141 63.29 54.6284 63.4825 54.6968 63.6494C54.7636 63.8125 54.88 63.9522 55.051 64.0407ZM69.9093 56.2564C70.3542 56.687 70.8808 56.7537 71.4135 56.813C71.7095 56.8463 71.9458 56.8731 72.1783 56.9252C72.8174 57.0685 73.4491 57.2844 74.0254 57.5952C74.6279 57.9202 75.2845 58.3121 75.7568 58.8142C75.8691 58.9337 75.975 59.059 76.081 59.1847C76.1777 59.2992 76.2708 59.4095 76.369 59.5159C76.4817 59.638 76.5887 59.766 76.6952 59.8937C76.7611 60.0015 76.7741 60.028 76.7873 60.0556C76.8073 60.097 76.8305 60.1434 76.857 60.1932C76.8933 60.2613 76.9358 60.3359 76.9803 60.4036C77.0544 60.5272 77.0942 60.5613 77.1285 60.5765C77.1855 60.6017 77.2396 60.6142 77.2921 60.6074C77.3412 60.6011 77.3876 60.5777 77.4333 60.5392C77.6617 60.3475 77.7291 60.0329 77.7222 59.6989C77.7117 59.1921 77.5235 58.631 77.3501 58.286C76.9468 57.4845 76.3874 56.6513 75.7148 56.0531C74.9473 55.3703 74.1076 54.8534 73.1432 54.4972C72.5438 54.2757 71.8499 54.0725 71.1969 54.0981C70.7269 54.1166 70.2782 54.2554 69.9077 54.602C69.6801 54.8148 69.5709 55.1175 69.5709 55.4199C69.5709 55.7283 69.6844 56.0386 69.9093 56.2564ZM54.1455 60.1996C54.1738 60.2456 54.213 60.2774 54.2566 60.2964C54.3022 60.3164 54.3532 60.3222 54.4022 60.314C54.4509 60.3058 54.4972 60.2839 54.5339 60.2504C54.5692 60.2182 54.596 60.1756 54.608 60.1234C54.9033 58.8346 55.4769 57.8757 56.701 57.2574C57.3032 56.9532 57.9956 56.76 58.6511 56.6059C58.8416 56.5611 59.0429 56.5321 59.2456 56.5027C59.8809 56.4105 60.5207 56.305 60.9349 55.7949C61.1844 55.4876 61.2892 55.0946 61.2299 54.7352C61.1742 54.3968 60.9751 54.0865 60.6133 53.9006C59.7125 53.4379 58.593 53.8919 57.6833 54.2787C57.6159 54.3074 57.5496 54.3355 57.4848 54.3627C56.5952 54.7357 55.7838 55.2282 55.1169 55.9324C54.5877 56.491 54.0974 57.3169 53.8999 58.1665C53.7356 58.8734 53.7742 59.595 54.1455 60.1996Z" fill="black"/>
</svg>
